<svg xmlns:xlink="http://www.w3.org/1999/xlink" xmlns="http://www.w3.org/2000/svg" class="icon-add w-[16px] h-[16px] cursor-pointer transform text-sidebar-color opacity-40 hover:opacity-100" width="24"  height="24" ><defs><symbol xmlns="http://www.w3.org/2000/svg" viewBox="0 0 24 24" id="add" fill="#191919"><defs><clipPath id="add_a"><rect width="24" height="24" rx="0"></rect></clipPath></defs><g clip-path="url(#add_a)" fill="#191919"><path d="M11.9999771,21C11.5614109,21,11.205883,20.644472,11.205883,20.205906L11.205883,12.7942476L3.79409486,12.7942476C3.35552832,12.7942476,3,12.4387197,3,12.0001526C3,11.5615864,3.35552832,11.2060575,3.79409486,11.2060575L11.205883,11.2060575L11.205883,3.79409486C11.205883,3.35552832,11.5614109,3,11.9999771,3C12.4385443,3,12.7940731,3.35552832,12.7940731,3.79409486L12.7940731,11.2060575L20.205906,11.2060575C20.644472,11.2060575,21,11.5615864,21,12.0001526C21,12.4387197,20.644472,12.7942476,20.205906,12.7942476L12.7940731,12.7942476L12.7940731,20.205906C12.7940731,20.644472,12.4385443,21,11.9999771,21Z" fill-rule="evenodd" fill="#191919"></path></g></symbol></defs><use xlink:href="#add"></use></svg>