<svg xmlns:xlink="http://www.w3.org/1999/xlink" xmlns="http://www.w3.org/2000/svg" class="icon-today-icon-15 w-full h-full text-sidebar-color" width="24"  height="24" ><defs><symbol xmlns="http://www.w3.org/2000/svg" viewBox="0 0 24 24" id="today-icon-15" fill="#191919"><path d="M3,8L3,16C3,18.761423999999998,5.2385762,21,8,21L16,21C18.761423999999998,21,21,18.761423999999998,21,16L21,8C21,5.2385762,18.761423999999998,3,16,3L8,3C5.2385762,3,3,5.2385762,3,8ZM5.5251262,18.474871999999998Q4.5,17.449745,4.5,16L4.5,8L19.5,8L19.5,16Q19.5,17.449742999999998,18.474871999999998,18.474871999999998Q17.449742999999998,19.5,16,19.5L8,19.5Q6.550254600000001,19.5,5.5251262,18.474871999999998ZM19.174026,6.5Q18.921929,5.9721839,18.474871999999998,5.5251262Q17.449745,4.5,16,4.5L8,4.5Q6.5502524,4.5,5.5251262,5.5251262Q5.0780674999999995,5.9721849,4.8259716,6.5L19.174026,6.5ZM9.881835899999999,16.807129C9.4204102,16.807129,9.1611328,16.525879,9.1611328,16.033690999999997L9.1611328,12.0830078L9.1435547,12.0830078L8.6821289,12.3950195C8.4536133,12.5400391,8.3305664,12.5839844,8.1855469,12.5839844C7.8955078,12.5839844,7.6845703,12.3730469,7.6845703,12.0830078C7.6845703,11.8676758,7.8164062,11.6743164,8.0756836,11.5117188L8.7919922,11.0327148C9.1347656,10.8129883,9.4467773,10.711914100000001,9.741210899999999,10.711914100000001C10.2553711,10.711914100000001,10.5981445,11.059082,10.5981445,11.5952148L10.5981445,16.033690999999997C10.5981445,16.530273,10.3388672,16.807129,9.881835899999999,16.807129ZM13.841309,16.881836C12.6328125,16.881836,11.7143555,16.227051,11.7143555,15.519531C11.7143555,15.176758,11.9384766,14.891113,12.2944336,14.891113C12.5053711,14.891113,12.6679688,14.970215,12.8349609,15.167969C13.138184,15.541504,13.45459,15.717285,13.854492,15.717285C14.43457,15.717285,14.847656,15.326172,14.847656,14.746094C14.847656,14.196777,14.452148,13.818848,13.898438,13.818848C13.625977,13.818848,13.335938,13.924316,13.072266,14.113281C12.8525391,14.284668,12.6987305,14.337402,12.5229492,14.337402C12.0922852,14.337402,11.7714844,14.03418,11.8022461,13.590332L11.9472656,11.4545898C11.9780273,10.984375,12.2680664,10.7470703,12.8173828,10.7470703L15.313477,10.7470703C15.735352,10.7470703,15.972656,10.9624023,15.972656,11.331543C15.972656,11.6962891,15.739746,11.8984375,15.313477,11.8984375L13.107422,11.8984375L13.010742,13.199219L13.085449,13.199219C13.296387,12.9223633,13.770996,12.7421875,14.289551,12.7421875C15.449707,12.7421875,16.231934000000003,13.528809,16.231934000000003,14.706543C16.231934000000003,16.020508,15.291504,16.881836,13.841309,16.881836Z" fill-rule="evenodd" fill="#191919"></path></symbol></defs><use xlink:href="#today-icon-15"></use></svg>