<svg xmlns:xlink="http://www.w3.org/1999/xlink" xmlns="http://www.w3.org/2000/svg" class="icon-empty-task-detail-3 text-grey-5 absolute bottom-0 left-1/2 -translate-x-1/2" style="width: 1200px; height: 1164px;" width="1200"  height="1164" ><defs><symbol xmlns="http://www.w3.org/2000/svg" viewBox="0 0 1200 1164" id="empty-task-detail-3" fill="#191919"><defs><clipPath id="empty-task-detail-3_a"><rect width="1200" height="1164" rx="0"></rect></clipPath></defs><g clip-path="url(#empty-task-detail-3_a)" fill="#191919"><path d="M421.594,908.482C421.472,908.747,421.472,909.052,421.594,909.317L422.549,911.394C422.936,912.238,422.066,913.108,421.222,912.72L419.145,911.766C418.88,911.644,418.575,911.644,418.31,911.766L416.233,912.72C415.389,913.108,414.519,912.238,414.907,911.394L415.861,909.317C415.983,909.052,415.983,908.747,415.861,908.482L414.907,906.405C414.519,905.561,415.389,904.691,416.233,905.078L418.31,906.033C418.575,906.155,418.88,906.155,419.145,906.033L421.222,905.078C422.066,904.691,422.936,905.561,422.549,906.405L421.594,908.482ZM681.214,92.48179999999999C681.092,92.7469,681.092,93.0521,681.214,93.3172L682.169,95.3942C682.556,96.2376,681.686,97.1082,680.842,96.7205L678.765,95.7656C678.5,95.6437,678.195,95.6437,677.93,95.7656L675.853,96.7205C675.01,97.1082,674.139,96.2376,674.527,95.3942L675.482,93.3172C675.603,93.0521,675.603,92.7469,675.482,92.48179999999999L674.527,90.4048C674.139,89.56139999999999,675.01,88.6908,675.853,89.07849999999999L677.93,90.0334C678.195,90.1553,678.5,90.1553,678.765,90.0334L680.842,89.07849999999999C681.686,88.6908,682.556,89.56139999999999,682.169,90.4048L681.214,92.48179999999999ZM717.461,696.016C717.339,696.281,717.339,696.586,717.461,696.851L717.849,697.695C718.237,698.538,717.366,699.409,716.523,699.021L715.679,698.633C715.414,698.511,715.109,698.511,714.844,698.633L714,699.021C713.156,699.409,712.286,698.538,712.673,697.695L713.061,696.851C713.183,696.586,713.183,696.281,713.061,696.016L712.673,695.172C712.286,694.328,713.156,693.458,714,693.845L714.844,694.233C715.109,694.355,715.414,694.355,715.679,694.233L716.523,693.845C717.366,693.458,718.237,694.328,717.849,695.172L717.461,696.016ZM401.461,1084.02C401.339,1084.28,401.339,1084.59,401.461,1084.85L401.849,1085.69C402.237,1086.54,401.366,1087.41,400.523,1087.02L399.679,1086.63C399.414,1086.51,399.109,1086.51,398.844,1086.63L398,1087.02C397.156,1087.41,396.286,1086.54,396.673,1085.69L397.061,1084.85C397.183,1084.59,397.183,1084.28,397.061,1084.02L396.673,1083.17C396.286,1082.33,397.156,1081.46,398,1081.85L398.844,1082.23C399.109,1082.36,399.414,1082.36,399.679,1082.23L400.523,1081.85C401.366,1081.46,402.237,1082.33,401.849,1083.17L401.461,1084.02ZM869.498,197.691C869.437,197.823,869.437,197.976,869.498,198.108L871.113,201.622C871.307,202.043,870.871,202.479,870.45,202.285L866.936,200.67C866.804,200.609,866.651,200.609,866.519,200.67L863.005,202.285C862.584,202.479,862.148,202.043,862.342,201.622L863.958,198.108C864.018,197.976,864.018,197.823,863.958,197.691L862.342,194.177C862.148,193.756,862.584,193.32,863.005,193.514L866.519,195.129C866.651,195.19,866.804,195.19,866.936,195.129L870.45,193.514C870.871,193.32,871.307,193.756,871.113,194.177L869.498,197.691ZM1032.809,214.986C1032.687,215.251,1032.687,215.556,1032.809,215.822L1034.45,219.392C1034.838,220.235,1033.967,221.106,1033.124,220.718L1029.5529999999999,219.077C1029.288,218.955,1028.983,218.955,1028.7179999999998,219.077L1025.1480000000001,220.718C1024.304,221.106,1023.434,220.235,1023.821,219.392L1025.463,215.822C1025.585,215.556,1025.585,215.251,1025.463,214.986L1023.821,211.416C1023.434,210.572,1024.304,209.702,1025.1480000000001,210.09L1028.7179999999998,211.731C1028.983,211.853,1029.288,211.853,1029.5529999999999,211.731L1033.124,210.09C1033.967,209.702,1034.838,210.572,1034.45,211.416L1032.809,214.986ZM178.388,1024.469C178.26600000000002,1024.734,178.26600000000002,1025.039,178.388,1025.304L180.029,1028.874C180.417,1029.7179999999998,179.546,1030.589,178.703,1030.201L175.1326,1028.559C174.8674,1028.437,174.5623,1028.437,174.2971,1028.559L170.7268,1030.201C169.88330000000002,1030.589,169.0127,1029.7179999999998,169.4005,1028.874L171.042,1025.304C171.1639,1025.039,171.1639,1024.734,171.042,1024.469L169.4005,1020.898C169.0127,1020.055,169.8834,1019.184,170.7268,1019.572L174.2971,1021.214C174.5623,1021.335,174.8674,1021.335,175.1326,1021.214L178.703,1019.572C179.546,1019.184,180.417,1020.055,180.029,1020.898L178.388,1024.469ZM470.114,692.615C469.992,692.88,469.992,693.186,470.114,693.451L472.249,698.095C472.637,698.938,471.766,699.809,470.923,699.421L466.279,697.286C466.014,697.164,465.709,697.164,465.444,697.286L460.8,699.421C459.956,699.809,459.086,698.938,459.474,698.095L461.609,693.451C461.73,693.186,461.73,692.88,461.609,692.615L459.474,687.972C459.086,687.128,459.956,686.258,460.8,686.645L465.444,688.78C465.709,688.902,466.014,688.902,466.279,688.78L470.923,686.645C471.766,686.258,472.637,687.128,472.249,687.972L470.114,692.615ZM774.114,528.615C773.992,528.881,773.992,529.1859999999999,774.114,529.451L776.249,534.095C776.637,534.938,775.766,535.809,774.923,535.421L770.279,533.2860000000001C770.014,533.164,769.709,533.164,769.444,533.2860000000001L764.8,535.421C763.956,535.809,763.086,534.938,763.474,534.095L765.609,529.451C765.73,529.1859999999999,765.73,528.881,765.609,528.615L763.474,523.972C763.086,523.1279999999999,763.956,522.258,764.8,522.645L769.444,524.78C769.709,524.902,770.014,524.902,770.279,524.78L774.923,522.645C775.766,522.258,776.637,523.1279999999999,776.249,523.972L774.114,528.615ZM902.068,851.892C901.946,852.157,901.946,852.462,902.068,852.728L902.696,854.095C903.084,854.938,902.213,855.809,901.37,855.421L900.003,854.792C899.738,854.671,899.432,854.671,899.167,854.792L897.8,855.421C896.957,855.809,896.086,854.938,896.474,854.095L897.102,852.728C897.224,852.462,897.224,852.157,897.102,851.892L896.474,850.525C896.086,849.682,896.957,848.811,897.8,849.199L899.167,849.827C899.432,849.949,899.738,849.949,900.003,849.827L901.37,849.199C902.213,848.811,903.084,849.682,902.696,850.525L902.068,851.892ZM869.286,947.751C869.165,948.016,869.165,948.321,869.286,948.586L871.453,953.298C871.84,954.141,870.97,955.012,870.126,954.624L865.415,952.458C865.15,952.336,864.844,952.336,864.579,952.458L859.868,954.624C859.024,955.012,858.154,954.141,858.541,953.298L860.708,948.586C860.83,948.321,860.83,948.016,860.708,947.751L858.541,943.039C858.154,942.196,859.024,941.325,859.868,941.713L864.579,943.879C864.844,944.001,865.15,944.001,865.415,943.879L870.126,941.713C870.97,941.325,871.84,942.196,871.453,943.039L869.286,947.751ZM181.286,392.751C181.16500000000002,393.016,181.16500000000002,393.321,181.286,393.587L183.453,398.298C183.84,399.141,182.97,400.012,182.126,399.624L177.41500000000002,397.458C177.15,397.336,176.844,397.336,176.579,397.458L171.8678,399.624C171.0244,400.012,170.15370000000001,399.141,170.54149999999998,398.298L172.7077,393.587C172.8296,393.321,172.8296,393.016,172.7077,392.751L170.54149999999998,388.039C170.15370000000001,387.196,171.0244,386.325,171.8678,386.713L176.579,388.879C176.844,389.001,177.15,389.001,177.41500000000002,388.879L182.126,386.713C182.97,386.325,183.84,387.196,183.453,388.039L181.286,392.751ZM251.907,627.176C251.785,627.441,251.785,627.746,251.907,628.012L255.09,634.936C255.478,635.779,254.607,636.65,253.764,636.262L246.84,633.078C246.574,632.957,246.269,632.957,246.004,633.078L239.08,636.262C238.237,636.65,237.366,635.779,237.754,634.936L240.937,628.012C241.059,627.746,241.059,627.441,240.937,627.176L237.754,620.252C237.366,619.409,238.237,618.538,239.08,618.926L246.004,622.109C246.269,622.231,246.574,622.231,246.84,622.109L253.764,618.926C254.607,618.538,255.478,619.409,255.09,620.252L251.907,627.176ZM219.828,800.5C219.828,802.433,218.261,804,216.328,804C214.395,804,212.828,802.433,212.828,800.5C212.828,798.567,214.395,797,216.328,797C218.261,797,219.828,798.567,219.828,800.5ZM917.729,478.5C917.729,480.433,916.162,482,914.229,482C912.297,482,910.729,480.433,910.729,478.5C910.729,476.567,912.297,475,914.229,475C916.162,475,917.729,476.567,917.729,478.5ZM116.9014,152.5C116.9014,154.433,115.3344,156,113.4014,156C111.4684,156,109.9014,154.433,109.9014,152.5C109.9014,150.567,111.4684,149,113.4014,149C115.3344,149,116.9014,150.567,116.9014,152.5ZM86.8281,853.5C86.8281,855.433,85.26112,857,83.32812,857C81.39513,857,79.82812,855.433,79.82812,853.5C79.82812,851.567,81.39513,850,83.32812,850C85.26112,850,86.8281,851.567,86.8281,853.5ZM1095.83,724.5C1095.83,726.433,1094.26,728,1092.33,728C1090.4,728,1088.83,726.433,1088.83,724.5C1088.83,722.567,1090.4,721,1092.33,721C1094.26,721,1095.83,722.567,1095.83,724.5ZM111.8281,546.5C111.8281,548.433,110.2611,550,108.3281,550C106.3951,550,104.8281,548.433,104.8281,546.5C104.8281,544.567,106.3951,543,108.3281,543C110.2611,543,111.8281,544.567,111.8281,546.5ZM698.828,292.5C698.828,294.433,697.261,296,695.328,296C693.395,296,691.828,294.433,691.828,292.5C691.828,290.567,693.395,289,695.328,289C697.261,289,698.828,290.567,698.828,292.5ZM83,48.5C83,50.433,81.43299999999999,52,79.5,52C77.567,52,76,50.433,76,48.5C76,46.567,77.567,45,79.5,45C81.43299999999999,45,83,46.567,83,48.5ZM935.729,458.5C935.729,459.328,935.058,460,934.229,460C933.401,460,932.729,459.328,932.729,458.5C932.729,457.672,933.401,457,934.229,457C935.058,457,935.729,457.672,935.729,458.5ZM459.606,392.482C459.484,392.747,459.484,393.052,459.606,393.317L460.561,395.394C460.949,396.237,460.078,397.108,459.234,396.72L457.155,395.766C456.89,395.644,456.584,395.644,456.319,395.766L454.24,396.72C453.396,397.108,452.524,396.237,452.912,395.394L453.868,393.317C453.99,393.052,453.99,392.747,453.868,392.482L452.912,390.405C452.524,389.562,453.396,388.691,454.24,389.079L456.319,390.033C456.584,390.155,456.89,390.155,457.155,390.033L459.234,389.079C460.078,388.691,460.949,389.562,460.561,390.405L459.606,392.482ZM398.832,547C398.832,548.105,397.936,549,396.83,549C395.724,549,394.828,548.105,394.828,547C394.828,545.895,395.724,545,396.83,545C397.936,545,398.832,545.895,398.832,547ZM811.028,749.016C810.906,749.281,810.906,749.586,811.028,749.851L811.416,750.695C811.804,751.538,810.933,752.409,810.09,752.021L809.246,751.633C808.981,751.511,808.676,751.511,808.41,751.633L807.567,752.021C806.723,752.409,805.853,751.538,806.24,750.695L806.628,749.851C806.75,749.586,806.75,749.281,806.628,749.016L806.24,748.172C805.853,747.328,806.723,746.458,807.567,746.845L808.41,747.233C808.676,747.355,808.981,747.355,809.246,747.233L810.09,746.845C810.933,746.458,811.804,747.328,811.416,748.172L811.028,749.016ZM1057.028,427.016C1056.906,427.281,1056.906,427.586,1057.028,427.851L1057.4160000000002,428.695C1057.804,429.538,1056.933,430.409,1056.0900000000001,430.021L1055.246,429.633C1054.981,429.511,1054.676,429.511,1054.4099999999999,429.633L1053.567,430.021C1052.723,430.409,1051.853,429.538,1052.24,428.695L1052.6280000000002,427.851C1052.75,427.586,1052.75,427.281,1052.6280000000002,427.016L1052.24,426.172C1051.853,425.328,1052.723,424.458,1053.567,424.845L1054.4099999999999,425.233C1054.676,425.355,1054.981,425.355,1055.246,425.233L1056.0900000000001,424.845C1056.933,424.458,1057.804,425.328,1057.4160000000002,426.172L1057.028,427.016ZM311.69399999999996,202.482C311.572,202.747,311.572,203.052,311.69399999999996,203.317L312.649,205.394C313.03700000000003,206.238,312.166,207.108,311.323,206.72L309.246,205.766C308.981,205.644,308.676,205.644,308.40999999999997,205.766L306.33299999999997,206.72C305.49,207.108,304.619,206.238,305.007,205.394L305.962,203.317C306.084,203.052,306.084,202.747,305.962,202.482L305.007,200.405C304.619,199.561,305.49,198.691,306.33299999999997,199.079L308.40999999999997,200.033C308.676,200.155,308.981,200.155,309.246,200.033L311.323,199.079C312.166,198.691,313.03700000000003,199.561,312.649,200.405L311.69399999999996,202.482ZM134.8281,132.5C134.8281,133.3284,134.1566,134,133.3281,134C132.4997,134,131.8281,133.3284,131.8281,132.5C131.8281,131.6716,132.4997,131,133.3281,131C134.1566,131,134.8281,131.6716,134.8281,132.5ZM1175.31,49.90437C1175.24,50.03693,1175.24,50.18953,1175.31,50.3221L1175.82,51.44231C1176.01,51.86399,1175.58,52.29934,1175.16,52.10546L1174.04,51.59042C1173.9,51.52947,1173.75,51.52947,1173.62,51.59042L1172.5,52.10546C1172.08,52.29934,1171.64,51.86399,1171.84,51.44231L1172.35,50.3221C1172.41,50.18953,1172.41,50.03693,1172.35,49.90437L1171.84,48.78415C1171.64,48.36247,1172.08,47.92712,1172.5,48.121L1173.62,48.63604C1173.75,48.697,1173.9,48.697,1174.04,48.63604L1175.16,48.121C1175.58,47.92712,1176.01,48.36247,1175.82,48.78415L1175.31,49.90437ZM615.305,574.904C615.244,575.037,615.244,575.19,615.305,575.322L615.82,576.442C616.014,576.864,615.579,577.299,615.157,577.105L614.037,576.59C613.904,576.529,613.752,576.529,613.619,576.59L612.499,577.105C612.077,577.299,611.642,576.864,611.836,576.442L612.351,575.322C612.412,575.19,612.412,575.037,612.351,574.904L611.836,573.784C611.642,573.362,612.077,572.927,612.499,573.121L613.619,573.636C613.752,573.697,613.904,573.697,614.037,573.636L615.157,573.121C615.579,572.927,616.014,573.362,615.82,573.784L615.305,574.904ZM735.305,838.904C735.244,839.037,735.244,839.19,735.305,839.322L735.82,840.442C736.014,840.864,735.579,841.299,735.157,841.105L734.037,840.59C733.904,840.529,733.752,840.529,733.619,840.59L732.499,841.105C732.077,841.299,731.642,840.864,731.836,840.442L732.351,839.322C732.412,839.19,732.412,839.037,732.351,838.904L731.836,837.784C731.642,837.362,732.077,836.927,732.499,837.121L733.619,837.636C733.752,837.697,733.904,837.697,734.037,837.636L735.157,837.121C735.579,836.927,736.014,837.362,735.82,837.784L735.305,838.904ZM499.419,187.904C499.358,188.037,499.358,188.19,499.419,188.322L499.934,189.442C500.128,189.864,499.692,190.299,499.27,190.105L498.15,189.59C498.018,189.529,497.865,189.529,497.733,189.59L496.612,190.105C496.191,190.299,495.755,189.864,495.949,189.442L496.464,188.322C496.525,188.19,496.525,188.037,496.464,187.904L495.949,186.784C495.755,186.362,496.191,185.927,496.612,186.121L497.733,186.636C497.865,186.697,498.018,186.697,498.15,186.636L499.27,186.121C499.692,185.927,500.128,186.362,499.934,186.784L499.419,187.904Z" opacity=".7" fill="#191919"></path></g></symbol></defs><use xlink:href="#empty-task-detail-3"></use></svg>