<svg xmlns:xlink="http://www.w3.org/1999/xlink" xmlns="http://www.w3.org/2000/svg" class="icon-drag w-full h-full text-grey-40 hover:text-grey" width="48"  height="48" ><defs><symbol xmlns="http://www.w3.org/2000/svg" viewBox="0 0 48 48" id="drag" fill="#191919"><g fill-rule="evenodd" fill="#191919"><path fill="none" d="M0 0H48V48H0z"></path><path d="M9,35.5 C8.44771525,35.5 8,35.0522847 8,34.5 L8,33.5 C8,32.9477153 8.44771525,32.5 9,32.5 L39,32.5 C39.5522847,32.5 40,32.9477153 40,33.5 L40,34.5 C40,35.0522847 39.5522847,35.5 39,35.5 L27,35.5 C27,37.1568542 25.6568542,38.5 24,38.5 C22.3431458,38.5 21,37.1568542 21,35.5 L9,35.5 Z M39,22.5 C39.5522847,22.5 40,22.9477153 40,23.5 L40,24.5 C40,25.0522847 39.5522847,25.5 39,25.5 L9,25.5 C8.44771525,25.5 8,25.0522847 8,24.5 L8,23.5 C8,22.9477153 8.44771525,22.5 9,22.5 L39,22.5 Z M24,9.5 C25.6568542,9.5 27,10.8431458 27,12.5 L27,12.5 L39,12.5 C39.5522847,12.5 40,12.9477153 40,13.5 L40,14.5 C40,15.0522847 39.5522847,15.5 39,15.5 L9,15.5 C8.44771525,15.5 8,15.0522847 8,14.5 L8,13.5 C8,12.9477153 8.44771525,12.5 9,12.5 L21,12.5 C21,10.8431458 22.3431458,9.5 24,9.5 Z" fill="#191919"></path></g></symbol></defs><use xlink:href="#drag"></use></svg>