<svg xmlns:xlink="http://www.w3.org/1999/xlink" xmlns="http://www.w3.org/2000/svg" class="icon-inbox-list w-full h-full text-sidebar-color" width="24"  height="24" ><defs><symbol xmlns="http://www.w3.org/2000/svg" viewBox="0 0 24 24" id="inbox-list" fill="#191919"><defs><clipPath id="inbox-list_a"><rect width="24" height="24" rx="0"></rect></clipPath></defs><g clip-path="url(#inbox-list_a)" fill="#191919"><path d="M2.500059083104,16.318234003906248L2.500059083104,12.21748690390625Q2.500059083104,11.383441903906249,2.94210213,10.676173703906251L5.8778541,5.97897030390625Q6.3172250000000005,5.27597659390625,7.0423069,4.87410187390625Q7.7673883,4.47222705185415,8.5963912,4.47222705185415L15.403723,4.47222705185415Q16.232725000000002,4.47222705185415,16.957807000000003,4.87410187390625Q17.682892000000002,5.27597737390625,18.122261,5.97897030390625L21.012768,10.60377650390625Q21.500057,11.38344380390625,21.500057,12.302863103906251L21.500057,16.318234003906248Q21.500057,17.646134003906248,20.56109,18.58509900390625Q19.622126,19.52406500390625,18.294227,19.52406500390625L5.7058895,19.52406500390625Q4.3779902,19.52406500390625,3.4390250399999998,18.58509900390625Q2.500059083104,17.646134003906248,2.500059083104,16.318234003906248ZM7.0449753,6.70842070390625L4.0319144,11.52931880390625L9.806575800000001,11.52931880390625Q10.0916219,11.52931880390625,10.293179,11.73087690390625Q10.4947386,11.93243500390625,10.4947386,12.21748070390625L10.4947386,12.43682290390625Q10.4947386,13.15117840390625,10.9998608,13.65630150390625Q11.5049858,14.16142650390625,12.2193413,14.16142650390625Q12.933695,14.16142650390625,13.438818,13.65630150390625Q13.943943,13.15117840390625,13.943943,12.43682290390625L13.943943,12.21748070390625Q13.943943,11.93243410390625,14.145501,11.73087690390625Q14.347058,11.52931880390625,14.632105,11.52931880390625L19.968201,11.52931880390625L16.95514,6.70842120390625Q16.417721,5.84855170390625,15.403721,5.84855170390625L8.5963912,5.84855200390625Q7.5823927,5.84855200390625,7.0449753,6.70842070390625ZM9.1476383,12.90564440390625L3.8763839,12.90564440390625L3.8763839,16.318234003906248Q3.8763839,17.076041003906248,4.4122336,17.61189000390625Q4.9480839,18.14774000390625,5.7058895,18.14774000390625L18.294227,18.14774000390625Q19.052031,18.14774000390625,19.587881,17.61188800390625Q20.123734,17.07604000390625,20.123734,16.318234003906248L20.123734,12.90564440390625L15.291043,12.90564440390625L15.268547,13.02976320390625Q15.104023,13.93751240390625,14.412026,14.62950900390625Q13.503787,15.53774900390625,12.2193413,15.53775100390625Q10.9348946,15.53775100390625,10.0266533,14.62950900390625Q9.3346567,13.93751240390625,9.1701336,13.02976320390625L9.1476383,12.90564440390625Z" fill-rule="evenodd" fill="#191919"></path></g></symbol></defs><use xlink:href="#inbox-list"></use></svg>