<svg xmlns:xlink="http://www.w3.org/1999/xlink" xmlns="http://www.w3.org/2000/svg" class="icon-notification-sidebar w-[28px] h-[28px] text-grey opacity-40 hover:opacity-60" width="28"  height="28" ><defs><symbol xmlns="http://www.w3.org/2000/svg" viewBox="0 0 28 28" id="notification-sidebar" fill="#191919"><path d="M21.583252968566896,16.132731968566894L21.583252968566896,11.156168468566895C21.583252968566896,6.968008768566895,18.188078968566895,3.5728349685668945,13.999918968566895,3.5728349685668945C9.811758968566895,3.5728349685668945,6.4165849685668945,6.968008768566895,6.4165849685668945,11.156168468566895L6.4165849685668945,16.132730968566896C6.4165849685668945,17.048890968566894,5.673890568566895,17.791585968566892,4.757730868566894,17.791585968566892C4.103330908566894,17.791585968566892,3.5728349685668945,18.322082968566896,3.5728349685668945,18.976480968566896C3.5728349685668945,19.630880968566895,4.103330908566894,20.161377968566896,4.757730868566894,20.161377968566896L23.242105968566893,20.161377968566896C23.896505968566895,20.161377968566896,24.427002968566896,19.630880968566895,24.427002968566896,18.976480968566896C24.427002968566896,18.322082968566896,23.896505968566895,17.791585968566892,23.242105968566893,17.791585968566892C22.325947968566894,17.791585968566892,21.583252968566896,17.048891968566895,21.583252968566896,16.132731968566894ZM11.315614668566894,22.524284968566896C11.142423668566895,22.030241968566894,11.580605468566894,21.583210968566895,12.104125968566894,21.583210968566895L15.895791968566895,21.583210968566895C16.419311968566895,21.583210968566895,16.857493968566892,22.030241968566894,16.684301968566892,22.524284968566896C16.295854968566893,23.632362968566895,15.240700968566895,24.426960968566895,13.999958968566894,24.426960968566895C12.759216268566895,24.426960968566895,11.704062468566894,23.632362968566895,11.315614668566894,22.524284968566896Z" fill-rule="evenodd" fill="#191919"></path></symbol></defs><use xlink:href="#notification-sidebar"></use></svg>