<svg xmlns:xlink="http://www.w3.org/1999/xlink" xmlns="http://www.w3.org/2000/svg" class="icon-today-icon-fr w-full h-full text-sidebar-color" width="24"  height="24" ><defs><symbol xmlns="http://www.w3.org/2000/svg" viewBox="0 0 24 24" id="today-icon-fr" fill="#191919"><path d="M3,8L3,16C3,18.761423999999998,5.2385762,21,8,21L16,21C18.761423999999998,21,21,18.761423999999998,21,16L21,8C21,5.2385762,18.761423999999998,3,16,3L8,3C5.2385762,3,3,5.2385762,3,8ZM5.5251262,18.474871999999998Q4.5,17.449745,4.5,16L4.5,8L19.5,8L19.5,16Q19.5,17.449742999999998,18.474871999999998,18.474871999999998Q17.449742999999998,19.5,16,19.5L8,19.5Q6.550254600000001,19.5,5.5251262,18.474871999999998ZM19.174026,6.5Q18.921929,5.9721839,18.474871999999998,5.5251262Q17.449745,4.5,16,4.5L8,4.5Q6.5502524,4.5,5.5251262,5.5251262Q5.0780674999999995,5.9721849,4.8259716,6.5L19.174026,6.5ZM9.8400879,16.011719C9.8400879,16.512695,9.5852051,16.793945,9.128173799999999,16.793945C8.657959,16.793945,8.385498,16.503906,8.385498,16.011719L8.385498,11.5820312C8.385498,11.0458984,8.6799316,10.7514648,9.2248535,10.7514648L11.9099121,10.7514648C12.2438965,10.7514648,12.4855957,10.9975586,12.4855957,11.340332C12.4855957,11.6787109,12.2438965,11.9160156,11.9099121,11.9160156L9.8400879,11.9160156L9.8400879,13.357422L11.685791,13.357422C12.032959,13.357422,12.2614746,13.585938,12.2614746,13.924316C12.2614746,14.262695,12.0285645,14.491211,11.685791,14.491211L9.8400879,14.491211L9.8400879,16.011719ZM14.529053,14.21875L14.529053,16.020508C14.529053,16.512695,14.265381,16.793945,13.80835,16.793945C13.346924,16.793945,13.118408,16.512695,13.118408,16.020508L13.118408,12.7905273C13.118408,12.2939453,13.360107,12.0170898,13.812744,12.0170898C14.221436,12.0170898,14.454346,12.2456055,14.485107,12.671875L14.485107,12.737793L14.551025,12.737793C14.709229,12.2543945,15.043213,11.9863281,15.49585,11.9863281C15.689209,11.9863281,15.843018,12.0390625,15.952881,12.1445312C16.067138999999997,12.25,16.128662,12.4038086,16.128662,12.6015625C16.128662,12.7949219,16.071533000000002,12.9355469,15.957275,13.032227C15.851807,13.120117,15.689209,13.168457,15.478271,13.177246C14.841064,13.199219,14.529053,13.546387,14.529053,14.21875Z" fill-rule="evenodd" fill="#191919"></path></symbol></defs><use xlink:href="#today-icon-fr"></use></svg>