<svg xmlns:xlink="http://www.w3.org/1999/xlink" xmlns="http://www.w3.org/2000/svg" class="icon-hover-checkbox i-4 i-sml text-grey-40 hidden" style="width: 17px; height: 17px;" width="24"  height="24" ><defs><symbol xmlns="http://www.w3.org/2000/svg" viewBox="0 0 24 24" id="hover-checkbox" fill="#191919"><path d="M3.25,16.666666Q3.25,18.358036,4.4459807,19.554018Q5.6419635,20.75,7.3333335,20.75L16.666666,20.75Q18.358034,20.75,19.554018,19.554018Q20.75,18.358034,20.75,16.666666L20.75,7.3333335Q20.75,5.6419635,19.554018,4.4459807Q18.358036,3.25,16.666666,3.25L7.3333335,3.25Q5.6419606,3.25,4.4459807,4.4459807Q3.25,5.6419606,3.25,7.3333335L3.25,16.666666Z" fill-rule="evenodd" fill-opacity="0.1" fill="#191919"></path><path d="M1.5,16.666666L1.5,7.3333335C1.5,4.1116722,4.1116722,1.5,7.3333335,1.5L16.666666,1.5C19.888327,1.5,22.5,4.1116722,22.5,7.3333335L22.5,16.666666C22.5,19.888327,19.888327,22.5,16.666666,22.5L7.3333335,22.5C4.1116722,22.5,1.5,19.888327,1.5,16.666666ZM3.2499998999999997,16.666666Q3.2499998999999997,18.358036,4.4459805,19.554018Q5.6419635,20.75,7.3333335,20.75L16.666666,20.75Q18.358034,20.75,19.554018,19.554018Q20.75,18.358034,20.75,16.666666L20.75,7.3333335Q20.75,5.6419635,19.554018,4.4459805Q18.358036,3.2499998999999997,16.666666,3.2499998999999997L7.3333335,3.2499998999999997Q5.6419606,3.2499998999999997,4.4459805,4.4459805Q3.2499998999999997,5.6419606,3.2499998999999997,7.3333335L3.2499998999999997,16.666666Z" fill-rule="evenodd" fill="#191919"></path></symbol></defs><use xlink:href="#hover-checkbox"></use></svg>