<svg xmlns:xlink="http://www.w3.org/1999/xlink" xmlns="http://www.w3.org/2000/svg" class="icon-question-sidebar w-[28px] h-[28px] text-grey opacity-40 hover:opacity-60" width="28"  height="28" ><defs><symbol xmlns="http://www.w3.org/2000/svg" viewBox="0 0 28 28" id="question-sidebar" fill="#191919"><path d="M13.999918968566895,24.427247109191896Q14.255888968566895,24.427247109191896,14.511551968566895,24.414687109191895Q14.767212968566895,24.402127109191895,15.021950968566895,24.377038109191894Q15.276688968566894,24.351949109191896,15.529887968566895,24.314389109191893Q15.783088968566895,24.276830109191895,16.034140968566895,24.226893109191895Q16.285192968566896,24.176957109191896,16.533491968566892,24.114760109191895Q16.781791968566893,24.052565109191896,17.026740968566894,23.978261109191894Q17.271688968566895,23.903956109191896,17.512695968566895,23.817721109191893Q17.753702968566895,23.731488109191893,17.990189968566895,23.633531109191896Q18.226675968566894,23.535575109191896,18.458069968566896,23.426133109191895Q18.689465968566893,23.316693109191895,18.915211968566894,23.196031109191896Q19.140955968566892,23.075366109191894,19.360509968566895,22.943770109191895Q19.580063968566893,22.812173109191896,19.792894968566895,22.669965109191896Q20.005726968566893,22.527755109191894,20.211323968566894,22.375274109191896Q20.416920968566895,22.222793109191894,20.614788968566895,22.060407109191896Q20.812656968566895,21.898021109191895,21.002317968566896,21.726121109191894Q21.191978968566893,21.554223109191895,21.372978968566894,21.373223109191894Q21.553978968566895,21.192223109191893,21.725876968566894,21.002562109191896Q21.897776968566895,20.812901109191895,22.060162968566896,20.615033109191895Q22.222548968566894,20.417165109191895,22.375029968566896,20.211568109191894Q22.527510968566894,20.005971109191893,22.669720968566896,19.793139109191895Q22.811928968566896,19.580308109191893,22.943523968566893,19.360754109191895Q23.075121968566894,19.141200109191892,23.195786968566896,18.915454109191895Q23.316448968566895,18.689708109191894,23.425888968566895,18.458313109191895Q23.535330968566896,18.226918109191892,23.633286968566896,17.990433109191894Q23.731243968566893,17.753947109191895,23.817476968566893,17.512939109191894Q23.903711968566896,17.271932109191894,23.978016968566894,17.026984109191893Q24.052320968566896,16.782035109191895,24.114515968566895,16.533736109191892Q24.176712968566896,16.285437109191896,24.226648968566895,16.034385109191895Q24.276585968566895,15.783333109191895,24.314144968566893,15.530133109191894Q24.351704968566896,15.276933109191894,24.376793968566894,15.022195109191895Q24.401882968566895,14.767457109191895,24.414442968566895,14.511795109191894Q24.427002968566896,14.256133109191895,24.427002968566896,14.000163109191895Q24.427002968566896,13.744193109191894,24.414442968566895,13.488530109191894Q24.401882968566895,13.232868209191894,24.376793968566894,12.978130309191895Q24.351704968566896,12.723391509191895,24.314144968566893,12.470191909191895Q24.276585968566895,12.216991409191895,24.226648968566895,11.965939509191895Q24.176712968566896,11.714886709191894,24.114515968566895,11.466588009191895Q24.052320968566896,11.218288409191896,23.978016968566894,10.973340509191894Q23.903711968566896,10.728391609191895,23.817476968566893,10.487384309191896Q23.731243968566893,10.246377009191894,23.633286968566896,10.009890509191894Q23.535330968566896,9.773404609191894,23.425888968566895,9.542009809191894Q23.316448968566895,9.310615509191894,23.195786968566896,9.084869409191896Q23.075121968566894,8.859123209191894,22.943525968566895,8.639570209191895Q22.811928968566896,8.420016309191894,22.669720968566896,8.207184809191894Q22.527510968566894,7.994353309191895,22.375029968566896,7.788755909191894Q22.222548968566894,7.583158509191895,22.060162968566896,7.385290909191895Q21.897776968566895,7.187422709191894,21.725876968566894,6.997761209191895Q21.553978968566895,6.808099709191895,21.372978968566894,6.627101209191895Q21.191978968566893,6.446102609191895,21.002317968566896,6.274203309191895Q20.812656968566895,6.1023040091918945,20.614788968566895,5.939918009191894Q20.416920968566895,5.7775321091918945,20.211323968566894,5.625050509191894Q20.005726968566893,5.472569209191894,19.792894968566895,5.330359609191895Q19.580063968566893,5.188149909191894,19.360509968566895,5.056554909191894Q19.140955968566892,4.924959709191895,18.915209968566895,4.804296009191894Q18.689463968566894,4.683632209191894,18.458068968566895,4.574190709191894Q18.226673968566892,4.464749219191894,17.990188968566894,4.366793509191894Q17.753702968566895,4.268837809191894,17.512694968566894,4.182603959191894Q17.271687968566894,4.096370099191894,17.026739968566893,4.0220657891918945Q16.781790968566895,3.9477614791918945,16.533491968566892,3.8855656991918943Q16.285192968566896,3.8233699491918944,16.034140968566895,3.7734325691918946Q15.783088968566895,3.7234951991918948,15.529888968566894,3.6859365291918946Q15.276688968566894,3.6483778581918944,15.021950968566895,3.6232883631918944Q14.767212968566895,3.5981988641918945,14.511550968566894,3.5856389871918943Q14.255888968566895,3.5730791091918945,13.999918968566895,3.5730791091918945Q13.743948968566894,3.5730791091918945,13.488285968566894,3.5856389871918943Q13.232624068566894,3.5981988641918945,12.977886168566895,3.6232883631918944Q12.723147368566895,3.6483778581918944,12.469947768566895,3.6859365291918946Q12.216747268566895,3.7234951991918948,11.965695368566895,3.7734325691918946Q11.714642568566894,3.8233699491918944,11.466343868566895,3.8855657291918946Q11.218044268566896,3.9477614791918945,10.973096368566894,4.022065819191894Q10.728147468566895,4.096370159191895,10.487140168566896,4.182603959191894Q10.246132868566894,4.268837809191894,10.009646368566894,4.366793509191894Q9.773160468566894,4.464749219191894,9.541765668566894,4.574190709191894Q9.310371368566894,4.683632209191894,9.084625268566896,4.804296009191894Q8.858879068566894,4.924959709191895,8.639326068566895,5.056554809191894Q8.419772168566894,5.188149909191894,8.206940668566894,5.330359409191894Q7.994109168566895,5.472569009191894,7.788511768566894,5.625050509191894Q7.582914368566895,5.7775321091918945,7.385046768566895,5.939918009191894Q7.187178568566894,6.1023040091918945,6.997517068566895,6.274203309191895Q6.807855568566895,6.446102609191895,6.626857068566895,6.627101209191895Q6.445858468566895,6.808099709191895,6.273959168566895,6.9977615091918945Q6.1020598685668945,7.187423009191894,5.939673868566894,7.385291109191895Q5.7772879685668945,7.583158509191895,5.624806368566894,7.788755909191894Q5.472325068566894,7.994353309191895,5.330115468566895,8.207185309191894Q5.187905768566894,8.420017209191894,5.056310768566894,8.639570209191895Q4.924715568566895,8.859124209191894,4.804051868566894,9.084869909191895Q4.683388068566894,9.310615509191894,4.573946568566894,9.542010309191895Q4.464505078566894,9.773404609191894,4.366549368566894,10.009890509191894Q4.268593668566894,10.246377009191894,4.182359818566894,10.487384309191896Q4.096125958566894,10.728391609191895,4.0218216485668945,10.973340509191894Q3.9475173385668945,11.218288409191896,3.8853215585668943,11.466588009191895Q3.8231258085668944,11.714886709191894,3.7731884285668946,11.965939509191895Q3.7232510585668948,12.216991409191895,3.6856923885668946,12.470191009191895Q3.6481337175668944,12.723391509191895,3.6230442225668944,12.978130309191895Q3.5979547235668945,13.232868209191894,3.5853948465668943,13.488530109191894Q3.5728349685668945,13.744193109191894,3.5728349685668945,14.000163109191895Q3.5728349685668945,14.256133109191895,3.5853948465668943,14.511796109191895Q3.5979547235668945,14.767457109191895,3.6230442225668944,15.022195109191895Q3.6481337175668944,15.276933109191894,3.6856923885668946,15.530132109191895Q3.7232510585668948,15.783333109191895,3.7731884285668946,16.034385109191895Q3.8231258085668944,16.285437109191896,3.8853215885668946,16.533736109191892Q3.9475173385668945,16.782036109191893,4.021821678566894,17.026985109191894Q4.096126018566895,17.271933109191895,4.182359818566894,17.512940109191895Q4.268593668566894,17.753947109191895,4.366549368566894,17.990434109191895Q4.464505078566894,18.226920109191894,4.573946568566894,18.458314109191896Q4.683388068566894,18.689710109191893,4.804051868566894,18.915456109191894Q4.924715568566895,19.141200109191892,5.056310668566894,19.360754109191895Q5.187905768566894,19.580308109191893,5.330115268566894,19.793139109191895Q5.472324868566894,20.005971109191893,5.624806368566894,20.211568109191894Q5.7772879685668945,20.417165109191895,5.939673868566894,20.615033109191895Q6.1020598685668945,20.812901109191895,6.273959168566895,21.002562109191896Q6.445858468566895,21.192223109191893,6.626857068566895,21.373223109191894Q6.807855568566895,21.554223109191895,6.9975173685668945,21.726121109191894Q7.187178868566894,21.898021109191895,7.385046968566895,22.060407109191896Q7.582914368566895,22.222793109191894,7.788511768566894,22.375274109191896Q7.994109168566895,22.527755109191894,8.206941168566894,22.669965109191896Q8.419773068566894,22.812173109191896,8.639326068566895,22.943768109191893Q8.858880068566894,23.075366109191894,9.084625768566895,23.196031109191896Q9.310371368566894,23.316693109191895,9.541766168566895,23.426133109191895Q9.773160468566894,23.535575109191896,10.009646368566894,23.633531109191896Q10.246132868566894,23.731488109191893,10.487140168566896,23.817721109191893Q10.728147468566895,23.903956109191896,10.973096368566894,23.978261109191894Q11.218044268566896,24.052565109191896,11.466343868566895,24.114760109191895Q11.714642568566894,24.176957109191896,11.965695368566895,24.226893109191895Q12.216747268566895,24.276830109191895,12.469946868566895,24.314389109191893Q12.723147368566895,24.351949109191896,12.977886168566895,24.377038109191894Q13.232624068566894,24.402127109191895,13.488285968566894,24.414687109191895Q13.743948968566894,24.427247109191896,13.999918968566895,24.427247109191896ZM10.660930668566895,11.465620509191893L10.718763368566893,10.994609809191894Q10.886050268566894,9.632168809191896,11.969948768566894,8.785634509191894Q13.053633668566894,7.939266209191895,14.415997968566895,8.106543509191894Q15.767775968566895,8.272521009191895,16.613836968566893,9.343160109191896Q17.459140968566892,10.412839909191895,17.309401968566895,11.764600709191894L17.307097968566893,11.783900309191894L17.304720968566894,11.803263709191894Q17.197559968566893,12.619380909191895,16.794376968566894,13.333718309191894Q16.381314968566894,14.063298109191894,15.722490968566895,14.578028109191894Q15.328240968566895,14.886459109191895,15.215288968566895,15.092736109191895Q15.102902968566895,15.297976109191895,15.038404968566894,15.823249109191895C14.974604968566895,16.342866109191895,14.501650968566894,16.712379109191893,13.982032968566894,16.648578109191895C13.462414768566894,16.584778109191895,13.092902168566894,16.111821109191894,13.156703968566895,15.592200109191895Q13.265494368566895,14.706199109191894,13.552433968566895,14.182187109191895Q13.852780968566895,13.633689109191895,14.555300968566895,13.084089309191894Q14.917191968566895,12.801348709191895,15.143368968566895,12.401864009191895Q15.365768968566895,12.007824909191894,15.423017968566894,11.572219809191894L15.425396968566895,11.552856409191895L15.425093968566895,11.555869609191895Q15.489143968566895,10.977654409191896,15.126385968566895,10.518605209191895Q14.763399968566894,10.059269409191895,14.184953968566894,9.988245509191895Q13.601827968566894,9.916646909191893,13.136883768566895,10.279772309191895Q12.672027568566895,10.642828909191895,12.600465768566895,11.225653609191895L12.542633068566895,11.696664809191894C12.478831268566895,12.216282809191895,12.005877468566895,12.585795409191894,11.486259468566894,12.521993609191895C10.966641868566896,12.458191909191894,10.597129368566893,11.985238109191895,10.660930668566895,11.465620509191893ZM15.114378968566895,18.738687109191893Q15.114379968566894,18.796899109191894,15.108673968566894,18.854828109191892Q15.102967968566894,18.912758109191895,15.091610968566895,18.969849109191895Q15.080254968566894,19.026940109191894,15.063356968566895,19.082644109191897Q15.046459968566895,19.138348109191895,15.024182968566894,19.192126109191896Q15.001907968566895,19.245906109191893,14.974466968566894,19.297243109191896Q14.947027968566895,19.348580109191893,14.914686968566894,19.396979109191896Q14.882347968566895,19.445380109191895,14.845419968566894,19.490377109191897Q14.808491968566894,19.535375109191897,14.767330968566894,19.576535109191894Q14.726170968566894,19.617696109191893,14.681173968566895,19.654624109191893Q14.636176968566895,19.691552109191896,14.587775968566895,19.723891109191893Q14.539375968566894,19.756232109191895,14.488039968566895,19.783671109191893Q14.436702968566895,19.811112109191896,14.382921968566894,19.833386109191895Q14.329144968566894,19.855662109191893,14.273439968566894,19.872559109191894Q14.217735968566895,19.889459109191893,14.160644968566894,19.900815109191896Q14.103553968566894,19.912171109191895,14.045623968566895,19.917878109191893Q13.987694968566894,19.923583109191895,13.929482968566894,19.923583109191895Q13.871273968566895,19.923583109191895,13.813343968566894,19.917878109191893Q13.755413968566895,19.912171109191895,13.698320968566895,19.900815109191896Q13.641230968566894,19.889459109191893,13.585525968566895,19.872561109191896Q13.529822368566894,19.855662109191893,13.476042768566895,19.833386109191895Q13.422265068566894,19.811112109191896,13.370926868566894,19.783673109191895Q13.319590568566895,19.756232109191895,13.271189668566894,19.723891109191893Q13.222790668566894,19.691552109191896,13.177794468566894,19.654624109191893Q13.132797268566895,19.617696109191893,13.091635668566894,19.576535109191894Q13.050475168566894,19.535375109191897,13.013546968566894,19.490377109191897Q12.976618768566894,19.445380109191895,12.944277768566895,19.396979109191896Q12.911938668566895,19.348580109191893,12.884498568566894,19.297244109191894Q12.857058568566895,19.245906109191893,12.834782568566894,19.192126109191896Q12.812506668566895,19.138348109191895,12.795609468566894,19.082644109191897Q12.778712268566894,19.026940109191894,12.767354968566895,18.969848109191894Q12.755999568566894,18.912757109191894,12.750293768566895,18.854828109191892Q12.744587868566894,18.796899109191894,12.744587868566894,18.738687109191893Q12.744587868566894,18.680478109191895,12.750294668566895,18.622548109191897Q12.755999568566894,18.564618109191894,12.767355968566894,18.507525109191896Q12.778712268566894,18.450435109191893,12.795609468566894,18.394730109191894Q12.812506668566895,18.339026109191895,12.834782568566894,18.285247109191893Q12.857058568566895,18.231468109191894,12.884499568566895,18.180131109191894Q12.911938668566895,18.128794109191894,12.944278668566895,18.080393109191895Q12.976618768566894,18.031994109191892,13.013546968566894,17.986997109191897Q13.050475168566894,17.942000109191895,13.091635668566894,17.900840109191897Q13.132797268566895,17.859679109191894,13.177794468566894,17.822751109191895Q13.222790668566894,17.785823109191895,13.271190668566895,17.753482109191893Q13.319590568566895,17.721143109191893,13.370927768566894,17.693703109191894Q13.422265068566894,17.666263109191895,13.476042768566895,17.643986109191893Q13.529822368566894,17.621711109191892,13.585525968566895,17.604813109191895Q13.641230968566894,17.587916109191895,13.698320968566895,17.576559109191894Q13.755413968566895,17.565204109191896,13.813343968566894,17.559499109191897Q13.871273968566895,17.553793109191894,13.929482968566894,17.553792109191896Q13.987694968566894,17.553793109191894,14.045624968566894,17.559499109191897Q14.103553968566894,17.565204109191896,14.160644968566894,17.576559109191894Q14.217736968566895,17.587916109191895,14.273440968566895,17.604813109191895Q14.329144968566894,17.621711109191892,14.382922968566895,17.643986109191893Q14.436703968566894,17.666263109191895,14.488040968566894,17.693703109191894Q14.539376968566895,17.721143109191893,14.587775968566895,17.753482109191893Q14.636176968566895,17.785823109191895,14.681173968566895,17.822751109191895Q14.726170968566894,17.859679109191894,14.767330968566894,17.900840109191897Q14.808491968566894,17.942000109191895,14.845419968566894,17.986997109191897Q14.882347968566895,18.031994109191892,14.914686968566894,18.080393109191895Q14.947027968566895,18.128793109191896,14.974467968566895,18.180131109191894Q15.001907968566895,18.231467109191897,15.024183968566895,18.285246109191895Q15.046460968566894,18.339026109191895,15.063357968566894,18.394730109191894Q15.080255968566895,18.450434109191896,15.091610968566895,18.507525109191896Q15.102967968566894,18.564618109191894,15.108673968566894,18.622548109191897Q15.114379968566894,18.680478109191895,15.114378968566895,18.738687109191893Z" fill-rule="evenodd" fill="#191919"></path></symbol></defs><use xlink:href="#question-sidebar"></use></svg>