<svg xmlns:xlink="http://www.w3.org/1999/xlink" xmlns="http://www.w3.org/2000/svg" class="icon-delete w-full h-full text-sidebar-color" width="24"  height="24" ><defs><symbol xmlns="http://www.w3.org/2000/svg" viewBox="0 0 24 24" id="delete" fill="#191919"><defs><clipPath id="delete_a"><rect width="24" height="24" rx="0"></rect></clipPath></defs><g clip-path="url(#delete_a)" fill="#191919"><path d="M3.0883164382208252,5.78997802734375L7.908395998220826,5.78997802734375L7.908395998220826,5.29831122734375Q7.908395998220826,4.50210162734375,8.453651198220825,3.92248373734375Q8.996111198220826,3.34583666934375,9.783354998220826,3.29432436824375L9.917940398220825,3.28997802734375L14.083396598220824,3.28997802734375Q14.879595598220826,3.28997802734375,15.459197598220825,3.83525633734375Q16.035817598220824,4.37772832734375,16.087332598220826,5.16497842734375L16.091729598220823,5.299563927343749L16.091729598220823,5.78997802734375L20.921765598220826,5.78997802734375C21.340581598220826,5.78997802734375,21.680096598220825,6.12949442734375,21.680096598220825,6.54830932734375C21.680096598220825,6.96712422734375,21.340581598220826,7.30664062734375,20.921765598220826,7.30664062734375L19.394112598220826,7.30664062734375L18.748999598220824,16.98104502734375C18.608887598220825,19.08221002734375,16.863692598220823,20.71490502734375,14.757861598220826,20.71490502734375L9.239724898220825,20.71490502734375C7.134898398220825,20.71490502734375,5.390174898220826,19.08371502734375,5.248762098220825,16.98364402734375L4.597140298220825,7.30664062734375L3.0883159082208254,7.30664062734375C2.6695072082208253,7.30664062734375,2.3299930815718253,6.96713302734375,2.329985082425825,6.54832382734375C2.3299770830663253,6.129503227343751,2.669495938220825,5.78997802734375,3.0883164382208252,5.78997802734375ZM9.916729698220825,4.80660412734375L14.086753598220826,4.80660412734375L14.171662598220825,4.81421832734375L14.251832598220826,4.83625652734375L14.254933598220825,4.83741142734375Q14.575062598220825,4.95661842734375,14.575062598220825,5.29827072734375L14.575062598220825,5.78993752734375L9.425063398220825,5.78993752734375L9.425063398220825,5.29491712734375L9.432378498220825,5.21328552734375L9.432983198220825,5.20995602734375Q9.464472098220824,5.03646742734375,9.599930998220826,4.9222491273437505Q9.737081798220824,4.80660412734375,9.916729698220825,4.80660412734375ZM17.890784598220826,7.30664062734375L6.100537098220825,7.30664062734375L6.745372998220825,16.88286802734375Q6.811660098220825,17.86727502734375,7.532373698220825,18.54109002734375Q8.253086298220826,19.21490502734375,9.239724898220825,19.21490502734375L14.757861598220826,19.21490502734375Q15.744971598220825,19.21490502734375,16.465809598220826,18.54053402734375Q17.186645598220824,17.86616402734375,17.252322598220825,16.881245027343752L17.890784598220826,7.30664062734375ZM9.250014498220825,9.75000002734375L9.250014498220825,16.250000027343752Q9.250014498220825,16.32386802734375,9.264424998220825,16.39631702734375Q9.278835998220824,16.46876502734375,9.307104398220826,16.53701002734375Q9.335372198220824,16.60525602734375,9.376411698220824,16.666676027343748Q9.417450698220826,16.72809602734375,9.469683898220826,16.78032902734375Q9.521916598220825,16.83256102734375,9.583336098220826,16.87360002734375Q9.644755598220826,16.91463902734375,9.713001498220825,16.94290702734375Q9.781247398220824,16.971176027343752,9.853696598220825,16.985588027343752Q9.926145798220826,16.999999027343748,10.000014498220825,17.000000027343752Q10.073883298220824,16.999999027343748,10.146331998220825,16.985587027343747Q10.218780798220825,16.971176027343752,10.287026598220825,16.94290702734375Q10.355271598220826,16.91463902734375,10.416691998220825,16.87360002734375Q10.478110598220825,16.83256102734375,10.530344198220826,16.78032902734375Q10.582576998220825,16.72809602734375,10.623616498220825,16.666676027343748Q10.664654998220826,16.60525702734375,10.692923798220825,16.537011027343752Q10.721192598220826,16.46876502734375,10.735603598220825,16.39631702734375Q10.750014498220825,16.32386802734375,10.750014498220825,16.250000027343752L10.750014498220825,9.75000002734375Q10.750014498220825,9.676131227343749,10.735602598220826,9.603682027343751Q10.721192598220826,9.53123282734375,10.692923798220825,9.46298692734375Q10.664654998220826,9.39474102734375,10.623616498220825,9.333322027343751Q10.582576998220825,9.27190252734375,10.530344198220826,9.21966982734375Q10.478110598220825,9.16743662734375,10.416691998220825,9.12639712734375Q10.355271598220826,9.08535862734375,10.287026598220825,9.05709032734375Q10.218780798220825,9.028821927343749,10.146331998220825,9.01441092734375Q10.073883298220824,9.00000002734375,10.000014498220825,9.00000002734375Q9.926145798220826,9.00000002734375,9.853696598220825,9.01441092734375Q9.781247398220824,9.028821927343749,9.713001498220825,9.05708982734375Q9.644755598220826,9.08535762734375,9.583336098220826,9.12639712734375Q9.521916598220825,9.16743662734375,9.469683898220826,9.21966932734375Q9.417450698220826,9.27190212734375,9.376411198220826,9.333321527343749Q9.335372198220824,9.39474102734375,9.307104398220826,9.46298692734375Q9.278835998220824,9.53123282734375,9.264425498220826,9.603682027343751Q9.250014498220825,9.676131227343749,9.250014498220825,9.75000002734375ZM13.250014598220826,9.75000002734375L13.250014598220826,16.250000027343752Q13.250014598220826,16.32386802734375,13.264425598220825,16.39631702734375Q13.278836598220826,16.46876502734375,13.307104598220825,16.53701002734375Q13.335372598220825,16.60525602734375,13.376410598220826,16.666676027343748Q13.417451598220826,16.72809602734375,13.469683598220826,16.78032902734375Q13.521916598220825,16.83256102734375,13.583335598220826,16.87360002734375Q13.644754598220825,16.91463902734375,13.713000598220825,16.94290702734375Q13.781246598220825,16.971176027343752,13.853696598220825,16.985588027343752Q13.926145598220826,16.999999027343748,14.000014598220826,17.000000027343752Q14.073882598220825,16.999999027343748,14.146330598220825,16.985587027343747Q14.218779598220825,16.971176027343752,14.287025598220826,16.94290702734375Q14.355271598220826,16.91463902734375,14.416690598220825,16.87360002734375Q14.478110598220825,16.83256102734375,14.530343598220826,16.78032902734375Q14.582575598220826,16.72809602734375,14.623615598220825,16.666676027343748Q14.664654598220825,16.60525702734375,14.692922598220825,16.537011027343752Q14.721190598220826,16.46876502734375,14.735602598220826,16.39631702734375Q14.750014598220826,16.32386802734375,14.750014598220826,16.250000027343752L14.750014598220826,9.75000002734375Q14.750014598220826,9.676131227343749,14.735602598220826,9.603682027343751Q14.721190598220826,9.53123282734375,14.692922598220825,9.46298692734375Q14.664654598220825,9.39474102734375,14.623616598220826,9.333322027343751Q14.582576598220825,9.27190252734375,14.530344598220825,9.21966982734375Q14.478110598220825,9.16743662734375,14.416690598220825,9.12639712734375Q14.355271598220826,9.08535862734375,14.287026598220825,9.05709032734375Q14.218780598220825,9.028821927343749,14.146330598220825,9.01441092734375Q14.073882598220825,9.00000002734375,14.000014598220826,9.00000002734375Q13.926145598220826,9.00000002734375,13.853696598220825,9.01441092734375Q13.781246598220825,9.028821927343749,13.713000598220825,9.05708982734375Q13.644754598220825,9.08535762734375,13.583335598220826,9.12639712734375Q13.521916598220825,9.16743662734375,13.469683598220826,9.21966932734375Q13.417451598220826,9.27190212734375,13.376411598220825,9.333321527343749Q13.335372598220825,9.39474102734375,13.307104598220825,9.46298692734375Q13.278836598220826,9.53123282734375,13.264425598220825,9.603682027343751Q13.250014598220826,9.676131227343749,13.250014598220826,9.75000002734375Z" fill-rule="evenodd" fill="#191919"></path></g></symbol></defs><use xlink:href="#delete"></use></svg>