<svg xmlns:xlink="http://www.w3.org/1999/xlink" xmlns="http://www.w3.org/2000/svg" class="icon-sort i-o-36 i-h-o-54 w-[20px] h-[20px] cursor-pointer relative z-[1]" width="24"  height="24" ><defs><symbol xmlns="http://www.w3.org/2000/svg" viewBox="0 0 24 24" id="sort" fill="#191919"><defs><clipPath id="sort_a"><rect width="24" height="24" rx="0"></rect></clipPath></defs><g clip-path="url(#sort_a)" fill="#191919"><path d="M9.6694336,4.24377441Q9.6694336,3.93626654,9.4482422,3.71850586Q9.226268300000001,3.499973356724,8.9121094,3.5Q8.891884600000001,3.5,8.8710938,3.5010986328Q8.578495,3.515079916,8.371582,3.71875L5.25244141,6.789550800000001Q5.031281102893,7.0072823,5.03125,7.3148193Q5.03125,7.6223278,5.25244141,7.8400879Q5.47441575,8.058620000000001,5.78857422,8.0585938Q6.1028907,8.0585938,6.3251953,7.8400879L8.1547852,6.0389403999999995L8.1547852,19.756226Q8.1547852,20.063734,8.3754883,20.281494Q8.597461899999999,20.500027,8.9121094,20.5Q9.2264266,20.5,9.4482422,20.281494Q9.6694021,20.063763,9.6694336,19.756226L9.6694336,4.24377441ZM14.3305664,19.756226Q14.3305664,20.063734,14.5512695,20.281494Q14.7732439,20.500027,15.087891,20.5Q15.108153,20.5,15.128418,20.499023Q15.421021,20.485039,15.62793,20.281372L18.74707,17.210449Q18.968229,16.99272,18.968262,16.685181Q18.968262,16.377671,18.74707,16.160034Q18.525093,15.941502,18.210938,15.941406Q17.896619,15.941406,17.674805,16.160034L15.845215,17.96106L15.845215,4.24377441Q15.845215,3.93626595,15.624023,3.71850586Q15.402049,3.499973416328,15.087891,3.5Q14.7735739,3.499999970197678,14.5512695,3.71850586Q14.3301096,3.93623686,14.3305664,4.24377441L14.3305664,19.756226Z" fill-rule="evenodd" fill="#191919"></path></g></symbol></defs><use xlink:href="#sort"></use></svg>