<svg xmlns:xlink="http://www.w3.org/1999/xlink" xmlns="http://www.w3.org/2000/svg" class="icon-sidebar-collapse w-[20px] h-[20px] toggleSideBarIcon relative z-[1]" width="24"  height="24" ><defs><symbol xmlns="http://www.w3.org/2000/svg" viewBox="0 0 24 24" id="sidebar-collapse" fill="#191919"><path d="M4.208302497705688,4.2883836328981095Q3.8617437477056886,4.2883836328981095,3.6166897977056887,4.533437606162109Q3.3716358244416886,4.778491556162109,3.3716358244416886,5.125050306162109Q3.3716358244416886,5.471609016162109,3.6166897977056887,5.716662916162109Q3.8617439277056884,5.961717016162109,4.208302497705688,5.961717016162109L19.791636007705687,5.961717016162109Q20.138193007705688,5.961717016162109,20.38324800770569,5.716662916162109Q20.628304007705687,5.471607516162109,20.628304007705687,5.125050306162109Q20.628304007705687,4.77849292616211,20.38324800770569,4.533437606162109Q20.138193007705688,4.2883836328981095,19.791636007705687,4.2883836328981095L4.208302497705688,4.2883836328981095ZM16.78952000770569,12.58345221616211Q16.79956100770569,12.59349251616211,16.80996500770569,12.60321331616211L19.05896000770569,14.85214281616211Q19.304013007705688,15.097196816162109,19.650572007705687,15.097196816162109Q19.997132007705687,15.097196816162109,20.24218400770569,14.85214281616211Q20.487238007705688,14.607089816162109,20.487238007705688,14.26053051616211Q20.487238007705688,13.913970916162109,20.24218400770569,13.66891761616211L18.564732007705686,11.991464616162109L20.241377007705687,10.31481931616211Q20.486429007705688,10.069764616162109,20.486429007705688,9.72320651616211Q20.486429007705688,9.37664791616211,20.241377007705687,9.13159421616211Q19.996323007705687,8.88653991616211,19.64976500770569,8.88653991616211Q19.30320800770569,8.88653991616211,19.05815300770569,9.13159421616211L16.78952000770569,11.40022711616211Q16.544466007705687,11.64528081616211,16.544466007705687,11.99183991616211Q16.544466007705687,12.33839801616211,16.78952000770569,12.58345221616211ZM4.208302497705688,11.163322916162109Q3.8617435077056883,11.163322916162109,3.6166897977056887,11.40837621616211Q3.3716358244416886,11.653430016162108,3.3716358244416886,11.99998951616211Q3.3716358244416886,12.34654901616211,3.6166897977056887,12.59160231616211Q3.8617435077056883,12.83665561616211,4.208302497705688,12.83665561616211L13.374970007705688,12.83665561616211Q13.721527007705689,12.83665561616211,13.96658200770569,12.59160231616211Q14.211636007705689,12.34654811616211,14.211636007705689,11.99998951616211Q14.211636007705689,11.653430916162108,13.96658200770569,11.40837621616211Q13.721527007705689,11.163322916162109,13.374970007705688,11.163322916162109L4.208302497705688,11.163322916162109ZM4.208302497705688,18.038322816162108Q3.8617447577056883,18.038322816162108,3.6166898577056883,18.28337781616211Q3.3716358244416886,18.528430816162107,3.3716358244416886,18.87499081616211Q3.3716358244416886,19.22154581616211,3.6166897977056887,19.46660081616211Q3.8617455377056884,19.711655816162107,4.208302497705688,19.711655816162107L19.791636007705687,19.711655816162107Q20.13819100770569,19.711655816162107,20.38324800770569,19.46660081616211Q20.628304007705687,19.22154381616211,20.628304007705687,18.87499081616211Q20.628304007705687,18.52843281616211,20.38324800770569,18.28337781616211Q20.13819100770569,18.038322816162108,19.791636007705687,18.038322816162108L4.208302497705688,18.038322816162108Z" fill-rule="evenodd" fill="#191919"></path></symbol></defs><use xlink:href="#sidebar-collapse"></use></svg>