<svg xmlns:xlink="http://www.w3.org/1999/xlink" xmlns="http://www.w3.org/2000/svg" class="icon-list-sidebar w-[28px] h-[28px] text-grey whiteSvg_2wUcK opacity-40 hover:opacity-60" width="28"  height="28" ><defs><symbol xmlns="http://www.w3.org/2000/svg" viewBox="0 0 28 28" id="list-sidebar" fill="#191919"><path d="M4.375,8.75L4.375,19.25Q4.375,19.3574,4.3802698781,19.464669999999998Q4.385539756,19.571941000000002,4.396066817,19.678825Q4.406593878,19.785707000000002,4.422352757,19.891944000000002Q4.438111641,19.998182,4.459064379,20.103518Q4.48001711,20.208855,4.50611323,20.313037Q4.53220935,20.417219,4.5633859900000004,20.519995Q4.59456263,20.62277,4.63074467,20.723892Q4.66692671,20.825014,4.70802698,20.924238Q4.74912727,21.023464,4.79504675,21.120552Q4.84096628,21.21764,4.89159441,21.312359Q4.94222248,21.407078,4.99743724,21.499197Q5.05265194,21.591316,5.1123203,21.680618Q5.17198867,21.769917,5.23596692,21.856182Q5.29994518,21.942448,5.36807919,22.025471Q5.4362131,22.10849,5.5083386999999995,22.188068Q5.5804644,22.267647,5.6564077,22.34359Q5.7323511,22.419533,5.8119295,22.491659Q5.8915077,22.563786,5.9745293,22.63192Q6.0575507,22.700052,6.1438152,22.76403Q6.2300799,22.828007,6.3193798,22.887676Q6.4086797,22.947346,6.5008001,23.00256Q6.592920299999999,23.057774,6.687639,23.108402Q6.7823575,23.159031,6.879446,23.20495Q6.9765348,23.25087,7.0757596,23.291969Q7.1749845,23.333069,7.2761066,23.369251Q7.3772287,23.405434,7.4800045,23.436611Q7.5827799,23.467787,7.6869613999999995,23.493883Q7.7911429000000005,23.519979,7.8964796,23.540934Q8.0018163,23.561886,8.1080542,23.577646Q8.214292,23.593407,8.3211751,23.603935Q8.428058100000001,23.61446,8.5353289,23.619732Q8.6426001,23.625,8.75,23.625L19.25,23.625Q19.3574,23.625,19.464669999999998,23.61973Q19.571941000000002,23.61446,19.678825,23.603935Q19.785707000000002,23.593407,19.891944000000002,23.577646Q19.998182,23.561888,20.103518,23.540936Q20.208855,23.519981,20.313037,23.493885Q20.417219,23.467789,20.519995,23.436613Q20.62277,23.405436,20.723892,23.369255Q20.825014,23.333073,20.924238,23.291971Q21.023464,23.25087,21.120552,23.204952Q21.21764,23.159031,21.312359,23.108404Q21.407078,23.057775,21.499197,23.00256Q21.591316,22.947346,21.680618,22.887676Q21.769917,22.828007,21.856182,22.76403Q21.942448,22.700052,22.025471,22.63192Q22.10849,22.563786,22.188068,22.491661Q22.267647,22.419535,22.34359,22.343592Q22.419533,22.267649,22.491659,22.18807Q22.563786,22.108492,22.63192,22.025471Q22.700052,21.942448,22.76403,21.856182Q22.828007,21.769917,22.887676,21.680618Q22.947346,21.591316,23.00256,21.499197Q23.057774,21.407078,23.108402,21.312359Q23.159031,21.21764,23.20495,21.120552Q23.25087,21.023464,23.291969,20.924238Q23.333069,20.825014,23.369251,20.723892Q23.405434,20.62277,23.436611,20.519995Q23.467787,20.417219,23.493883,20.313037Q23.519979,20.208855,23.540934,20.103518Q23.561886,19.998182,23.577646,19.891944000000002Q23.593407,19.785707000000002,23.603935,19.678824Q23.61446,19.571941000000002,23.619732,19.464671Q23.625,19.3574,23.625,19.25L23.625,8.75Q23.625,8.6426001,23.61973,8.5353289Q23.61446,8.428058100000001,23.603935,8.3211751Q23.593407,8.2142918,23.577646,8.1080539Q23.561888,8.001816,23.540936,7.8964794000000005Q23.519981,7.7911429000000005,23.493885,7.6869613999999995Q23.467789,7.5827799,23.436613,7.4800043Q23.405436,7.3772287,23.369255,7.2761064Q23.333073,7.1749845,23.291971,7.0757594Q23.25087,6.9765344,23.204952,6.879446Q23.159031,6.7823572,23.108404,6.687639Q23.057775,6.592920299999999,23.00256,6.5008001Q22.947346,6.40868,22.887676,6.3193798999999995Q22.828007,6.2300799,22.76403,6.1438153Q22.700052,6.0575507,22.63192,5.9745293Q22.563786,5.8915077,22.491661,5.8119295Q22.419535,5.7323511,22.343592,5.6564077Q22.267649,5.5804644,22.18807,5.5083386999999995Q22.108492,5.4362131,22.025471,5.36807919Q21.942448,5.29994518,21.856182,5.23596692Q21.769917,5.17198867,21.680618,5.1123203Q21.591316,5.05265194,21.499197,4.99743724Q21.407078,4.94222248,21.312359,4.89159441Q21.21764,4.84096628,21.120552,4.79504675Q21.023464,4.74912727,20.924238,4.70802698Q20.825014,4.66692671,20.723892,4.6307447Q20.62277,4.59456263,20.519995,4.5633859900000004Q20.417219,4.53220935,20.313037,4.50611323Q20.208855,4.48001711,20.103518,4.459064379Q19.998182,4.438111641,19.891944000000002,4.422352757Q19.785707000000002,4.406593878,19.678824,4.396066817Q19.571941000000002,4.385539756,19.464671,4.3802698781Q19.3574,4.375,19.25,4.375L8.75,4.375Q8.6426001,4.375,8.5353289,4.3802698781Q8.428058100000001,4.385539756,8.3211751,4.396066817Q8.2142918,4.406593878,8.1080539,4.422352757Q8.001816,4.438111641,7.8964794000000005,4.459064379Q7.7911429000000005,4.48001711,7.6869613999999995,4.50611323Q7.5827799,4.53220935,7.4800043,4.5633859900000004Q7.3772287,4.59456263,7.2761064,4.63074467Q7.1749845,4.66692671,7.0757594,4.70802698Q6.9765344,4.74912727,6.879446,4.79504675Q6.7823572,4.84096628,6.687639,4.89159441Q6.592920299999999,4.94222248,6.5008001,4.99743724Q6.40868,5.05265194,6.3193798999999995,5.1123203Q6.2300799,5.17198867,6.1438153,5.23596692Q6.0575507,5.29994518,5.9745293,5.36807919Q5.8915077,5.4362131,5.8119295,5.5083386999999995Q5.7323511,5.5804644,5.6564077,5.6564077Q5.5804644,5.7323511,5.5083386999999995,5.8119295Q5.4362131,5.8915077,5.36807919,5.9745293Q5.29994518,6.0575507,5.23596692,6.1438152Q5.17198867,6.2300799,5.1123203,6.3193798Q5.05265194,6.4086797,4.99743724,6.5008001Q4.94222248,6.592920299999999,4.89159441,6.687639Q4.84096628,6.7823575,4.79504675,6.879446Q4.74912727,6.9765348,4.70802698,7.0757596Q4.66692671,7.1749845,4.6307447,7.2761066Q4.59456263,7.3772287,4.5633859900000004,7.4800045Q4.53220935,7.5827799,4.50611323,7.6869613999999995Q4.48001711,7.7911429000000005,4.459064379,7.8964796Q4.438111641,8.0018163,4.422352757,8.1080542Q4.406593878,8.214292,4.396066817,8.3211751Q4.385539756,8.428058100000001,4.3802698781,8.5353289Q4.375,8.6426001,4.375,8.75ZM17.451110999999997,9.3952494L13.2103462,16.739947L10.4011893,13.9307909C10.0594807,13.5890818,9.5054612,13.5890818,9.1637521,13.9307909C8.999658100000001,14.0948849,8.907470700000001,14.3174458,8.907470700000001,14.549509C8.907470700000001,14.781574,8.999658100000001,15.004133,9.163752599999999,15.168228L12.7238121,18.728287C12.7898111,18.80751,12.8692932,18.874445,12.9585915,18.926001C13.3770971,19.167625,13.9122391,19.024234999999997,14.1538639,18.605729L18.966552999999998,10.2702494C19.208178,9.8517432,19.064624000000002,9.3166528,18.646118,9.0750284C18.227612,8.8334041,17.692736,8.9767432,17.451110999999997,9.3952494Z" fill-rule="evenodd" fill="#191919"></path></symbol></defs><use xlink:href="#list-sidebar"></use></svg>