<svg xmlns:xlink="http://www.w3.org/1999/xlink" xmlns="http://www.w3.org/2000/svg" class="icon-sidebar-sync w-[28px] h-[28px] text-grey opacity-40 hover:opacity-60" width="28"  height="28" ><defs><symbol xmlns="http://www.w3.org/2000/svg" viewBox="0 0 28 28" id="sidebar-sync" fill="#191919"><path d="M4.046875,13.999999Q4.046875,11.9756708,4.82943004,10.1255031Q5.5849851,8.3391695,6.962077600000001,6.962077600000001Q8.3391709,5.5849839,10.1255031,4.82942945Q11.9756699,4.046875,13.999999,4.046875Q16.024328,4.046875,17.874496,4.82942915Q19.645698,5.5785843,21.014566,6.9387941L21.014566,6.3218589000000005Q21.014565,6.228497,21.032778,6.1369295Q21.050991,6.0453616,21.08672,5.9591066999999995Q21.122448,5.8728518,21.174318,5.7952245Q21.226187,5.7175971,21.292204,5.6515806Q21.358219,5.5855639,21.435848,5.533695Q21.513474,5.4818261,21.59973,5.4460982Q21.685986,5.4103702,21.777554,5.3921562000000005Q21.869122,5.3739424,21.962484,5.3739424Q22.055847,5.3739424,22.147413,5.3921564Q22.238979,5.4103701,22.325235,5.4460981Q22.411491,5.4818261,22.489117,5.533695Q22.566746,5.5855639,22.632761,5.6515806Q22.698776,5.7175971,22.750645,5.7952244Q22.802513,5.8728518,22.838242,5.9591066999999995Q22.87397,6.0453616,22.892185,6.1369295Q22.9104,6.228497,22.9104,6.3218589000000005L22.9104,9.165608899999999Q22.9104,9.2379313,22.899429,9.309416299999999Q22.888456,9.3809013,22.866766,9.449894Q22.845076,9.5188866,22.813169,9.5837903Q22.781263,9.648693999999999,22.73988,9.708005400000001Q22.698496,9.7673168,22.648594,9.8196635Q22.59869,9.8720102,22.541424,9.9161801Q22.484158,9.96035,22.420853,9.9953208Q22.357548,10.0302916,22.289669,10.055254Q22.131264,10.1135178,21.962484,10.1135254L19.118693,10.1135254Q19.025331,10.1135249,18.933763,10.095310699999999Q18.842195,10.0770965,18.755938999999998,10.0413685Q18.669684,10.0056405,18.592057,9.9537716Q18.51443,9.9019032,18.448414,9.8358865Q18.382396999999997,9.7698698,18.330528,9.6922421Q18.278658,9.6146154,18.24293,9.5283604Q18.207203,9.4421053,18.188989,9.3505378Q18.170775,9.2589703,18.170776,9.165608899999999Q18.170775,9.072247,18.18899,8.980679Q18.207203,8.8891115,18.242931,8.8028564Q18.278658999999998,8.7166014,18.330527,8.6389742Q18.382396999999997,8.561347,18.448414,8.4953308Q18.51443,8.4293137,18.592057,8.3774447Q18.669684,8.3255758,18.755938999999998,8.2898479Q18.842195,8.2541199,18.933764,8.235906100000001Q19.025331,8.2176924,19.118693,8.2176924L19.611309,8.2176924Q17.276502,5.9427075,13.999999,5.9427084Q10.6625595,5.9427075,8.302634699999999,8.302633799999999Q5.9427083,10.662559,5.9427083,13.999999C5.9427083,14.52352,5.5183116000000005,14.947916,4.99479163,14.947916C4.47127175,14.947916,4.046875,14.52352,4.046875,13.999999ZM23.953125,14.000001Q23.953125,16.024329,23.17057,17.874496Q22.415014,19.66083,21.037922,21.037922Q19.66083,22.415016,17.874496,23.17057Q16.02433,23.953125,14.000001,23.953125Q11.9756718,23.953125,10.1255035,23.17057Q8.3543024,22.421415,6.9854336,21.061207L6.9854336,21.678141Q6.9854336,21.771502,6.9672196,21.863068Q6.9490056,21.954636,6.9132774,22.040892Q6.8775492,22.127148,6.8256805,22.204775Q6.7738113,22.282402,6.7077947,22.348419Q6.641778,22.414434,6.5641506,22.466303Q6.486523200000001,22.518171,6.4002681,22.5539Q6.314013,22.589628,6.2224450000000004,22.607841Q6.1308773,22.626057,6.0375156,22.626057Q5.944154,22.626057,5.8525863000000005,22.607841Q5.7610186,22.589626,5.6747638,22.553898Q5.5885088,22.518169,5.5108815,22.466301Q5.4332542,22.414433,5.3672377000000004,22.348417Q5.301221,22.2824,5.2493521,22.204773Q5.1974832,22.127144,5.1617553,22.04089Q5.1260273000000005,21.954636,5.1078135,21.86307Q5.0895996,21.771502,5.0895996,21.678141L5.0895996,18.834391Q5.0895996,18.762068,5.1005716,18.690582Q5.1115437,18.619098,5.1332338,18.550105000000002Q5.1549239,18.481112,5.1868300000000005,18.416207999999997Q5.2187362,18.351305,5.2601197,18.291994000000003Q5.3015032,18.232682,5.3514059,18.180336Q5.4013085,18.127989,5.4585754,18.083819Q5.5158423,18.03965,5.5791476,18.004679Q5.6424528,17.969708,5.710331,17.944746000000002Q5.8687363,17.886482,6.0375156,17.886475L8.8813066,17.886475Q8.974668000000001,17.886475,9.066235500000001,17.904688999999998Q9.1578035,17.922902,9.2440581,17.95863Q9.3303127,17.994357,9.407940400000001,18.046226Q9.485568,18.098095,9.5515847,18.164112Q9.6176014,18.230128,9.6694698,18.307755Q9.7213392,18.385382999999997,9.7570672,18.471638Q9.7927952,18.557893,9.811008900000001,18.649461000000002Q9.829223200000001,18.741028999999997,9.829223599999999,18.834391Q9.829223200000001,18.927751999999998,9.8110094,19.01932Q9.7927952,19.110886999999998,9.7570672,19.197142Q9.7213392,19.283396,9.6694698,19.361024Q9.6176014,19.438651999999998,9.5515847,19.504669Q9.485568,19.570684,9.407940400000001,19.622553Q9.3303127,19.674421000000002,9.2440581,19.71015Q9.1578035,19.745877999999998,9.066235500000001,19.764091Q8.974668000000001,19.782307,8.8813066,19.782308L8.3886909,19.782308Q10.7234983,22.057293,14.000001,22.057291Q17.33744,22.057293,19.697364999999998,19.697367Q22.057291,17.33744,22.057291,14.000001C22.057291,13.4764805,22.481688,13.052084,23.005209,13.052084C23.528728,13.052084,23.953125,13.4764805,23.953125,14.000001Z" fill-rule="evenodd" fill="#191919"></path></symbol></defs><use xlink:href="#sidebar-sync"></use></svg>