<svg xmlns:xlink="http://www.w3.org/1999/xlink" xmlns="http://www.w3.org/2000/svg" class="icon-matrix-sidebar w-[28px] h-[28px] text-grey whiteSvg_2wUcK opacity-40 hover:opacity-60" width="28"  height="28" ><defs><symbol xmlns="http://www.w3.org/2000/svg" viewBox="0 0 28 28" id="matrix-sidebar" fill="#191919"><path d="M3.9375,8.4515505C3.9375,10.9445915,5.9585092,12.965601,8.4515505,12.965601L12.965601,12.965601L12.965601,8.4515505C12.965601,5.9585092,10.9445915,3.9375,8.4515505,3.9375C5.9585092,3.9375,3.9375,5.9585092,3.9375,8.4515505ZM3.9375,18.673450000000003C3.9375,16.180408,5.9585092,14.159399,8.4515505,14.159399L12.965601,14.159399L12.965601,18.673450000000003C12.965601,21.166491,10.9445915,23.1875,8.4515505,23.1875C5.9585092,23.1875,3.9375,21.166491,3.9375,18.673450000000003ZM23.1875,8.4515505C23.1875,10.9445915,21.166491,12.965601,18.673450000000003,12.965601L14.159399,12.965601L14.159399,8.4515505C14.159399,5.9585092,16.180408,3.9375,18.673450000000003,3.9375C21.166491,3.9375,23.1875,5.9585092,23.1875,8.4515505ZM23.1875,18.673450000000003C23.1875,16.180408,21.166491,14.159399,18.673450000000003,14.159399L14.159399,14.159399L14.159399,18.673450000000003C14.159399,21.166491,16.180408,23.1875,18.673450000000003,23.1875C21.166491,23.1875,23.1875,21.166491,23.1875,18.673450000000003Z" fill="#191919"></path></symbol></defs><use xlink:href="#matrix-sidebar"></use></svg>