<svg xmlns:xlink="http://www.w3.org/1999/xlink" xmlns="http://www.w3.org/2000/svg" class="icon-empty-task-detail-2 text-grey-3 absolute bottom-0 left-1/2 -translate-x-1/2" style="width: 1200px; height: 1164px;" width="1200"  height="1164" ><defs><symbol xmlns="http://www.w3.org/2000/svg" viewBox="0 0 1200 1164" id="empty-task-detail-2" fill="#191919"><defs><clipPath id="empty-task-detail-2_a"><rect width="1200" height="1164" rx="0"></rect></clipPath></defs><g clip-path="url(#empty-task-detail-2_a)" fill="#191919"><path d="M708.6215903320312,898.6158289907812L695.1385903320313,904.5061595507813L695.6425903320312,905.6482295507813L709.1245903320313,899.7578895507812L708.6215903320312,898.6158289907812ZM700.3505903320313,909.7443395507812L690.2685903320312,914.1487395507812L690.7715903320312,915.2892395507813L700.8535903320312,910.8847395507812L700.3505903320313,909.7443395507812ZM587.0721903320313,941.9106395507813L529.3430903320312,966.9905395507812C529.0898903320312,967.1005395507813,528.9738903320313,967.3950395507812,529.0840903320312,967.6483395507812C529.1941903320312,967.9015395507813,529.4887903320313,968.0176395507813,529.7420903320312,967.9076395507813L587.4710903320313,942.8277395507813C587.7243903320312,942.7177395507813,587.8403903320312,942.4232395507812,587.7301903320313,942.1699395507812C587.6200903320313,941.9167395507812,587.3254903320312,941.8006395507813,587.0721903320313,941.9106395507813ZM577.6365903320312,968.6876395507812L537.5882903320312,986.0862395507812C537.3349903320312,986.1962395507812,537.2189903320312,986.4907395507812,537.3291903320312,986.7440395507813C537.4392903320313,986.9972395507813,537.7338903320313,987.1133395507812,537.9871903320312,987.0033395507812L578.0354903320313,969.6046395507813C578.2887903320312,969.4946395507812,578.4047903320312,969.2001395507813,578.2945903320312,968.9469395507813C578.1844903320313,968.6936395507812,577.8897903320312,968.5775395507812,577.6365903320312,968.6876395507812ZM716.6685903320313,980.4306395507813L717.0635903320313,981.3390395507813C717.4525903320313,982.2319395507812,717.0435903320313,983.2703395507813,716.1495903320313,983.6583395507812L668.5325903320313,1004.3405395507813C667.6395903320313,1004.7285395507813,666.6005903320313,1004.3195395507812,666.2115903320313,1003.4265395507813L665.8165903320312,1002.5175395507813C665.4285903320313,1001.6245395507813,665.8375903320313,1000.5865395507813,666.7305903320313,1000.1985395507812L714.3475903320312,979.5162395507813C715.2415903320313,979.1283395507812,716.2805903320312,979.5376395507813,716.6685903320313,980.4306395507813ZM722.9765903320313,994.9285395507812L723.3715903320312,995.8370395507812C723.7605903320313,996.7299395507813,723.3505903320313,997.7683395507812,722.4575903320313,998.1562395507813L674.8405903320313,1018.8385395507812C673.9475903320313,1019.2265395507812,672.9085903320313,1018.8175395507812,672.5195903320313,1017.9245395507812L672.1245903320313,1017.0155395507812C671.7355903320313,1016.1225395507813,672.1455903320312,1015.0845395507813,673.0385903320313,1014.6965395507813L720.6555903320312,994.0142395507812C721.5485903320313,993.6262395507813,722.5875903320313,994.0356395507813,722.9765903320313,994.9285395507812ZM729.2835903320313,1009.4255395507812L729.6795903320312,1010.3335395507812C730.0675903320313,1011.2265395507812,729.6585903320313,1012.2655395507812,728.7655903320313,1012.6535395507813L698.1885903320313,1025.9335395507812C697.2955903320312,1026.3215395507812,696.2565903320312,1025.9125395507813,695.8675903320312,1025.0195395507812L695.4725903320312,1024.1115395507813C695.0845903320312,1023.2185395507812,695.4935903320313,1022.1795395507812,696.3865903320312,1021.7915395507813L726.9635903320312,1008.5115395507812C727.8565903320313,1008.1235395507813,728.8955903320312,1008.5325395507813,729.2835903320313,1009.4255395507812ZM649.6085903320312,1010.7135395507812L649.2835903320313,1009.9655395507813C648.9405903320312,1009.1775395507813,648.1155903320313,1008.7355395507813,647.2925903320313,1008.9845395507813Q645.4455903320313,1009.5435395507812,643.4455903320313,1010.4125395507813C634.6395903320313,1014.2365395507812,630.2745903320313,1019.9455395507813,617.3145903320312,1026.2535395507812Q609.2336903320313,1030.1875395507814,599.4342903320312,1034.3385395507812C598.5295903320313,1034.7215395507812,598.1106903320313,1035.7685395507813,598.5026903320313,1036.6685395507811L598.8482903320313,1037.4635395507812C599.2332903320313,1038.3485395507812,600.2185903320312,1038.7775395507813,601.1072903320312,1038.4005395507813Q610.9534903320313,1034.2315395507812,619.0675903320313,1030.2815395507812C632.0275903320312,1023.9735395507812,636.3925903320312,1018.2655395507812,645.1975903320313,1014.4405395507813Q646.8655903320313,1013.7165395507812,648.4275903320313,1013.2075395507812C649.4655903320313,1012.8685395507813,650.0445903320312,1011.7155395507813,649.6085903320312,1010.7135395507812ZM656.0105903320313,1025.4265395507812L655.6845903320312,1024.6785395507814C655.3415903320313,1023.8895395507813,654.5165903320312,1023.4475395507812,653.6935903320312,1023.6965395507813Q651.8465903320313,1024.2555395507814,649.8465903320313,1025.1245395507813C641.0405903320312,1028.9495395507813,636.6755903320312,1034.6575395507812,623.7165903320313,1040.9655395507812Q615.6345903320313,1044.8995395507814,605.8354903320312,1049.0515395507812C604.9307903320313,1049.4345395507812,604.5118903320313,1050.4805395507813,604.9037903320312,1051.3815395507813L605.2494903320312,1052.1755395507812C605.6344903320312,1053.0605395507812,606.6196903320313,1053.4895395507813,607.5084903320312,1053.1135395507813Q617.3545903320312,1048.9435395507812,625.4685903320312,1044.9945395507812C638.4285903320313,1038.6865395507812,642.7935903320313,1032.9775395507813,651.5985903320312,1029.1535395507813Q653.2665903320312,1028.4285395507814,654.8285903320312,1027.9195395507813C655.8665903320313,1027.5815395507811,656.4455903320313,1026.4275395507811,656.0105903320313,1025.4265395507812ZM662.4445903320312,1040.2205395507813L662.1195903320313,1039.4725395507812C661.7765903320312,1038.6845395507812,660.9515903320313,1038.2425395507812,660.1285903320313,1038.4915395507812Q658.2805903320312,1039.0505395507812,656.2805903320312,1039.9195395507813C647.8305903320313,1043.5895395507812,643.4695903320312,1048.9955395507814,631.6775903320313,1055.0005395507812C630.8355903320312,1055.4295395507813,630.4475903320313,1056.4435395507812,630.8245903320312,1057.3085395507812L631.1685903320313,1058.1005395507814C631.5695903320312,1059.0215395507812,632.6735903320313,1059.4155395507812,633.5675903320313,1058.9585395507813C645.2565903320312,1052.9815395507812,649.6155903320313,1047.6035395507813,658.0335903320313,1043.9475395507811Q659.7015903320313,1043.2235395507812,661.2635903320313,1042.7145395507812C662.3015903320313,1042.3755395507812,662.8805903320313,1041.2225395507812,662.4445903320312,1040.2205395507813ZM553.1591903320312,1076.3325395507813Q553.1595903320313,1072.4865395507813,551.7444903320312,1068.9115395507813Q550.2078903320313,1065.0295395507812,547.2559903320313,1062.0775395507812Q544.3040903320313,1059.1255395507812,540.4224903320312,1057.5885395507812Q536.8474903320313,1056.1735395507812,533.0023903320313,1056.1735395507812Q529.1573903320312,1056.1745395507812,525.5821903320312,1057.5895395507812Q521.7002503320313,1059.1275395507812,518.7478803320313,1062.0795395507812Q515.7954903320312,1065.0325395507812,514.2583803320313,1068.9145395507812Q512.8427085880312,1072.4905395507812,512.8424034120312,1076.3355395507813Q512.8420982360312,1080.1805395507813,514.2572003320313,1083.7565395507813Q515.7936803320313,1087.6385395507812,518.7456203320312,1090.5905395507812Q521.6975303320312,1093.5425395507812,525.5791903320312,1095.0795395507812Q529.1541903320312,1096.4945395507812,532.9991903320313,1096.4935395507812Q536.8442903320313,1096.4935395507812,540.4194903320313,1095.0775395507812Q544.3013903320312,1093.5405395507812,547.2537903320313,1090.5885395507812Q550.2060903320313,1087.6355395507812,551.7432903320313,1083.7535395507812Q553.1588903320312,1080.1775395507811,553.1591903320312,1076.3325395507813ZM527.1603903320313,1063.2905395507812Q524.4666903320312,1064.3805395507811,522.4315003320313,1066.4255395507812Q520.4663003320312,1068.3995395507814,519.3830403320312,1070.9875395507813Q518.3000203320313,1073.5745395507813,518.2660503320312,1076.3745395507813Q518.2308703320313,1079.2745395507814,519.3307703320313,1081.9875395507813C519.4345303320313,1082.2425395507812,519.7261403320313,1082.3665395507812,519.9821203320313,1082.2625395507812C520.2381003320312,1082.1595395507813,520.3615103320312,1081.8675395507812,520.2572403320313,1081.6105395507811Q519.2334803320313,1079.0845395507813,519.2662003320313,1076.3875395507812Q519.2978103320313,1073.7815395507812,520.3057803320313,1071.3735395507813Q521.3135203320312,1068.9665395507814,523.1406903320312,1067.1305395507811Q525.0318903320313,1065.2305395507813,527.5360903320312,1064.2175395507813C527.7920903320312,1064.1135395507813,527.9154903320313,1063.8225395507811,527.8116903320313,1063.5665395507813C527.7079903320313,1063.3105395507812,527.4163903320313,1063.1865395507812,527.1603903320313,1063.2905395507812ZM526.0374903320312,1067.4955395507814Q524.3597903320313,1068.8525395507813,523.3497903320313,1070.7445395507812Q522.3745003320313,1072.5715395507812,522.1535603320312,1074.6415395507813Q521.9326203320312,1076.7115395507813,522.5001003320313,1078.7055395507812Q523.0876903320312,1080.7705395507812,524.4403903320313,1082.4555395507812C524.6132903320313,1082.6715395507813,524.9273903320312,1082.7055395507812,525.1420903320312,1082.5315395507812C525.3566903320312,1082.3575395507812,525.3904903320313,1082.0425395507812,525.2176903320312,1081.8265395507813Q523.9917903320312,1080.2995395507812,523.4596903320313,1078.4295395507813Q522.9456903320313,1076.6235395507813,523.1458903320313,1074.7475395507813Q523.3460903320313,1072.8725395507813,524.2292903320313,1071.2175395507813Q525.1435903320313,1069.5055395507811,526.6634903320313,1068.2755395507813C526.8780903320312,1068.1015395507811,526.9119903320312,1067.7865395507813,526.7390903320312,1067.5715395507812C526.5661903320313,1067.3555395507813,526.2520903320312,1067.3215395507812,526.0374903320312,1067.4955395507814ZM540.9349903320312,1069.1105395507811C540.7620903320312,1068.8945395507812,540.4479903320313,1068.8605395507811,540.2333903320313,1069.0345395507813C540.0186903320313,1069.2085395507813,539.9848903320312,1069.5235395507812,540.1576903320313,1069.7385395507813Q541.3835903320313,1071.2665395507813,541.9156903320312,1073.1355395507812Q542.4292903320312,1074.9405395507813,542.2298903320312,1076.8145395507813L542.2294903320312,1076.8175395507812C542.2154903320312,1076.9495395507813,542.2540903320313,1077.0825395507813,542.3370903320313,1077.1855395507812C542.5099903320313,1077.4005395507813,542.8240903320312,1077.4345395507812,543.0386903320313,1077.2615395507812C543.1417903320313,1077.1775395507811,543.2076903320312,1077.0565395507813,543.2219903320313,1076.9235395507812Q543.4425903320313,1074.8535395507813,542.8752903320312,1072.8605395507811Q542.2876903320313,1070.7955395507813,540.9349903320312,1069.1105395507811ZM545.8064903320312,1071.2735395507812C545.7026903320312,1071.0175395507813,545.4110903320312,1070.8935395507813,545.1550903320312,1070.9975395507813C544.8990903320313,1071.1015395507811,544.7756903320312,1071.3925395507813,544.8794903320313,1071.6485395507812Q545.9036903320313,1074.1745395507812,545.8709903320313,1076.8725395507813Q545.8393903320313,1079.4775395507813,544.8321903320312,1081.8845395507813L544.8313903320312,1081.8865395507812L545.7545903320313,1082.2715395507812Q546.8371903320312,1079.6855395507812,546.8711903320312,1076.8855395507812Q546.9062903320313,1073.9865395507813,545.8064903320312,1071.2735395507812Z" fill-rule="evenodd" opacity=".5" fill="#191919"></path></g></symbol></defs><use xlink:href="#empty-task-detail-2"></use></svg>