<svg xmlns:xlink="http://www.w3.org/1999/xlink" xmlns="http://www.w3.org/2000/svg" class="icon-more-for-task w-[12px] h-[12px] text-grey-40 hover:text-grey" width="24"  height="24" ><defs><symbol xmlns="http://www.w3.org/2000/svg" viewBox="0 0 24 24" id="more-for-task" fill="#191919"><style fill="#191919">#more-for-task .st0{fill-rule:evenodd;clip-rule:evenodd}</style><path id="more-for-task_more-copy-2" class="st0" d="M7.5,12c0,1-0.8,1.8-1.8,1.8C4.8,13.8,4,13,4,12s0.8-1.8,1.8-1.8C6.7,10.2,7.5,11,7.5,12 L7.5,12z" fill="#191919"></path><path id="more-for-task_more-copy-3" class="st0" d="M20,12c0,1-0.8,1.8-1.8,1.8c-1,0-1.8-0.8-1.8-1.8s0.8-1.8,1.8-1.8C19.2,10.2,20,11,20,12 L20,12z" fill="#191919"></path><path id="more-for-task_more-copy-4" class="st0" d="M13.8,12c0,1-0.8,1.8-1.8,1.8c-1,0-1.8-0.8-1.8-1.8s0.8-1.8,1.8-1.8C13,10.2,13.8,11,13.8,12 L13.8,12z" fill="#191919"></path></symbol></defs><use xlink:href="#more-for-task"></use></svg>