<svg xmlns:xlink="http://www.w3.org/1999/xlink" xmlns="http://www.w3.org/2000/svg" class="icon-countdown-sidebar w-[28px] h-[28px] text-grey whiteSvg_2wUcK opacity-40 hover:opacity-60" width="28"  height="28" ><defs><symbol xmlns="http://www.w3.org/2000/svg" viewBox="0 0 28 28" id="countdown-sidebar" fill="#191919"><path d="M16.625,5.25L11.375,5.25L11.375,4.8125Q11.375,4.7480211,11.368679499999999,4.6838524Q11.362359999999999,4.6196839999999995,11.3497801,4.5564438Q11.3372011,4.49320388,11.3184838,4.43150127Q11.2997665,4.36979878,11.2750907,4.31022793Q11.250415799999999,4.2506572,11.2200208,4.19379175Q11.1896257,4.13692641,11.153802899999999,4.083314Q11.117981,4.02970171,11.077076,3.9798587899999998Q11.036171,3.93001586,10.9905772,3.88442233Q10.9449844,3.8388288,10.895140600000001,3.79792377Q10.8452978,3.75701874,10.791685099999999,3.72119612Q10.7380733,3.68537351,10.6812086,3.65497833Q10.6243429,3.62458315,10.5647717,3.599908099Q10.5052013,3.575233065,10.4434986,3.556515805Q10.3817959,3.537798543,10.3185558,3.525219316Q10.2553158,3.512640092,10.1911478,3.5063200458Q10.126978900000001,3.5,10.0625,3.5Q9.998021099999999,3.5,9.9338522,3.5063200458Q9.8696833,3.512640092,9.8064432,3.525219316Q9.7432032,3.537798543,9.6815009,3.556515805Q9.6197987,3.575233065,9.560227399999999,3.599908099Q9.5006571,3.62458315,9.4437914,3.65497833Q9.3869267,3.68537351,9.3333135,3.72119612Q9.2797017,3.75701874,9.2298589,3.79792377Q9.180016,3.8388288,9.1344223,3.88442233Q9.088829,3.93001586,9.047924,3.97985882Q9.007019,4.02970171,8.971195699999999,4.083314Q8.9353733,4.13692641,8.9049783,4.19379175Q8.8745832,4.2506572,8.8499079,4.31022793Q8.825233,4.36979878,8.8065157,4.43150133Q8.7877984,4.49320388,8.775219,4.5564438Q8.762640000000001,4.6196839999999995,8.756319999999999,4.6838526Q8.75,4.7480211,8.75,4.8125L8.750000499999999,5.25C6.3337543,5.25,4.375,7.2087543,4.375,9.625001000000001L4.375,19.25C4.375,21.666246,6.3337543,23.625,8.750000499999999,23.625L19.25,23.625C21.666246,23.625,23.625,21.666246,23.625,19.25L23.625,9.625000499999999C23.625,7.2087543,21.666246,5.25,19.25,5.25L19.25,4.8125Q19.25,4.7480211,19.243679999999998,4.6838524Q19.237360000000002,4.6196839999999995,19.224778999999998,4.5564438Q19.212201,4.49320388,19.193483,4.43150127Q19.174767,4.36979878,19.15009,4.31022793Q19.125416,4.2506572,19.095021,4.19379175Q19.064627,4.13692641,19.028804,4.083314Q18.992981999999998,4.02970171,18.952077,3.9798587899999998Q18.911172,3.93001586,18.865578,3.88442233Q18.819983999999998,3.8388288,18.770142,3.79792377Q18.720299,3.75701874,18.666685,3.72119612Q18.613073,3.68537351,18.556207999999998,3.65497833Q18.499342,3.62458315,18.439771,3.599908099Q18.380201,3.575233065,18.318499,3.556515805Q18.256796,3.537798543,18.193554,3.525219316Q18.130315,3.512640092,18.066147,3.5063200458Q18.001979,3.5,17.9375,3.5Q17.873022,3.5,17.808853,3.5063200458Q17.744684,3.512640092,17.681442,3.525219316Q17.618202,3.537798543,17.5565,3.556515805Q17.494798,3.575233065,17.435226,3.599908099Q17.375656,3.62458315,17.31879,3.65497833Q17.261926000000003,3.68537351,17.208313,3.72119612Q17.154701,3.75701874,17.104858999999998,3.79792377Q17.055017,3.8388288,17.009422,3.88442233Q16.963829,3.93001586,16.922924000000002,3.97985882Q16.882019,4.02970171,16.846196,4.083314Q16.810373,4.13692641,16.779979,4.19379175Q16.749583,4.2506572,16.724907,4.31022793Q16.700233,4.36979878,16.681516000000002,4.43150133Q16.662798000000002,4.49320388,16.650218000000002,4.5564438Q16.637639999999998,4.6196839999999995,16.631321,4.6838526Q16.625000999999997,4.7480211,16.625,4.8125L16.625,5.25ZM12.1475458,12.4947634C12.2685981,12.4821472,12.3835373,12.3896523,12.4599304,12.2472219L13.2503109,10.5593615C13.5548391,9.8971138,14.445642,9.8971138,14.749502,10.5579572L15.543629,12.2541027C15.594481,12.3731747,15.718232,12.4656687,15.861002,12.495779L17.655462,12.7562752C18.344486,12.8709545,18.618047,13.735148,18.121261,14.251938L16.832998,15.548891C16.736809,15.648913,16.690128,15.798614,16.703411,15.942817L17.016233,17.787159000000003C17.126602,18.504939,16.405932999999997,19.051183,15.798688,18.706606L14.1905823,17.837344C14.0660944,17.765522,13.9343681,17.765522,13.8047018,17.840302L12.2054873,18.704465C11.5945492,19.051183,10.8738499,18.504939,10.9848356,17.783753L11.2979269,15.938057C11.3233981,15.805754,11.2740192,15.659737,11.169934300000001,15.551411L9.876792,14.249479C9.3824453,13.735168,9.6560059,12.8709641,10.3491726,12.7556276L12.1475458,12.4947634Z" fill-rule="evenodd" fill="#191919"></path></symbol></defs><use xlink:href="#countdown-sidebar"></use></svg>