<svg xmlns:xlink="http://www.w3.org/1999/xlink" xmlns="http://www.w3.org/2000/svg" class="icon-empty-task-detail-1 text-grey-6 absolute bottom-0 left-1/2 -translate-x-1/2" style="width: 1200px; height: 1164px;" width="1200"  height="1164" ><defs><symbol xmlns="http://www.w3.org/2000/svg" viewBox="0 0 1200 1164" id="empty-task-detail-1" fill="#191919"><defs><clipPath id="empty-task-detail-1_a"><rect width="1200" height="1164" rx="0"></rect></clipPath></defs><g clip-path="url(#empty-task-detail-1_a)" fill="#191919"><path d="M637.823574225,899.01393125L661.659715625,931.83923125C661.822015625,932.06273125,662.135215625,932.11313125,662.359415625,931.95193125L684.229215625,916.22453125L692.533815625,935.14793125C692.644815625,935.40083125,692.939715625,935.51583125,693.192615625,935.40493125L693.197615625,935.40263125L726.296015625,920.44253125C726.545715625,920.32973125,726.658015625,920.03693125,726.547915625,919.78603125L711.962715625,886.55103125C711.909415625,886.42963125,711.810115625,886.33433125,711.686515625,886.28613125C711.563015625,886.23793125,711.4253156249999,886.24083125,711.303915625,886.29413125L711.2989156250001,886.29633125L688.031515625,896.81293125L671.857315625,874.53908725C671.695115625,874.31564335,671.381815625,874.26520345,671.157615625,874.42642595L660.526815625,882.07141125L656.385115625,878.80078125L649.409215625,887.54883125L654.098915625,891.25223125L660.318115625,883.45319125L671.339215625,875.52751125L694.568415625,907.51703125L684.133415625,915.02123125C684.082615625,915.05773125,684.040415625,915.10233125,684.007615625,915.15223125L662.177815625,930.85083125L638.929225625,898.83473125L651.893915625,889.51133125L651.077515625,888.86673125L637.935718625,898.31743125C637.711527825,898.47863125,637.661319025,898.79053125,637.823574225,899.01393125ZM685.059315625,915.62763125L695.581315625,908.06093125C695.700115625,907.97543125,695.770015625,907.84773125,695.785415625,907.71333125C695.787215625,907.70483125,695.788815625,907.69633125,695.790215625,907.68773125C695.810915625,907.55673125,695.778815625,907.42293125,695.700915625,907.31563125L688.663715625,897.62453125L711.250115625,887.41573125L725.433415625,919.73503125L693.246415625,934.28323125L685.059315625,915.62763125ZM670.785615625,899.53243125C671.579815625,898.98743125,671.027515625,896.81623125,669.550915625,894.67923125C668.183715625,892.70043125,666.700915625,891.53663125,665.736415625,891.68513125C665.626415625,891.70203125,665.525615625,891.74073125,665.441815625,891.79833125C664.647515625,892.34323125,665.199915625,894.51453125,666.676515625,896.65153125C668.043715625,898.63023125,669.526515625,899.79413125,670.491015625,899.64563125C670.601015625,899.62863125,670.701715625,899.59003125,670.785615625,899.53243125ZM664.114015625,912.54283125Q660.119515625,912.17043125,657.628715625,908.56563125L656.756415625,909.16413125Q659.526915625,913.17383125,664.013215625,913.59203125Q668.204315625,913.98273125,672.321915625,911.15743125Q676.439515625,908.33213125,677.568515625,904.29113125Q678.777015625,899.96543125,676.006615625,895.95583125L675.134315625,896.55433125Q677.6250156250001,900.15913125,676.548915625,904.01073125Q675.523115625,907.68243125,671.722615625,910.2901312500001Q667.922115625,912.89783125,664.114015625,912.54283125ZM662.451515625,905.25423125C663.245815625,904.70923125,662.693415625,902.53803125,661.216815625,900.40103125C659.849615625,898.42223125,658.366815625,897.2584312500001,657.402315625,897.40693125C657.292315625,897.42383125,657.191515625,897.46253125,657.107715625,897.52013125C656.313415625,898.06503125,656.865815625,900.23633125,658.3424156250001,902.37333125C659.709615625,904.35203125,661.192415625,905.51593125,662.156915625,905.36743125C662.266915625,905.35043125,662.367615625,905.31183125,662.451515625,905.25423125Z" fill-rule="evenodd" fill="#191919"></path><path d="M485.1753234375,958.78515625L485.1754234375,970.66215625L609.1005234375,970.66215625Q609.8145234374999,970.66215625,610.3205234375,971.16755625Q610.8255234375,971.67295625,610.8255234375,972.38785625L610.8255234375,1027.93875625Q610.8255234375,1028.65355625,610.3205234375,1029.15905625Q609.8145234374999,1029.66445625,609.1005234375,1029.66445625L478.1219134375,1029.66435625Q474.6276634375,1029.66435625,472.1568434375,1027.19355625Q470.0392484375,1025.07595625,469.7365285375,1022.20665625L469.6855466505,1022.20665625L469.6855473225,967.15924625Q469.6855468575,963.69229625,472.1094034375,961.23994625Q474.5356634375,958.78515625,477.9681334375,958.78515625L485.1753234375,958.78515625ZM470.6855474375,967.15924625L470.6855464375,1018.17145625Q471.2424134375,1017.16455625,472.1094034375,1016.28735625Q474.5356534375,1013.83255625,477.9681334375,1013.83255625L484.1759234375,1013.83255625L484.1753234375,959.78515625L477.9681334375,959.78515625Q474.9532934375,959.78515625,472.8206234375,961.94290625Q470.6855464375,964.10308625,470.6855474375,967.15924625ZM485.1760234375,1014.83255625L485.1754234375,971.66215625L609.1005234375,971.66215625Q609.4005234374999,971.66215625,609.6135234375,971.87465625Q609.8255234375,972.08725625,609.8255234375,972.38785625L609.8255234375,1027.93875625Q609.8255234375,1028.23935625,609.6135234375,1028.45195625Q609.4005234374999,1028.66445625,609.1005234375,1028.66445625L478.1219134375,1028.66435625Q475.0418734375,1028.66435625,472.8639534375,1026.48645625Q470.8593034375,1024.48185625,470.6998234375,1021.71285625Q470.8601134375,1018.97385625,472.8206234375,1016.99025625Q474.9533034375,1014.83255625,477.9681334375,1014.83255625L485.1760234375,1014.83255625ZM517.3195234375,985.34575625L506.8723234375,994.95425625L501.4551234375,988.84565625L501.4569234375,988.84405625L501.4558234375,988.84275625L502.2283234375,988.13225625L502.2283234375,988.13435625L501.4569234375,988.84405625L503.6779234375,986.80135625L507.0887234375,990.64745625L515.3131234375,983.08335625L517.3195234375,985.34575625ZM511.2212234375,983.59525625Q512.0418234374999,983.59525625,512.6576234375,984.08955625L511.8622234375,984.82105625Q511.5769234375,984.65085625,511.2210234375,984.65085625L503.4991234375,984.65085625Q502.9729234375,984.65085625,502.6008234375,985.02285625Q502.2287234375,985.39495625,502.2286234375,985.92105625L502.22852343750003,986.69815625L501.1728234375,987.66915625L501.1731234375,985.92105625Q501.1732234375,984.95765625,501.8546234375,984.27645625Q502.5359234375,983.59525625,503.4992234375,983.59525625L511.2212234375,983.59525625ZM512.4728234375,985.69545625L512.4725234375001,985.69355625L513.3237234375,984.91075625L513.3244234375,984.91225625L512.4728234375,985.69545625ZM507.57342343749997,995.74105625L508.15742343750003,995.20395625L511.2193234375,995.20395625Q511.74552343749997,995.20395625,512.1176234375,994.83195625Q512.4897234375,994.45985625,512.4898234375,993.93375625L512.4902234375,991.21895625L513.5459234375,990.24805625L513.5453234375,993.93375625Q513.5452234375,994.89705625,512.8638234375001,995.57825625Q512.1825234375,996.25945625,511.2192234375,996.25945625L503.4972234375,996.25945625Q502.5338234375,996.25945625,501.8527234375,995.57825625Q501.1716234375,994.89705625,501.1718234375,993.93375625L501.1724234375,990.11385625L502.2278234375,991.30385625L502.2273234375,993.93375625Q502.2273234375,994.45985625,502.5992234375,994.83195625Q502.9712234375,995.20395625,503.4974234375,995.20395625L505.6865234375,995.20395625L506.0961234375,995.66585625C506.4829234375,996.10205625,507.1443234375,996.13575625,507.57342343749997,995.74105625ZM500.9529234375,1015.51575625L500.9542234375,1007.50305625Q500.9543234375,1006.55125625,501.6275234375,1005.87815625Q502.3007234375,1005.20505625,503.2526234375,1005.20505625L510.9745234375,1005.20505625Q511.9264234375,1005.20505625,512.5994234375,1005.87815625Q513.2723234375,1006.55125625,513.2722234375,1007.50305625L513.2709234375,1015.51575625Q513.2707234375,1016.46765625,512.5975234375001,1017.14065625Q511.9244234375,1017.81375625,510.9725234375,1017.81375625L503.2505234375,1017.81375625Q502.29872343750003,1017.81375625,501.6257234375,1017.14065625Q500.9527234375,1016.46765625,500.9529234375,1015.51575625ZM501.9529234375,1015.51575625Q501.9528234375,1016.05335625,502.33292343749997,1016.43355625Q502.71312343750003,1016.81375625,503.2507234375,1016.81375625L510.9727234375,1016.81375625Q511.5103234375,1016.81375625,511.8906234375,1016.43355625Q512.2708234375,1016.05335625,512.2709234375,1015.51575625L512.2722234375,1007.50305625Q512.2723234375,1006.96545625,511.8921234375,1006.58525625Q511.5120234375,1006.20505625,510.9744234375,1006.20505625L503.2524234375,1006.20505625Q502.7148234375,1006.20505625,502.3345234375,1006.58525625Q501.9543234375,1006.96545625,501.9542234375,1007.50305625L501.9529234375,1015.51575625Z" fill-rule="evenodd" transform="matrix(.91712 -.39843 .39907 .917 -343.688 266.713)" fill="#191919"></path><path d="M823.1234109375,952.4921875Q826.2382109375,952.4921875,829.6732109375,953.0107325Q831.7602109375,953.3257275,835.9762109375,954.2058575Q840.8272109375,955.2184475,843.6682109375,955.6568875Q848.4712109375,956.3979975,853.4282109375,956.6123775Q867.2572109375,957.2104675,885.0392109375,956.6581875Q885.8422109375,956.6332775,886.4142109375,957.1929275Q886.9172109374999,957.6847675,886.9762109375,958.3671875L893.4582109375,958.3671875Q894.3962109375,958.3671875,895.0592109375,959.0299875Q895.7212109375,959.6928275,895.7212109375,960.6302575L895.7212109375,1068.6681875Q895.7212109375,1069.6051875,895.0592109375,1070.2681875Q894.3962109375,1070.9311875,893.4582109375,1070.9311875L727.3801109375,1070.9311875Q726.4426109375,1070.9311875,725.7796709375,1070.2681875Q725.1167001275,1069.6051875,725.1167000015,1068.6681875L725.1166993545,960.6302575Q725.1166993175,959.6928375,725.7796719375,959.0299975Q726.4426009375,958.3671875,727.3801109375,958.3671875L730.0965809375,958.3671875Q730.1572909375,957.7065175,730.6423209375,957.2215775Q731.1967109375,956.6672975,731.9807109375,956.6672975L734.7038009375,956.6672975L809.1085109375,956.5683975Q813.7591109375,952.4921875,823.1234109375,952.4921875ZM731.1858709375,1063.3421875Q731.1635309375,1063.2431875,731.1635309375,1063.1351875L731.1635309375,958.8671875C731.1635309375,958.7700475,731.1358309375,958.6793675,731.0878909375,958.6026375L731.0878909375,958.5598575Q731.0878909375,958.1901775,731.3493609375,957.9287575Q731.6108609375,957.6672975,731.9807109375,957.6672975L733.7980809375,957.6672975Q733.7225209375,957.9267575,733.7225209375,958.2207875L733.7225209375,1062.9731875Q733.7225209375,1063.4321875,733.9216409375,1063.8231875L731.9807109375,1063.8231875Q731.6108709375,1063.8231875,731.3493609375,1063.5611875Q731.2479509375,1063.4601875,731.1858709375,1063.3421875ZM730.0878909375,959.3671875L730.0878909375,1062.9301875Q730.0878909375,1063.3441875,730.2422709375,1063.6941875Q730.3724609375,1064.1281875,730.7179609375,1064.4741875Q731.2723509375,1065.0281875,732.0563509375,1065.0281875L808.5703109375,1065.0281875Q809.1105109375,1065.0281875,809.5693109375,1064.7431875Q809.9772109375,1064.4891875,810.2116109375,1064.0781875Q814.5807109375,1060.6221875,823.1207109375,1060.6221875Q826.1602109375,1060.6221875,829.5212109375,1061.1291875Q831.5812109375,1061.4401875,835.7692109375,1062.3151875Q840.6452109375,1063.3331875,843.5132109375,1063.7751875Q848.3702109375,1064.5251875,853.3822109375,1064.7411875Q867.2752109375,1065.3421875,885.1372109375,1064.7851875000001Q885.8772109375,1064.7621875,886.4042109375,1064.2491875Q886.4232109375,1064.2311875,886.4402109375001,1064.2131875Q886.4412109375,1064.2121875,886.4432109375,1064.2111875Q886.9842109374999,1063.6591875,886.9842109374999,1062.8921875L886.9842109374999,959.3671875L893.4582109375,959.3671875Q893.9812109375,959.3671875,894.3512109375,959.7371675Q894.7212109375,960.1070975,894.7212109375,960.6302575L894.7212109375,1068.6681875Q894.7212109375,1069.1911875,894.3512109375,1069.5611875Q893.9812109375,1069.9311875,893.4582109375,1069.9311875L727.3801109375,1069.9311875Q726.8567609375,1069.9311875,726.4867109375,1069.5611875Q726.1167009375,1069.1911875,726.1167009375,1068.6681875L726.1167009375,960.6302575Q726.1167009375,960.1071075,726.4867109375,959.7371675Q726.8567609375,959.3671875,727.3801109375,959.3671875L730.0878909375,959.3671875ZM808.5303109375,1064.0281875L735.6752109375,1064.0281875C735.6084109375,1063.9361875,735.5107109375,1063.8681875,735.3949109375,1063.8381875Q735.0982009375,1063.7631875,734.9103509375,1063.5211875Q734.7225209375,1063.2791875,734.7225209375,1062.9731875L734.7225209375,958.2207875Q734.7225209375,957.9004075,734.9127809375,957.6670175L808.5303109375,957.5691675L808.5303109375,1064.0281875ZM885.7102109375,1063.5291875Q885.7182109375,1063.5211875,885.7262109375,1063.5131875Q885.7282109375,1063.5121875,885.7292109375,1063.5101875Q885.9822109375,1063.2511875,885.9822109375,1062.8951875L885.9822109375,958.8671875C885.9822109375,958.8494775,885.9832109375,958.8319875,885.9842109374999,958.8147575L885.9842109374999,958.5519675Q885.9842109374999,958.1710675,885.7152109374999,957.9080775Q885.4472109375,957.6460075,885.0702109375,957.6577075Q867.2512109375,958.2111375,853.3842109375,957.6114475Q848.3722109375,957.3946875,843.5152109375,956.6451875Q840.6482109375,956.2027275,835.7722109375,955.1847475Q831.5832109375,954.3103475,829.5242109375,953.9995275Q826.1632109375,953.4921875,823.1234109375,953.4921875Q813.8880109375,953.4921875,809.5303109375,957.5344275L809.5303109375,1063.3421875Q814.1745109375,1059.6201875,823.1234109375,1059.6201875Q826.2382109375,1059.6201875,829.6732109375,1060.1381875Q831.7612109375,1060.4531875,835.9762109375,1061.3331875Q840.8272109375,1062.3461875,843.6682109375,1062.7841875Q848.4712109375,1063.5251875,853.4282109375,1063.7401875Q867.2842109375,1064.3391875,885.1092109374999,1063.7831875Q885.4592109375,1063.7721875,885.7102109375,1063.5291875Z" fill-rule="evenodd" transform="matrix(-.91715 .39836 .39899 .91704 1010.123 -209.834)" fill="#191919"></path><path d="M797.2964259375,1135.8962625L801.5719359375,1127.0199625C801.7254359375,1126.9510625,801.8323359375,1126.7968625,801.8323359375,1126.6176625L801.8324359375,1046.8272825C801.8324359375,1046.6493025,801.7254359375,1046.4887725,801.5611359375,1046.4203225L797.7265959375,1044.8229613C797.6728759375,1044.8005827,797.6152559375,1044.7890625,797.5570659375,1044.7890625C797.5429759375,1044.7890625,797.5290459375,1044.789723573,797.5152959375,1044.79101575L792.5941759375,1044.79101564C792.5272659375,1044.79101563,792.4638459375,1044.8059203,792.4070359375,1044.8325906L788.5906649375,1046.4223925C788.4263639375,1046.4908425,788.3193359375,1046.6513625,788.3193359375,1046.8293525L788.31933399072,1126.6154625L788.31933399062,1126.6196625C788.31933398924,1126.6778625,788.3308534375,1126.7354625,788.3532279375,1126.7892625C788.3617667375,1126.8097625,788.3716738375,1126.8292625,788.3827989375,1126.8476625L792.7500059375,1135.9159625C792.7535359375,1135.9246625,792.7573559375,1135.9333625,792.7614759375,1135.9418625L794.3839859375,1139.3103624999999Q794.5763059375,1139.7096625,795.0194759375,1139.7096625Q795.4626559375,1139.7096625,795.6549759375,1139.3103624999999L796.3470959375,1137.8734625L797.2775359375,1135.9417625C797.2847359375,1135.9268625,797.2910259375,1135.9116625,797.2964259375,1135.8962625ZM797.1155259375,1045.6727305L793.0355759375,1045.6727295L793.0365559375,1124.5810625L797.1166759375,1124.5810625L797.1155259375,1045.6727305ZM800.8374359375,1118.8188625C800.8374359375,1118.7055625,800.8802359375,1118.6022625,800.9506359375,1118.5242625L800.9507359375,1047.1212125L797.9979359375,1045.8911525L797.9991859375,1124.7260625L800.8366359375,1125.9087625L800.8374359375,1118.8188625ZM792.1533259375,1045.8934425L792.1545759375,1124.7282625L789.2010479375,1125.9584625L789.2010499375,1047.1232825L792.1533259375,1045.8934425ZM792.6841159375,1125.4627625L797.4748059375,1125.4627625L800.6965359375,1126.8055625L796.7094259375,1135.0831625Q795.8753559375,1134.5526625,795.0194959375,1134.5527625Q794.1627659375,1134.5527625,793.3278759375,1135.0842625L789.3603259375,1126.8472625L792.6841159375,1125.4627625Z" fill-rule="evenodd" transform="matrix(.91712 -.39843 -.39917 -.91696 482.384 2316.912)" fill="#191919"></path><path d="M556.4237706542968,1058.337848515625Q560.9064706542969,1062.873778515625,563.3277706542968,1068.846078515625Q565.7490706542969,1074.818378515625,565.6896706542968,1081.192378515625Q565.6321706542968,1087.349378515625,563.2796706542969,1093.031978515625Q560.9267706542969,1098.715678515625,556.6421706542969,1103.044778515625Q552.2053706542969,1107.527778515625,546.3225706542969,1109.908278515625Q540.4397706542969,1112.288878515625,534.1308706542969,1112.154278515625Q528.0384706542968,1112.024278515625,522.3895706542969,1109.578678515625Q516.7418706542969,1107.133478515625,512.4118706542969,1102.751878515625Q507.9853706542969,1098.272778515625,505.56887065429686,1092.393078515625L502.33747065429685,1093.756078515625Q501.97327065429687,1093.909678515625,501.6085706542969,1093.970478515625L500.76598065429687,1094.325878515625Q498.1871706542969,1095.413578515625,495.5933806542969,1094.359678515625Q492.9996006542969,1093.305778515625,491.91023265429686,1090.727578515625Q490.8208806542969,1088.149378515625,491.87407665429686,1085.557178515625Q492.92728065429685,1082.964978515625,495.5060906542969,1081.877278515625L503.19007065429685,1078.636178515625Q503.40307065429687,1074.228278515625,504.81007065429685,1070.058478515625Q506.2396706542969,1065.821878515625,508.7885706542969,1062.160378515625Q511.3379706542969,1058.4983585156251,514.7952706542969,1055.715708515625Q518.3214706542968,1052.877638515625,522.5130706542968,1051.181438515625Q528.3959706542969,1048.800885515625,534.7048706542969,1048.935458185625Q540.7971706542969,1049.065412515625,546.4460706542968,1051.511088515625Q552.0937706542969,1053.956298515625,556.4237706542968,1058.337848515625ZM506.49027065429686,1092.004478515625L512.4618706542968,1089.485578515625Q513.0293706542968,1090.395178515625,513.6742706542968,1091.254178515625Q514.9800706542969,1093.001378515625,516.5679706542969,1094.491278515625Q519.6648706542969,1097.414978515625,523.5748706542969,1099.132478515625Q528.2044706542969,1101.165978515625,533.2120706542969,1101.173778515625Q537.8253706542969,1101.180978515625,542.0854706542968,1099.457078515625Q542.9183706542968,1099.120078515625,543.7148706542969,1098.726078515625Q547.2558706542969,1096.978778515625,550.0472706542969,1094.136578515625Q552.0307706542969,1092.116878515625,553.4734706542969,1089.714278515625Q554.4324706542968,1088.119078515625,555.1521706542969,1086.354378515625Q555.8308706542969,1084.689978515625,556.2569706542969,1082.972278515625Q556.9639706542969,1080.128278515625,556.9806706542969,1077.138178515625Q557.0049706542968,1072.792678515625,555.5607706542969,1068.681778515625Q555.3555706542969,1068.096578515625,555.1206706542969,1067.517078515625Q554.9094706542969,1066.995978515625,554.6776706542969,1066.488378515625Q552.8425706542969,1062.461978515625,549.7538706542969,1059.313078515625Q546.3941706542969,1055.887888515625,542.0210706542969,1053.967008515625Q537.6461706542968,1052.045348515625,532.9342706542968,1051.926678515625Q528.0539706542969,1051.803768515625,523.5104706542969,1053.642358515625Q522.6813706542969,1053.977888515625,521.8865706542969,1054.371688515625Q518.6062706542968,1055.993168515625,515.9431706542969,1058.579578515625Q512.9564706542968,1061.480278515625,511.13387065429686,1065.205578515625Q508.5546706542969,1070.378478515625,508.6214706542969,1076.344778515625L504.2161706542969,1078.202878515625Q504.4724706542969,1074.187778515625,505.7578706542969,1070.378378515625Q507.14197065429687,1066.276478515625,509.6097706542969,1062.731678515625Q512.0771706542969,1059.187278515625,515.4227706542969,1056.494528515625Q518.8339706542969,1053.749008515625,522.8888706542969,1052.108168515625Q528.5808706542969,1049.804819515625,534.6839706542969,1049.934998515625Q540.5801706542969,1050.060768515625,546.0488706542969,1052.428468515625Q551.5186706542969,1054.796628515625,555.7123706542968,1059.040278515625Q560.0545706542969,1063.434078515625,562.4007706542968,1069.221178515625Q564.7470706542969,1075.008378515625,564.6894706542969,1081.182578515625Q564.6338706542969,1087.145778515625,562.3554706542968,1092.649278515625Q560.0775706542969,1098.151878515625,555.9309706542969,1102.341478515625Q551.6388706542969,1106.678178515625,545.9468706542968,1108.981578515625Q540.2547706542969,1111.284878515625,534.1516706542968,1111.154778515625Q528.2555706542969,1111.028978515625,522.7867706542969,1108.661278515625Q517.3169706542968,1106.293078515625,513.1232706542969,1102.049478515625Q508.8321706542969,1097.707278515625,506.49027065429686,1092.004478515625ZM513.3701706542969,1063.302478515625Q514.1764706542968,1062.053578515625,515.0968706542968,1060.948678515625Q515.8231706542969,1060.090478515625,516.6403706542969,1059.296778515625Q519.8080706542969,1056.220318515625,523.8869706542969,1054.569768515625Q527.9657706542969,1052.919228515625,532.3835706542968,1052.926128515625Q537.1817706542969,1052.933628515625,541.6196706542969,1054.882948515625Q546.0595706542969,1056.833148515625,549.4081706542969,1060.405978515625Q552.1224706542969,1063.302078515625,553.7651706542969,1066.897578515625Q553.9887706542969,1067.387778515625,554.1929706542969,1067.891478515625Q554.4204706542969,1068.452678515625,554.6190706542968,1069.018378515625Q555.9046706542969,1072.689178515625,555.9717706542968,1076.595378515625Q556.0265706542968,1079.785178515625,555.2682706542969,1082.802178515625Q554.8622706542969,1084.413578515625,554.2251706542969,1085.975878515625Q553.5509706542969,1087.629178515625,552.6586706542969,1089.127478515625Q551.1286706542969,1091.693478515625,548.9562706542969,1093.803378515625Q546.4119706542969,1096.274278515625,543.2799706542969,1097.825378515625Q542.5128706542969,1098.204378515625,541.7090706542969,1098.529678515625Q537.8256706542969,1100.101178515625,533.6384706542968,1100.168878515625Q529.5689706542969,1100.234778515625,525.6793706542969,1098.877978515625Q521.7880706542969,1097.520678515625,518.5699706542969,1094.911778515625Q517.8870706542968,1094.358078515625,517.2511706542969,1093.761278515625Q516.7067706542969,1093.247178515625,516.1884706542969,1092.694178515625Q515.2702706542968,1091.714478515625,514.4746706542969,1090.654678515625Q513.7133706542969,1089.635978515625,513.0518706542969,1088.526078515625L512.8578706542969,1088.200478515625Q512.0348706542969,1086.766578515625,511.4029706542969,1085.207978515625Q509.70227065429685,1081.013278515625,509.6248706542969,1076.504778515625Q509.54077065429686,1071.610978515625,511.37077065429685,1067.123578515625Q511.67057065429685,1066.388378515625,512.0136706542969,1065.683878515625Q512.6160706542969,1064.470378515625,513.3701706542969,1063.302478515625ZM554.1604706542969,1076.332478515625Q554.1601706542968,1080.368578515625,552.6742706542968,1084.121278515625Q551.0609706542969,1088.196078515625,547.9621706542969,1091.295078515625Q544.8632706542969,1094.394178515625,540.7887706542969,1096.007578515625Q537.0360706542969,1097.493578515625,533.0001706542969,1097.493878515625Q528.9642706542969,1097.494178515625,525.2118706542968,1096.008778515625Q521.1375706542968,1094.395978515625,518.0391706542969,1091.297478515625Q514.9408706542969,1088.198878515625,513.3281706542969,1084.124378515625Q511.8429706542969,1080.371878515625,511.8432706542969,1076.335878515625Q511.84357065429685,1072.299778515625,513.3294706542969,1068.546978515625Q514.9427706542969,1064.472278515625,518.0415706542968,1061.373178515625Q521.1404706542969,1058.274158515625,525.2149706542968,1056.660708515625Q528.9676706542969,1055.174718515625,533.0035706542968,1055.174398515625Q537.0394706542969,1055.174078515625,540.7918706542969,1056.659468515625Q544.8661706542969,1058.272278515625,547.9645706542968,1061.370878515625Q551.0628706542968,1064.469378515625,552.6755706542968,1068.543878515625Q554.1607706542969,1072.296378515625,554.1604706542969,1076.332478515625ZM553.1602706542968,1076.332578515625Q553.1605706542969,1072.487078515625,551.7454706542969,1068.911778515625Q550.2089706542969,1065.029778515625,547.2570706542969,1062.077678515625Q544.3051706542968,1059.125578515625,540.4234706542969,1057.589048515625Q536.8484706542969,1056.173898515625,533.0034706542968,1056.174198515625Q529.1583706542968,1056.174508515625,525.5832706542968,1057.590228515625Q521.7012706542969,1059.127378515625,518.7489706542968,1062.079978515625Q515.7965706542968,1065.032578515625,514.2594706542968,1068.914778515625Q512.8437706542969,1072.490378515625,512.8434706542969,1076.335778515625Q512.8431706542968,1080.181178515625,514.2582706542969,1083.756478515625Q515.7947706542968,1087.638478515625,518.7466706542968,1090.590578515625Q521.6985706542969,1093.542678515625,525.5802706542969,1095.079278515625Q529.1551706542969,1096.494378515625,533.0002706542969,1096.494078515625Q536.8452706542969,1096.493778515625,540.4204706542969,1095.078078515625Q544.3023706542969,1093.540878515625,547.2547706542969,1090.588378515625Q550.2071706542969,1087.635778515625,551.7442706542969,1083.753478515625Q553.1599706542969,1080.177978515625,553.1602706542968,1076.332578515625ZM522.4319706542968,1066.425378515625Q524.4671706542969,1064.380678515625,527.1607706542969,1063.290678515625C527.4167706542969,1063.187078515625,527.7083706542969,1063.310578515625,527.8121706542969,1063.566478515625C527.9158706542969,1063.822378515625,527.7924706542968,1064.113878515625,527.5365706542968,1064.2173785156251Q525.0322706542969,1065.230778515625,523.1411706542968,1067.130678515625Q521.3139706542969,1068.966478515625,520.3062706542969,1071.373778515625Q519.2982706542969,1073.781778515625,519.2666706542968,1076.387678515625Q519.2339706542969,1079.084978515625,520.2576706542968,1081.610778515625L520.2581706542969,1081.612078515625C520.3619706542969,1081.867978515625,520.2385706542968,1082.159378515625,519.9825706542969,1082.262978515625C519.7265706542969,1082.366578515625,519.4349706542969,1082.243078515625,519.3311706542969,1081.987178515625Q518.2313706542968,1079.274278515625,518.2664706542969,1076.375078515625Q518.3004706542969,1073.574778515625,519.3834706542968,1070.987578515625Q520.4667706542969,1068.399778515625,522.4319706542968,1066.425378515625ZM523.3502706542969,1070.744678515625Q524.3601706542969,1068.853078515625,526.0379706542968,1067.495678515625C526.2525706542968,1067.321978515625,526.5666706542969,1067.355878515625,526.7395706542969,1067.571278515625C526.9123706542969,1067.786678515625,526.8785706542968,1068.102078515625,526.6639706542969,1068.275778515625Q525.1439706542968,1069.505578515625,524.2297706542969,1071.217878515625Q523.3464706542969,1072.872178515625,523.1462706542969,1074.748078515625Q522.9460706542968,1076.623978515625,523.4601706542969,1078.429978515625Q523.9921706542968,1080.299378515625,525.2180706542969,1081.827078515625C525.3909706542969,1082.042478515625,525.3571706542969,1082.357878515625,525.1424706542969,1082.531478515625C524.9278706542968,1082.705178515625,524.6137706542969,1082.671278515625,524.4408706542969,1082.455878515625Q523.0881706542968,1080.770178515625,522.5005706542969,1078.705578515625Q521.9330706542969,1076.711878515625,522.1539706542969,1074.641678515625Q522.3749706542969,1072.571378515625,523.3502706542969,1070.744678515625ZM540.2337706542969,1069.034578515625C540.4484706542969,1068.860878515625,540.7625706542968,1068.894778515625,540.9353706542969,1069.110178515625Q542.2880706542969,1070.795878515625,542.8757706542968,1072.860478515625Q543.4430706542969,1074.853778515625,543.2223706542969,1076.923378515625C543.2081706542969,1077.056678515625,543.1422706542969,1077.177778515625,543.0391706542969,1077.261278515625C542.8244706542969,1077.434978515625,542.5103706542968,1077.401078515625,542.3375706542969,1077.185678515625C542.2545706542969,1077.082278515625,542.2158706542969,1076.950078515625,542.2299706542968,1076.818078515625L542.2303706542968,1076.814378515625Q542.4296706542968,1074.940378515625,541.9161706542968,1073.136178515625Q541.3840706542969,1071.266778515625,540.1581706542969,1069.739078515625C539.9853706542968,1069.523578515625,540.0191706542969,1069.208178515625,540.2337706542969,1069.034578515625ZM545.1555706542969,1070.997678515625C545.4115706542968,1070.894078515625,545.7031706542969,1071.017578515625,545.8068706542969,1071.273478515625Q546.9067706542969,1073.986378515625,546.8715706542969,1076.885578515625Q546.8376706542969,1079.685278515625,545.7550706542969,1082.271978515625L544.8318706542968,1081.886878515625L544.8326706542969,1081.884978515625Q545.8398706542969,1079.477878515625,545.8714706542969,1076.872978515625Q545.9041706542969,1074.174978515625,544.8798706542968,1071.648578515625C544.7761706542968,1071.392678515625,544.8995706542969,1071.101278515625,545.1555706542969,1070.997678515625ZM499.9187506542969,1088.031878515625L509.8246706542969,1083.790078515625Q508.8252706542969,1080.683278515625,508.6556706542969,1077.415678515625L495.8953006542969,1082.798378515625Q493.69813065429685,1083.725178515625,492.80081065429687,1085.933778515625Q491.9034726542969,1088.142278515625,492.83161065429687,1090.338978515625Q493.75975065429685,1092.535578515625,495.96969065429687,1093.433478515625Q497.8347806542969,1094.191378515625,499.6908006542969,1093.649478515625Q498.7079306542969,1093.149178515625,498.2652706542969,1092.101578515625Q497.7643506542969,1090.915978515625,498.2486406542969,1089.724078515625Q498.7329406542969,1088.532078515625,499.9187506542969,1088.031878515625ZM511.5918706542969,1088.673678515625L510.82117065429685,1086.394978515625Q510.64227065429685,1085.993178515625,510.4759706542969,1085.583078515625Q510.31637065429686,1085.189378515625,510.1704706542969,1084.792978515625L500.30797065429687,1088.952978515625Q499.5038106542969,1089.292178515625,499.1753806542969,1090.100578515625Q498.8469406542969,1090.908878515625,499.1866506542969,1091.712878515625Q499.52636065429687,1092.516878515625,500.33519065429687,1092.845478515625Q500.8424606542969,1093.051578515625,501.34789065429686,1092.995078515625L505.1663706542969,1091.384478515625L511.5918706542969,1088.673678515625Z" fill-rule="evenodd" fill="#191919"></path></g></symbol></defs><use xlink:href="#empty-task-detail-1"></use></svg>