<svg xmlns:xlink="http://www.w3.org/1999/xlink" xmlns="http://www.w3.org/2000/svg" class="icon-sidebar-completed-list w-full h-full text-sidebar-color" width="24"  height="24" ><defs><symbol xmlns="http://www.w3.org/2000/svg" viewBox="0 0 24 24" id="sidebar-completed-list" fill="#191919"><path d="M3,8L3,16C3,18.761423999999998,5.2385762,21,8,21L16,21C18.761423999999998,21,21,18.761423999999998,21,16L21,8C21,5.2385762,18.761423999999998,3,16,3L8,3C5.2385762,3,3,5.2385762,3,8ZM5.5251262,18.474871999999998Q4.5,17.449745,4.5,16L4.5,8Q4.5,6.5502524,5.5251262,5.5251262Q6.5502524,4.5,8,4.5L16,4.5Q17.449745,4.5,18.474871999999998,5.5251262Q19.5,6.550254600000001,19.5,8L19.5,16Q19.5,17.449742999999998,18.474871999999998,18.474871999999998Q17.449742999999998,19.5,16,19.5L8,19.5Q6.550254600000001,19.5,5.5251262,18.474871999999998ZM15.161304,7.7899909L11.2840328,14.505144L8.7156615,11.9367714C8.403241600000001,11.6243525,7.8967094,11.6243525,7.58429,11.9367723C7.4342613,12.0868015,7.3499756,12.2902851,7.3499756,12.5024576C7.3499756,12.7146301,7.4342613,12.9181137,7.5842905,13.068144L10.8392024,16.323054C10.8995438,16.395488,10.972213700000001,16.456684,11.0538578,16.503821000000002C11.436491,16.724735000000003,11.9257641,16.593636,12.146677,16.211001L16.546851,8.589991099999999C16.767765,8.2073569,16.636516999999998,7.7181315,16.253882,7.4972177C15.871247,7.2763038,15.382217,7.4073572,15.161304,7.7899909Z" fill-rule="evenodd" fill="#191919"></path></symbol></defs><use xlink:href="#sidebar-completed-list"></use></svg>