<svg xmlns:xlink="http://www.w3.org/1999/xlink" xmlns="http://www.w3.org/2000/svg" class="icon-date-unselected text-grey-60 flex-none" style="width: 18px; height: 18px;" width="24"  height="24" ><defs><symbol xmlns="http://www.w3.org/2000/svg" viewBox="0 0 24 24" id="date-unselected" fill="#191919"><path d="M3,8L3,16C3,18.761423999999998,5.2385762,21,8,21L16,21C18.761423999999998,21,21,18.761423999999998,21,16L21,8C21,5.2385762,18.761423999999998,3,16,3L8,3C5.2385762,3,3,5.2385762,3,8ZM5.5251262,18.474871999999998Q4.5,17.449745,4.5,16L4.5,8L19.5,8L19.5,16Q19.5,17.449742999999998,18.474871999999998,18.474871999999998Q17.449742999999998,19.5,16,19.5L8,19.5Q6.550254600000001,19.5,5.5251262,18.474871999999998ZM19.174026,6.5Q18.921929,5.9721839,18.474871999999998,5.5251262Q17.449745,4.5,16,4.5L8,4.5Q6.5502524,4.5,5.5251262,5.5251262Q5.0780674999999995,5.9721849,4.8259716,6.5L19.174026,6.5ZM7.583333,10.5Q7.5012569,10.5,7.4207578,10.516012199999999Q7.3402586,10.532024400000001,7.26443,10.5634327Q7.1886015,10.594842,7.1203575,10.6404409Q7.0521135,10.6860399,6.9940771999999996,10.7440767Q6.9360406,10.8021131,6.8904414,10.870356600000001Q6.8448424,10.9386005,6.8134332,11.0144291Q6.7820239,11.0902576,6.766012,11.1707573Q6.749999799999999,11.2512569,6.75,11.333333Q6.749999799999999,11.4154091,6.766012,11.4959068Q6.7820239,11.5764065,6.8134332,11.652235Q6.8448424,11.7280636,6.8904414,11.7963076Q6.9360406,11.8645515,6.9940771999999996,11.9225883Q7.0521135,11.9806242,7.1203575,12.0262232Q7.1886015,12.0718222,7.26443,12.1032314Q7.3402586,12.1346416,7.4207578,12.1506538Q7.5012569,12.166666,7.583333,12.166666L8.4166665,12.166666Q8.498742100000001,12.166666,8.5792418,12.1506538Q8.6597404,12.1346416,8.735569,12.1032314Q8.8113976,12.0718222,8.8796411,12.0262232Q8.9478846,11.9806242,9.0059218,11.9225883Q9.0639582,11.8645515,9.109557200000001,11.7963076Q9.1551561,11.7280636,9.1865654,11.652235Q9.2179747,11.5764065,9.233987299999999,11.4959068Q9.249999500000001,11.4154091,9.25,11.333333Q9.249999500000001,11.2512569,9.2339869,11.1707573Q9.2179747,11.0902576,9.1865654,11.0144291Q9.1551561,10.9386005,9.109557200000001,10.870356600000001Q9.0639582,10.8021131,9.0059218,10.7440767Q8.9478846,10.6860399,8.8796406,10.6404409Q8.8113976,10.594842,8.735569,10.5634327Q8.6597404,10.532024400000001,8.5792418,10.516012199999999Q8.498742100000001,10.5,8.4166665,10.5L7.583333,10.5ZM11.583333,10.5Q11.5012569,10.5,11.4207582,10.516012199999999Q11.3402586,10.532024400000001,11.26443,10.5634327Q11.1886015,10.594842,11.1203575,10.6404409Q11.0521135,10.6860399,10.9940772,10.7440767Q10.9360399,10.8021131,10.8904409,10.870356600000001Q10.844842,10.9386005,10.8134327,11.0144291Q10.7820234,11.0902576,10.766011200000001,11.1707573Q10.749999500000001,11.2512569,10.75,11.333333Q10.749999500000001,11.4154091,10.7660117,11.4959068Q10.7820234,11.5764065,10.8134327,11.652235Q10.844842,11.7280636,10.8904409,11.7963076Q10.9360399,11.8645515,10.9940772,11.9225883Q11.0521135,11.9806242,11.1203575,12.0262232Q11.1886005,12.0718222,11.2644291,12.1032314Q11.3402576,12.1346416,11.4207573,12.1506538Q11.5012569,12.166666,11.583333,12.166666L12.416666,12.166666Q12.4987421,12.166666,12.5792408,12.1506538Q12.6597404,12.1346416,12.735568,12.1032314Q12.8113966,12.0718222,12.8796406,12.0262232Q12.9478846,11.9806242,13.005921,11.9225883Q13.063958,11.8645515,13.109557,11.7963076Q13.155156,11.7280636,13.186565,11.652235Q13.217976,11.5764065,13.233988,11.4959068Q13.25,11.4154091,13.25,11.333333Q13.25,11.2512569,13.233988,11.1707573Q13.217976,11.0902576,13.186565,11.0144291Q13.155156,10.9386005,13.109557,10.870356600000001Q13.063958,10.8021131,13.005921,10.7440767Q12.9478846,10.6860399,12.8796406,10.6404409Q12.8113966,10.594842,12.735568,10.5634327Q12.6597404,10.532024400000001,12.5792408,10.516012199999999Q12.4987421,10.5,12.416666,10.5L11.583333,10.5ZM15.583333,10.5Q15.501257,10.5,15.420757,10.516012199999999Q15.340258,10.532024400000001,15.264429,10.5634327Q15.188601,10.594842,15.120358,10.6404409Q15.052113,10.6860399,14.994077,10.7440767Q14.93604,10.8021131,14.890441,10.870356600000001Q14.844841,10.9386005,14.813433,11.0144291Q14.782024,11.0902576,14.766012,11.1707573Q14.75,11.2512569,14.75,11.333333Q14.75,11.4154091,14.766011,11.4959068Q14.782024,11.5764065,14.813433,11.652235Q14.844841,11.7280636,14.89044,11.7963076Q14.93604,11.8645515,14.994077,11.9225883Q15.052113,11.9806242,15.120357,12.0262232Q15.188601,12.0718222,15.264429,12.1032314Q15.340258,12.1346416,15.420757,12.1506538Q15.501257,12.166666,15.583333,12.166666L16.416666,12.166666Q16.498742,12.166666,16.579241,12.1506538Q16.65974,12.1346416,16.735568,12.1032314Q16.811397,12.0718222,16.879641,12.0262232Q16.947885,11.9806242,17.005921,11.9225883Q17.063957000000002,11.8645515,17.109555999999998,11.7963076Q17.155155,11.7280636,17.186564,11.652235Q17.217973999999998,11.5764065,17.233987,11.4959068Q17.249999000000003,11.4154091,17.25,11.333333Q17.249999000000003,11.2512569,17.233986,11.1707573Q17.217973999999998,11.0902576,17.186565,11.0144291Q17.155155,10.9386005,17.109555999999998,10.870356600000001Q17.063957000000002,10.8021131,17.005921,10.7440767Q16.947885,10.6860399,16.879641,10.6404409Q16.811397,10.594842,16.735568,10.5634327Q16.65974,10.532024400000001,16.579241,10.516012199999999Q16.498742,10.5,16.416666,10.5L15.583333,10.5ZM7.583333,14.5Q7.5012569,14.5,7.4207578,14.516012Q7.3402586,14.532024,7.26443,14.563434Q7.1886015,14.594842,7.1203575,14.640441Q7.0521135,14.68604,6.9940771999999996,14.744077Q6.9360406,14.802113,6.8904414,14.870358Q6.8448424,14.938601,6.8134332,15.014429Q6.7820239,15.090258,6.766012,15.170757Q6.749999799999999,15.251257,6.75,15.333333Q6.749999799999999,15.415409,6.766012,15.495907Q6.7820239,15.576406,6.8134332,15.652234Q6.8448424,15.728062,6.8904414,15.796307Q6.9360406,15.86455,6.9940771999999996,15.922587Q7.0521135,15.980623,7.1203575,16.026222Q7.1886015,16.071821,7.26443,16.10323Q7.3402586,16.134639999999997,7.4207578,16.150652Q7.5012569,16.166666,7.583333,16.166666L8.4166665,16.166666Q8.498742100000001,16.166666,8.5792418,16.150653Q8.6597404,16.134641000000002,8.735569,16.103231Q8.8113976,16.071821,8.8796411,16.026222Q8.9478846,15.980623,9.0059218,15.922587Q9.0639582,15.86455,9.109557200000001,15.796306Q9.1551561,15.728062,9.1865654,15.652233Q9.2179747,15.576405,9.233987299999999,15.495907Q9.249999500000001,15.415409,9.25,15.333333Q9.249999500000001,15.251257,9.2339869,15.170757Q9.2179747,15.090258,9.1865654,15.014429Q9.1551561,14.938601,9.109557200000001,14.870358Q9.0639582,14.802113,9.0059218,14.744077Q8.9478846,14.68604,8.8796406,14.64044Q8.8113976,14.594841,8.735569,14.563433Q8.6597404,14.532024,8.5792418,14.516012Q8.498742100000001,14.5,8.4166665,14.5L7.583333,14.5ZM11.583333,14.5Q11.5012569,14.5,11.4207582,14.516012Q11.3402586,14.532024,11.26443,14.563434Q11.1886015,14.594842,11.1203575,14.640441Q11.0521135,14.68604,10.9940772,14.744077Q10.9360399,14.802113,10.8904409,14.870358Q10.844842,14.938601,10.8134327,15.014429Q10.7820234,15.090258,10.766011200000001,15.170757Q10.749999500000001,15.251257,10.75,15.333333Q10.749999500000001,15.415409,10.7660117,15.495907Q10.7820234,15.576406,10.8134327,15.652234Q10.844842,15.728062,10.8904409,15.796307Q10.9360399,15.86455,10.9940772,15.922587Q11.0521135,15.980623,11.1203575,16.026222Q11.1886005,16.071821,11.2644291,16.10323Q11.3402576,16.134639999999997,11.4207573,16.150652Q11.5012569,16.166666,11.583333,16.166666L12.416666,16.166666Q12.4987421,16.166666,12.5792408,16.150653Q12.6597404,16.134641000000002,12.735568,16.103231Q12.8113966,16.071821,12.8796406,16.026222Q12.9478846,15.980623,13.005921,15.922587Q13.063958,15.86455,13.109557,15.796306Q13.155156,15.728062,13.186565,15.652233Q13.217976,15.576405,13.233988,15.495907Q13.25,15.415409,13.25,15.333333Q13.25,15.251257,13.233988,15.170757Q13.217976,15.090258,13.186565,15.014429Q13.155156,14.938601,13.109557,14.870358Q13.063958,14.802113,13.005921,14.744077Q12.9478846,14.68604,12.8796406,14.64044Q12.8113966,14.594841,12.735568,14.563433Q12.6597404,14.532024,12.5792408,14.516012Q12.4987421,14.5,12.416666,14.5L11.583333,14.5Z" fill-rule="evenodd" fill="#191919"></path></symbol></defs><use xlink:href="#date-unselected"></use></svg>