<svg xmlns:xlink="http://www.w3.org/1999/xlink" xmlns="http://www.w3.org/2000/svg" class="icon-calendar-sidebar w-[28px] h-[28px] text-grey whiteSvg_2wUcK opacity-40 hover:opacity-60" width="32"  height="32" ><defs><symbol xmlns="http://www.w3.org/2000/svg" viewBox="0 0 32 32" id="calendar-sidebar" fill="#191919"><path d="M9.500001000000001,5L22.5,5C24.985281,5,27,7.0147188,27,9.500000499999999L27,9.583252L5,9.583252L5,9.500001000000001C5,7.0147188,7.0147188,5,9.500001000000001,5ZM5,10.958252L27,10.958252L27,22.5C27,24.985281,24.985281,27,22.5,27L9.500001000000001,27C7.0147188,27,5,24.985281,5,22.5L5,10.958252ZM10.6017256,16.661987C10.039213199999999,16.661987,9.5830078,16.206007,9.5830078,15.643494C9.5830078,15.080982,10.039213199999999,14.625,10.6017256,14.625L11.6204429,14.625C12.182954800000001,14.625,12.6382651,15.080982,12.6382651,15.643494C12.6382651,16.206007,12.182954800000001,16.661987,11.6204429,16.661987L10.6017256,16.661987ZM15.490316,16.661987C14.927803,16.661987,14.4715986,16.206007,14.4715986,15.643494C14.4715986,15.080982,14.927803,14.625,15.490316,14.625L16.509033000000002,14.625C17.071545,14.625,17.527751000000002,15.080982,17.527751000000002,15.643494C17.527751000000002,16.206007,17.071545,16.661987,16.509033000000002,16.661987L15.490316,16.661987ZM20.378906,16.661987C19.816392999999998,16.661987,19.361083999999998,16.206007,19.361083999999998,15.643494C19.361083999999998,15.080982,19.816392999999998,14.625,20.378906,14.625L21.397625,14.625C21.960136,14.625,22.416342,15.080982,22.416342,15.643494C22.416342,16.206007,21.960136,16.661987,21.397625,16.661987L20.378906,16.661987ZM10.6017256,21.551025C10.039213199999999,21.551025,9.5830078,21.09482,9.5830078,20.532308999999998C9.5830078,19.969794999999998,10.039213199999999,19.513815,10.6017256,19.513815L11.6204429,19.513815C12.182954800000001,19.513815,12.6382651,19.969794999999998,12.6382651,20.532308999999998C12.6382651,21.09482,12.182954800000001,21.551025,11.6204429,21.551025L10.6017256,21.551025ZM15.490316,21.551025C14.927803,21.551025,14.4715986,21.09482,14.4715986,20.532308999999998C14.4715986,19.969794999999998,14.927803,19.513815,15.490316,19.513815L16.509033000000002,19.513815C17.071545,19.513815,17.527751000000002,19.969794999999998,17.527751000000002,20.532308999999998C17.527751000000002,21.09482,17.071545,21.551025,16.509033000000002,21.551025L15.490316,21.551025Z" fill-rule="evenodd" fill="#191919"></path></symbol></defs><use xlink:href="#calendar-sidebar"></use></svg>