<svg xmlns:xlink="http://www.w3.org/1999/xlink" xmlns="http://www.w3.org/2000/svg" class="icon-search-sidebar w-[28px] h-[28px] text-grey whiteSvg_2wUcK opacity-40 hover:opacity-60" width="28"  height="28" ><defs><symbol xmlns="http://www.w3.org/2000/svg" viewBox="0 0 28 28" id="search-sidebar" fill="#191919"><path d="M20.135061079040526,17.791157811798094Q20.512866079040528,17.245527811798098,20.804051079040526,16.649155811798096Q21.095237079040526,16.052784811798098,21.293143079040526,15.419316811798096Q21.491050079040527,14.785848811798095,21.591147079040528,14.129778811798095Q21.691245079040527,13.473706711798096,21.691245079040527,12.810043811798096Q21.691245079040527,12.595243911798097,21.68070507904053,12.380701511798096Q21.670165079040526,12.166160111798096,21.649112079040528,11.952394011798095Q21.628058079040528,11.738627411798095,21.59653907904053,11.526151611798095Q21.565020079040526,11.313675911798097,21.523116079040527,11.103002511798095Q21.481210079040526,10.892329711798094,21.429017079040527,10.683966611798095Q21.376826079040526,10.475603611798096,21.31447307904053,10.270052411798096Q21.252120079040527,10.064501311798097,21.179753079040527,9.862256511798096Q21.107390079040528,9.660012711798096,21.025189079040526,9.461562611798096Q20.94298807904053,9.263112511798095,20.85114907904053,9.068935911798096Q20.75931107904053,8.874758211798095,20.658053079040528,8.685321811798095Q20.556796079040527,8.495884411798095,20.44636807904053,8.311644111798095Q20.335938079040528,8.127403711798095,20.216601079040526,7.948803711798096Q20.097264079040528,7.770203611798095,19.969309079040528,7.597674411798096Q19.84135107904053,7.425145111798096,19.70508507904053,7.259102311798095Q19.568817079040528,7.093059311798095,19.424565079040526,6.933902711798096Q19.28031407904053,6.774745911798096,19.128428079040525,6.622859211798096Q18.97654107904053,6.470972511798095,18.817385079040527,6.3267212117980955Q18.658229079040527,6.182470111798096,18.49218607904053,6.046202211798096Q18.32614207904053,5.909934211798095,18.15361407904053,5.781977611798096Q17.981084079040528,5.654021111798095,17.802483079040528,5.534684411798096Q17.623883079040528,5.415347711798096,17.43964307904053,5.304918311798096Q17.25540207904053,5.194488811798095,17.06596607904053,5.093232611798095Q16.876529079040527,4.9919763817980956,16.682352079040527,4.900137301798096Q16.488174079040526,4.808298351798095,16.289724079040525,4.726097761798096Q16.09127507904053,4.643897231798095,15.889030079040527,4.571533201798096Q15.686787079040528,4.499169081798096,15.481235079040527,4.436815801798096Q15.275684079040527,4.374462511798096,15.067321079040527,4.322270271798096Q14.858958079040526,4.2700780317980955,14.648285079040527,4.228172571798096Q14.437612079040527,4.186267091798095,14.225137079040527,4.154749326798096Q14.012660979040527,4.123231567798095,13.798894879040528,4.102177444798095Q13.585128779040527,4.081123323798096,13.370587379040527,4.070583567798096Q13.156044979040526,4.060043811798096,12.941245079040527,4.060043811798096Q12.726445179040528,4.060043811798096,12.511902779040527,4.070583567798096Q12.297361379040527,4.081123323798096,12.083595279040527,4.102177444798095Q11.869828679040527,4.123231567798095,11.657352879040527,4.154749326798096Q11.444877179040528,4.186267091798095,11.234203779040527,4.228172571798096Q11.023530979040526,4.2700780317980955,10.815167879040526,4.322270271798096Q10.606804879040528,4.374462511798096,10.401253679040527,4.436815801798096Q10.195702579040528,4.499169081798096,9.993457779040527,4.571533141798096Q9.791213979040528,4.643897231798095,9.592763879040527,4.726097761798096Q9.394313779040527,4.808298351798095,9.200137179040528,4.900137301798096Q9.005959479040527,4.9919763817980956,8.816523079040527,5.093232611798095Q8.627085679040526,5.194488811798095,8.442845379040527,5.304918311798096Q8.258604979040527,5.415347711798096,8.080004979040528,5.534684411798096Q7.901404879040527,5.654021111798095,7.728875679040527,5.781977611798096Q7.556346379040527,5.909934211798095,7.390303579040527,6.046202211798096Q7.224260579040527,6.182470111798096,7.0651039790405274,6.3267212117980955Q6.905947179040528,6.470972511798095,6.754060479040527,6.622859211798096Q6.602173779040527,6.774745911798096,6.457922479040527,6.933902711798096Q6.313671379040527,7.093059311798095,6.177403479040527,7.259102311798095Q6.041135479040527,7.425145111798096,5.913178879040528,7.597674111798096Q5.785222379040527,7.770203611798095,5.665885679040527,7.948803411798096Q5.546548979040527,8.127403211798097,5.436119579040527,8.311644111798095Q5.325690079040527,8.495884411798095,5.224433879040527,8.685321811798095Q5.123177649040527,8.874758711798096,5.0313385690405275,9.068935911798096Q4.939499619040527,9.263113511798096,4.857299029040528,9.461563111798096Q4.775098499040527,9.660012711798096,4.702734469040528,9.862257011798096Q4.630370349040527,10.064501311798097,4.568017069040527,10.270052911798096Q4.505663779040527,10.475603611798096,4.453471539040527,10.683966611798095Q4.401279299040527,10.892329711798094,4.359373839040527,11.103003011798096Q4.317468359040527,11.313676311798096,4.285950594040528,11.526152111798096Q4.254432835040527,11.738627911798096,4.233378712040527,11.952394011798095Q4.212324591040527,12.166160111798096,4.201784835040527,12.380701511798096Q4.191245079040527,12.595243911798097,4.191245079040527,12.810043811798096Q4.191245079040527,13.024843711798095,4.201784835040527,13.239386111798096Q4.212324591040527,13.453927511798096,4.233378712040527,13.667693611798096Q4.254432835040527,13.881458711798096,4.285950594040528,14.093934811798096Q4.317468359040527,14.306410811798095,4.359373839040527,14.517082811798096Q4.401279299040527,14.727754811798096,4.453471539040527,14.936117811798095Q4.505663779040527,15.144481811798096,4.568017069040527,15.350032811798096Q4.630370349040527,15.555584811798095,4.702734409040527,15.757827811798096Q4.775098499040527,15.960071811798096,4.857299029040528,16.158521811798096Q4.939499619040527,16.356971811798097,5.0313385690405275,16.551149811798098Q5.123177649040527,16.745327811798095,5.224433879040527,16.934764811798097Q5.325690079040527,17.124200811798097,5.436119579040527,17.308441811798097Q5.546548979040527,17.492681811798096,5.665885679040527,17.671281811798096Q5.785222379040527,17.849882811798096,5.913178879040528,18.022411811798094Q6.041135479040527,18.194940811798098,6.177403479040527,18.360984811798097Q6.313671379040527,18.527027811798096,6.457922479040527,18.686184811798096Q6.602173779040527,18.845339811798098,6.754060479040527,18.997226811798093Q6.905947179040528,19.149112811798098,7.0651039790405274,19.293364811798096Q7.224260579040527,19.437615811798096,7.390303579040527,19.573883811798098Q7.556346379040527,19.710149811798097,7.728875379040527,19.838106811798095Q7.901404879040527,19.966062811798096,8.080004679040528,20.085399811798094Q8.258604479040528,20.204736811798096,8.442845379040527,20.315166811798097Q8.627085679040526,20.425594811798096,8.816523079040527,20.526851811798096Q9.005959979040528,20.628109811798097,9.200137179040528,20.719947811798097Q9.394314779040528,20.811786811798097,9.592764379040528,20.893987811798095Q9.791213979040528,20.976188811798096,9.993458279040528,21.048551811798095Q10.195702579040528,21.120916811798097,10.401254179040528,21.183269811798095Q10.606804879040528,21.245622811798096,10.815167879040526,21.297815811798095Q11.023530979040526,21.350006811798096,11.234204279040528,21.391912811798097Q11.444877579040527,21.433818811798094,11.657353379040527,21.465336811798096Q11.869829179040527,21.496856811798096,12.083595279040527,21.517910811798096Q12.297361379040527,21.538963811798094,12.511902779040527,21.549503811798097Q12.726445179040528,21.560043811798096,12.941245079040527,21.560043811798096Q13.559981379040527,21.560043811798096,14.172562579040527,21.472973811798095Q14.785142079040527,21.385904811798095,15.379374079040527,21.213497811798096Q15.973607079040526,21.041090811798096,16.537663079040527,20.786777811798096Q17.101722079040528,20.532463811798095,17.624378079040525,20.201305811798097L20.832553079040526,23.425892811798096C21.511559079040527,24.108371811798097,22.61570307904053,24.109781811798097,23.296447079040526,23.429035811798094C23.974776079040527,22.750705811798095,23.976140079040526,21.651340811798097,23.29949507904053,20.971330811798097L20.135061079040526,17.791157811798094ZM12.941245079040527,6.685043811798096Q13.091605179040528,6.685043811798096,13.241784079040528,6.692421411798096Q13.391962979040528,6.699799511798096,13.541600179040527,6.714537411798096Q13.691236479040528,6.729275211798096,13.839969679040527,6.751337511798096Q13.988701779040527,6.773400111798096,14.136173279040527,6.802733911798096Q14.283645079040527,6.832067711798096,14.429500079040528,6.868602311798096Q14.575353079040527,6.905137111798096,14.719239079040527,6.948784311798096Q14.863124079040528,6.992431411798096,15.004695079040527,7.0430863117980955Q15.146266079040528,7.093740911798095,15.285180079040527,7.151281311798096Q15.424095079040526,7.208821811798096,15.560019079040528,7.273108911798095Q15.695943079040527,7.337396611798096,15.828549079040528,7.408275811798095Q15.961154079040528,7.479155111798096,16.090123079040527,7.556455811798095Q16.219090079040527,7.633756411798096,16.344111079040527,7.717292111798096Q16.46913107904053,7.800828011798096,16.589902079040527,7.890397511798096Q16.710673079040525,7.979967111798096,16.826903079040527,8.075355011798095Q16.94313307904053,8.170742511798096,17.054543079040528,8.271718011798097Q17.165953079040527,8.372693511798095,17.272273079040527,8.479014411798095Q17.378594079040525,8.585335211798096,17.479569079040527,8.696744411798097Q17.580546079040527,8.808154611798095,17.675934079040527,8.924384611798097Q17.771321079040526,9.040614611798095,17.860889079040525,9.161384611798095Q17.95045807904053,9.282155511798095,18.033994079040525,9.407175511798096Q18.117530079040527,9.532195611798095,18.194831079040526,9.661163811798096Q18.272132079040528,9.790132011798097,18.34301107904053,9.922738111798097Q18.413890079040527,10.055344111798096,18.478177079040528,10.191268011798096Q18.542464079040528,10.327191811798095,18.60000507904053,10.466106911798096Q18.65754607904053,10.605021911798096,18.708201079040528,10.746593011798096Q18.758857079040528,10.888163611798095,18.802504079040528,11.032049611798096Q18.846150079040527,11.175935311798096,18.882685079040527,11.321790211798096Q18.919219079040527,11.467644211798095,18.94855307904053,11.615115611798096Q18.977887079040528,11.762587111798096,18.999949079040526,11.911320211798095Q19.022013079040526,12.060053311798097,19.036751079040528,12.209689611798096Q19.05148907904053,12.359325911798095,19.058867079040528,12.509504811798095Q19.066245079040527,12.659683711798095,19.066245079040527,12.810043811798096Q19.066245079040527,12.960403911798096,19.058867079040528,13.110582811798096Q19.051490079040526,13.260761711798096,19.036752079040525,13.410398911798096Q19.022014079040527,13.560035211798096,18.999950079040527,13.708768411798095Q18.977888079040525,13.857500511798095,18.948554079040527,14.004972011798095Q18.919220079040528,14.152443811798095,18.882686079040525,14.298298811798096Q18.846150079040527,14.444151811798095,18.802504079040528,14.588037811798095Q18.758857079040528,14.731922811798096,18.708201079040528,14.873493811798095Q18.657547079040526,15.015064811798096,18.600006079040526,15.153978811798096Q18.54246607904053,15.292893811798095,18.47817907904053,15.428817811798096Q18.41389207904053,15.564741811798095,18.343013079040528,15.697347811798096Q18.272134079040526,15.829952811798096,18.194833079040528,15.958921811798096Q18.11753207904053,16.087888811798095,18.033996079040527,16.212909811798095Q17.950459079040527,16.337929811798098,17.860891079040528,16.458700811798096Q17.771321079040526,16.579471811798093,17.675935079040528,16.695701811798095Q17.580546079040527,16.811931811798097,17.479570079040528,16.923341811798096Q17.378594079040525,17.034751811798095,17.27227407904053,17.141071811798096Q17.165954079040528,17.247392811798093,17.054543079040528,17.348367811798095Q16.94313307904053,17.449344811798095,16.826903079040527,17.544732811798095Q16.710673079040525,17.640119811798094,16.589903079040525,17.729687811798094Q16.469132079040527,17.8192568117981,16.344112079040528,17.902792811798093Q16.21909207904053,17.986328811798096,16.090124079040528,18.063629811798094Q15.961156079040528,18.140930811798096,15.828549079040528,18.211809811798098Q15.695943079040527,18.282688811798096,15.560019079040528,18.346975811798096Q15.424095079040526,18.411262811798096,15.285180079040527,18.468803811798097Q15.146266079040528,18.526344811798097,15.004694079040528,18.576999811798096Q14.863124079040528,18.627655811798096,14.719238079040528,18.671302811798096Q14.575353079040527,18.714948811798095,14.429499079040527,18.751483811798096Q14.283645079040527,18.788017811798095,14.136173279040527,18.817351811798098Q13.988701779040527,18.846685811798096,13.839968679040528,18.868747811798094Q13.691236479040528,18.890811811798095,13.541600179040527,18.905549811798096Q13.391962979040528,18.920287811798097,13.241784079040528,18.927665811798096Q13.091605179040528,18.935043811798096,12.941245079040527,18.935043811798096Q12.790884979040527,18.935043811798096,12.640706079040527,18.927665811798096Q12.490527179040527,18.920288811798095,12.340889979040528,18.905550811798093Q12.191253679040527,18.890812811798096,12.042520479040526,18.868748811798095Q11.893787379040528,18.846686811798094,11.746315979040528,18.817352811798095Q11.598844479040526,18.788018811798096,11.452990579040527,18.751484811798093Q11.307136579040527,18.714948811798095,11.163250879040527,18.671302811798096Q11.019364879040527,18.627655811798096,10.877793779040527,18.576999811798096Q10.736223179040527,18.526345811798095,10.597308179040528,18.468804811798094Q10.458393079040526,18.411264811798098,10.322468779040527,18.346977811798098Q10.186545379040528,18.282690811798098,10.053939379040528,18.211811811798096Q9.921333279040528,18.140932811798095,9.792365079040527,18.063631811798096Q9.663396879040526,17.986330811798098,9.538376779040528,17.902794811798096Q9.413356779040527,17.819257811798096,9.292585879040526,17.729689811798096Q9.171815879040526,17.640119811798094,9.055585879040528,17.544733811798096Q8.939355879040527,17.449344811798095,8.827945679040528,17.348368811798096Q8.716536479040528,17.247392811798093,8.610215679040527,17.141072811798097Q8.503894779040527,17.034752811798096,8.402919279040528,16.923341811798096Q8.301943279040527,16.811931811798097,8.206555879040527,16.695701811798095Q8.111168179040527,16.579471811798093,8.021598779040527,16.458701811798093Q7.932029279040528,16.337930811798095,7.848493379040527,16.212910811798096Q7.764957679040528,16.087890811798097,7.687657079040527,15.958922811798097Q7.610356579040527,15.829954811798096,7.539477379040527,15.697347811798096Q7.468597879040527,15.564741811798095,7.404310479040527,15.428817811798096Q7.340023079040527,15.292893811798095,7.282482579040527,15.153978811798096Q7.224942179040527,15.015064811798096,7.174287279040527,14.873492811798096Q7.1236326790405275,14.731922811798096,7.079985579040527,14.588036811798096Q7.036338379040528,14.444151811798095,6.9998035790405275,14.298297811798095Q6.963268979040528,14.152443811798095,6.933935179040527,14.004972011798095Q6.904601379040527,13.857500511798095,6.8825387790405275,13.708767411798096Q6.8604764790405275,13.560035211798096,6.845738679040528,13.410398911798096Q6.831000779040528,13.260761711798096,6.823622979040527,13.110582811798096Q6.816245079040527,12.960403911798096,6.816245079040527,12.810043811798096Q6.816245079040527,12.659683711798095,6.823622679040527,12.509504811798095Q6.831000779040528,12.359325911798095,6.845738679040528,12.209688711798096Q6.8604764790405275,12.060052411798095,6.8825387790405275,11.911319211798094Q6.904601379040527,11.762586111798097,6.933935179040527,11.615114711798096Q6.963268979040528,11.467643211798094,6.9998035790405275,11.321789311798096Q7.036338379040528,11.175935311798096,7.079985579040527,11.032049611798096Q7.1236326790405275,10.888163611798095,7.174287579040527,10.746592511798095Q7.224942179040527,10.605021911798096,7.282482579040527,10.466106911798096Q7.340023079040527,10.327191811798095,7.404310179040527,10.191267511798095Q7.468597879040527,10.055344111798096,7.539477079040527,9.922738111798097Q7.610356379040527,9.790132011798097,7.687657079040527,9.661163811798096Q7.764957679040528,9.532195611798095,7.848493379040527,9.407175511798096Q7.932029279040528,9.282155511798095,8.021598779040527,9.161384611798095Q8.111168379040528,9.040614611798095,8.206556279040527,8.924384611798097Q8.301943779040528,8.808154611798095,8.402919279040528,8.696744411798097Q8.503894779040527,8.585335211798096,8.610215679040527,8.479014411798095Q8.716536479040528,8.372693511798095,8.827945679040528,8.271718011798097Q8.939355879040527,8.170742011798096,9.055585879040528,8.075354611798096Q9.171815879040526,7.979966911798096,9.292585879040526,7.890397511798096Q9.413356779040527,7.800828011798096,9.538376779040528,7.717292111798096Q9.663396879040526,7.633756411798096,9.792365079040527,7.556455811798095Q9.921333279040528,7.479155311798095,10.053939379040528,7.408276111798095Q10.186545379040528,7.337396611798096,10.322469279040527,7.273109211798095Q10.458393079040526,7.208821811798096,10.597308179040528,7.151281311798096Q10.736223179040527,7.093740911798095,10.877794279040527,7.043086011798096Q11.019364879040527,6.992431411798096,11.163250879040527,6.948784311798096Q11.307136579040527,6.905137111798096,11.452991479040527,6.868602311798096Q11.598845479040527,6.832067711798096,11.746316879040528,6.802733911798096Q11.893788379040528,6.773400111798096,12.042521479040527,6.751337511798096Q12.191254579040528,6.729275211798096,12.340890879040527,6.714537411798096Q12.490527179040527,6.699799511798096,12.640706079040527,6.6924217117980955Q12.790884979040527,6.685043811798096,12.941245079040527,6.685043811798096Z" fill-rule="evenodd" fill="#191919"></path></symbol></defs><use xlink:href="#search-sidebar"></use></svg>