<svg xmlns:xlink="http://www.w3.org/1999/xlink" xmlns="http://www.w3.org/2000/svg" class="icon-priority-0 fast-transition text-grey-60 relative z-[1]" style="width: 18px; height: 18px;" width="24"  height="24" ><defs><symbol xmlns="http://www.w3.org/2000/svg" viewBox="0 0 24 24" id="priority-0" fill="#191919"><defs><clipPath id="priority-0_a"><rect width="24" height="24" rx="0"></rect></clipPath></defs><g clip-path="url(#priority-0_a)" fill="#191919"><path d="M3.7035399526355683,3.231521962132568L3.707084536532568,3.1918340921325683Q3.731945305632568,2.9134738421325683,3.937491949632568,2.7079277021325683Q4.1714335096325685,2.4739867299795684,4.502276599632569,2.4739867299795684Q4.833119429632569,2.4739867299795684,5.067061229632568,2.707927642132568Q5.272607829632569,2.9134736021325685,5.297468629632569,3.191834272132568L5.311301129632568,3.3467112821325684L19.522284529632568,3.3467112821325684Q19.99092452963257,3.3467115121325683,20.219533529632567,3.7558236421325684Q20.447728529632567,4.164189342132568,20.203469529632567,4.562515942132569L20.20167452963257,4.565438742132568L17.65959252963257,9.111411142132567Q17.50839152963257,9.38180594213257,17.659598529632568,9.652194042132567L20.201714529632568,14.198111342132568L20.203496529632567,14.201018342132569Q20.446734529632568,14.597713342132568,20.21086052963257,15.00689334213257Q19.97450952963257,15.416891342132569,19.50392152963257,15.416894342132569L5.300994429632569,15.416894342132569L5.301003929632568,20.72725634213257Q5.3010041296325685,21.05810334213257,5.067061829632569,21.292045342132567Q4.833122729632568,21.525985342132568,4.502275819632568,21.525985342132568Q4.1714311796325685,21.52598734213257,3.9374911196325684,21.292045342132567Q3.7035492807625685,21.05810334213257,3.7035492211575685,20.72725634213257L3.7035492807625685,15.490892342132568L3.7035399526355683,3.272710982132568L3.7035399526355683,3.231521962132568ZM18.08605752963257,4.944165442132569L5.3010025296325685,4.944165442132569L5.3010025296325685,4.9941654421325685L5.300994529632568,13.819438342132567L18.086083529632567,13.819438342132567L15.866020529632568,9.811073342132568Q15.628264529632569,9.381798242132568,15.866019529632569,8.952529442132569L18.08605752963257,4.944165442132569Z" fill-rule="evenodd" fill="#191919"></path></g></symbol></defs><use xlink:href="#priority-0"></use></svg>