<svg xmlns:xlink="http://www.w3.org/1999/xlink" xmlns="http://www.w3.org/2000/svg" class="icon-habit-sidebar w-[28px] h-[28px] text-grey whiteSvg_2wUcK opacity-40 hover:opacity-60" width="28"  height="28" ><defs><symbol xmlns="http://www.w3.org/2000/svg" viewBox="0 0 28 28" id="habit-sidebar" fill="#191919"><path d="M23.625,13.125Q23.625,17.932422000000003,15.752769,23.285732C14.699005,24.002319,13.3009949,24.002319,12.2472315,23.285734Q4.375,17.932422000000003,4.375,13.125C4.375,7.8092589,8.6842594,3.5,14,3.5C19.315741,3.5,23.625,7.8092589,23.625,13.125ZM13.125,13.524414L13.125,9.149414100000001Q13.125,9.0632339,13.1418123,8.9787097Q13.1586246,8.894185499999999,13.1916046,8.8145657Q13.2245836,8.7349453,13.2724628,8.6632891Q13.3203421,8.5916333,13.3812809,8.530695Q13.4422197,8.4697566,13.513876,8.4218774Q13.5855312,8.3739986,13.6651516,8.3410187Q13.744771,8.3080397,13.8292952,8.2912269Q13.9138193,8.274414100000001,14,8.274414100000001Q14.0861797,8.274414100000001,14.1707029,8.2912269Q14.2552271,8.3080397,14.3348465,8.3410192Q14.414467,8.3739986,14.486122,8.4218779Q14.557779,8.469757099999999,14.618718,8.530695399999999Q14.679657,8.5916338,14.727535,8.663289500000001Q14.775414,8.7349453,14.808393,8.8145657Q14.841373,8.894185499999999,14.858187,8.9787097Q14.875,9.0632339,14.875,9.149414100000001L14.875,12.6494141L16.625,12.6494141Q16.71118,12.6494141,16.795704,12.6662264Q16.880226999999998,12.6830387,16.959846,12.7160187Q17.039465999999997,12.7489977,17.111121,12.7968769Q17.182777,12.8447552,17.243717,12.905695Q17.304655,12.9666328,17.352534,13.0382891Q17.400413999999998,13.1099453,17.433393000000002,13.1895647Q17.466373,13.2691851,17.483186,13.3537102Q17.499999000000003,13.4382343,17.5,13.524414Q17.499999000000003,13.610594,17.483186,13.695118Q17.466372,13.779641,17.433393000000002,13.859261Q17.400413999999998,13.938881,17.352534,14.010536Q17.304655,14.082192,17.243717,14.143131Q17.182777,14.204069,17.111122,14.251948Q17.039465999999997,14.299828,16.959846,14.332808Q16.880226999999998,14.365788,16.795703,14.382601Q16.71118,14.399414,16.625,14.399414L14,14.399414Q13.9138193,14.399414,13.8292952,14.382601Q13.744771,14.365788,13.6651516,14.332808Q13.5855312,14.299828,13.513876,14.251948Q13.4422197,14.204069,13.3812809,14.143131Q13.3203421,14.082192,13.2724628,14.010536Q13.2245836,13.938881,13.1916046,13.859261Q13.1586246,13.779641,13.1418123,13.695118Q13.125,13.610594,13.125,13.524414Z" fill-rule="evenodd" fill="#191919"></path></symbol></defs><use xlink:href="#habit-sidebar"></use></svg>