<svg xmlns:xlink="http://www.w3.org/1999/xlink" xmlns="http://www.w3.org/2000/svg" class="icon-tag text-grey-60 relative z-[1]" style="width: 18px; height: 18px;" width="24"  height="24" ><defs><symbol xmlns="http://www.w3.org/2000/svg" viewBox="0 0 24 24" id="tag" fill="#191919"><defs><clipPath id="tag_a"><rect width="24" height="24" rx="0"></rect></clipPath></defs><g clip-path="url(#tag_a)" fill="#191919"><path d="M20.5478282578125,12.42546562265625Q20.2884602578125,11.78584672265625,19.7962072578125,11.29360012265625L13.0288009578125,4.52617442265625Q12.1197395578125,3.61711165265625,10.836974157812499,3.53159404265625L5.9268453578125,3.20425207915625Q5.3595731578125,3.16643381165625,4.8355075578125,3.36903503265625Q4.3320158578125,3.56368229265625,3.9478796678125,3.94781863265625Q3.5637434978125,4.33195492265625,3.3690961178125,4.83544692265625Q3.1664949168125,5.359512822656249,3.2043130882125,5.92678452265625L3.5316554578125,10.83691552265625Q3.6171730478125,12.11967662265625,4.5262355578125,13.02873992265625L11.2936086578125,19.79609722265625Q11.7858571578125,20.28834322265625,12.4254712578125,20.54772222265625Q13.0432939578125,20.79825622265625,13.7130362578125,20.79825622265625Q14.3827822578125,20.79825622265625,15.0005992578125,20.54772222265625Q15.6402182578125,20.28834322265625,16.1324642578125,19.79609722265625L19.7962052578125,16.13246122265625Q20.2884602578125,15.64020722265625,20.5478282578125,15.00059422265625Q20.7983682578125,14.38277222265625,20.7983682578125,13.71303122265625Q20.7983682578125,13.04328632265625,20.5478282578125,12.42546562265625ZM5.7013752578125,11.85359952265625Q5.233854057812501,11.38607882265625,5.1898726578125,10.72636602265625L4.8625296578125,5.816237022656249Q4.8354808578125,5.41049672265625,5.1230195578124995,5.12295822265625Q5.4105577578125,4.83541952265625,5.8162984578125005,4.86246872265625L10.7264265578125,5.18981102265625Q11.3861370578125,5.2337920226562495,11.8536615578125,5.70131352265625L18.621043257812502,12.46871472265625Q19.1364422578125,12.98411182265625,19.1364652578125,13.71297522265625Q19.1364652578125,14.44186622265625,18.621039257812498,14.95724022265625L14.9573512578125,18.62098322265625Q14.4419502578125,19.13638322265625,13.7130392578125,19.136409222656248Q12.9841489578125,19.136410222656252,12.4687728578125,18.620981222656248L5.7013752578125,11.85359952265625ZM8.2732129578125,7.01046082265625Q7.7501830578125,7.01047182265625,7.3803381578125,7.38031622265625Q7.0104956578125,7.75015882265625,7.0104956578125,8.273184322656249Q7.0104956578125,8.79620932265625,7.3803386578125,9.16604992265625Q7.7501859578125,9.53589822265625,8.2732129578125,9.535913922656249Q8.7962474578125,9.53592922265625,9.1660857578125,9.16609192265625Q9.5359272578125,8.79624842265625,9.5359272578125,8.27319002265625Q9.5359272578125,7.75013402265625,9.166085257812501,7.38029142265625Q8.796245557812501,7.01045132265625,8.2732129578125,7.01046082265625Z" fill-rule="evenodd" fill="#191919"></path></g></symbol></defs><use xlink:href="#tag"></use></svg>