<svg xmlns:xlink="http://www.w3.org/1999/xlink" xmlns="http://www.w3.org/2000/svg" class="icon-user-icon icon-s-normal-tny absolute text-[#aeaeae]" style="width: 10px; height: 10px; right: -3px; top: -3px;" width="18"  height="18" ><defs><symbol xmlns="http://www.w3.org/2000/svg" viewBox="0 0 18 18" id="user-icon" fill="#191919"><defs><linearGradient x1=".41" y1=".413" x2=".826" y2=".882" id="user-icon_a"><stop offset="0%" stop-color="#FFFFFF"></stop><stop offset="100%" stop-color="#FFF0CD"></stop></linearGradient></defs><circle cx="9" cy="9" r="9" fill="#191919"></circle><path d="M9,3.9999756813049316C9.55228,3.999975681304932,10,4.447690681304931,10,4.999975681304932C10,5.261205681304932,9.89983,5.499035681304932,9.73582,5.677165681304931L10.42052,7.239075681304932C10.573820000000001,7.588625681304931,10.957609999999999,7.775835681304931,11.32744,7.681465681304932L13.0306,7.246595681304932C13.0106,7.167705681304932,13,7.085085681304932,13,6.999975681304932C13,6.447695681304932,13.4477,5.999975681304932,14,5.999975681304932C14.5523,5.999975681304932,15,6.447695681304932,15,6.999975681304932C15,7.552255681304931,14.5523,7.999975681304932,14,7.999975681304932C13.9295,7.999975681304932,13.8607,7.992675681304932,13.7943,7.978795681304931L12.83026,12.602025681304932C12.78193,12.833855681304932,12.5776,12.999975681304932,12.34079,12.999975681304932L5.6591000000000005,12.999975681304932C5.42234,12.999975681304932,5.21804,12.833925681304931,5.16965,12.602165681304932L4.20474,7.978995681304932C4.13865,7.992745681304932,4.07017,7.999975681304932,4,7.999975681304932C3.447715,7.999975681304932,3,7.552255681304931,3,6.999975681304932C3.0000000000000004,6.447695681304932,3.447715,5.999975681304932,4,5.999975681304932C4.55228,5.999975681304932,5,6.447695681304932,5,6.999975681304932C5,7.085085681304932,4.98937,7.167705681304932,4.96936,7.246595681304932L6.67346,7.681585681304932C7.04332,7.775885681304931,7.42707,7.588595681304932,7.5803,7.239015681304932L8.26509,5.678145681304931C8.100539999999999,5.499915681304932,8,5.2616856813049315,8,4.999975681304932C8,4.447690681304931,8.44771,3.9999756813049316,9,3.9999756813049316Z" fill-rule="evenodd" fill="url(&quot;#user-icon_a&quot;)"></path></symbol></defs><use xlink:href="#user-icon"></use></svg>