<svg xmlns:xlink="http://www.w3.org/1999/xlink" xmlns="http://www.w3.org/2000/svg" class="icon-move-list flex-none text-grey-60" style="width: 18px; height: 18px;" width="24"  height="24" ><defs><symbol xmlns="http://www.w3.org/2000/svg" viewBox="0 0 24 24" id="move-list" fill="#191919"><path d="M5.00000524520874,4.75L19.00000524520874,4.75C19.00000524520874,3.9215728,18.32843124520874,3.25,17.50000524520874,3.25L6.50000524520874,3.25C5.671577945208741,3.25,5.00000524520874,3.9215728,5.00000524520874,4.75ZM17.50001124520874,20.75L6.50001384520874,20.75C4.29087094520874,20.75,2.5000090159621404,18.909142,2.50001042498164,16.7L2.50001057812644,9.7999997C2.5000099307662405,7.5908604,4.29087064520874,5.75,6.50001004520874,5.75L17.50000924520874,5.75C19.70914824520874,5.75,21.50001124520874,7.5908608,21.50000924520874,9.8000002C21.50001124520874,12.1300011,21.50001124520874,14.46,21.50000724520874,16.789998C21.50000524520874,18.999135000000003,19.70914824520874,20.75,17.50001124520874,20.75ZM17.50001124520874,19.249999000000003L6.50001384520874,19.249999000000003Q5.47669794520874,19.249999000000003,4.74128274520874,18.501885Q4.00000974520874,17.747812,4.00001034520874,16.7L4.0000113452087405,13.250002L4.00001024520874,9.7999992Q4.00001004520874,8.7521887,4.74128314520874,7.9981146Q5.47669844520874,7.25,6.50001004520874,7.25L17.500010245208742,7.25Q18.52332224520874,7.25,19.25873524520874,7.9981146Q20.00000924520874,8.752190599999999,20.00000924520874,9.8000078L20.00000724520874,16.789999Q20.00000724520874,17.815596,19.27517624520874,18.530414Q18.54551124520874,19.249999000000003,17.50001124520874,19.249999000000003ZM13.87349124520874,10.3599243Q14.21559724520874,10.3599243,14.45714824520874,10.5766706L16.85856724520874,12.7314968Q17.098938245208743,12.9471846,17.098938245208743,13.251595Q17.098938245208743,13.556006,16.85856724520874,13.771695Q16.85349624520874,13.776245,16.84835624520874,13.7807L14.45694924520874,15.926536Q14.21539924520874,16.143283,13.87329124520874,16.143283Q13.53118324520874,16.143283,13.28963424520874,15.926536Q13.04926324520874,15.710849,13.04926324520874,15.406438Q13.04926324520874,15.102027,13.28963424520874,14.886338L14.28402024520874,13.994061L7.63675304520874,13.994061Q7.33154154520874,13.994061,7.1157245452087405,13.778244Q6.89990754520874,13.562428,6.89990754520874,13.257216Q6.89990754520874,12.9520044,7.1157245452087405,12.736187Q7.33154154520874,12.5203705,7.63675304520874,12.5203705L14.29672824520874,12.5203705L13.28983324520874,11.616869Q13.04946224520874,11.4011803,13.04946224520874,11.0967703Q13.04946224520874,10.7923603,13.28983324520874,10.5766711Q13.53138424520874,10.3599243,13.87349124520874,10.3599243Z" fill-rule="evenodd" fill="#191919"></path></symbol></defs><use xlink:href="#move-list"></use></svg>