<svg xmlns:xlink="http://www.w3.org/1999/xlink" xmlns="http://www.w3.org/2000/svg" class="icon-normal-list w-full h-full text-sidebar-color" width="24"  height="24" ><defs><symbol xmlns="http://www.w3.org/2000/svg" viewBox="0 0 24 24" id="normal-list" fill="#191919"><defs><clipPath id="normal-list_a"><rect width="24" height="24" rx="0"></rect></clipPath></defs><g clip-path="url(#normal-list_a)" fill="#191919"><path d="M3.7167235463855683,6.1666828999450685Q3.7167235612865683,6.491149999945068,3.946156593382568,6.720583199945068Q4.175589683382569,6.9500162999450685,4.5000569233825685,6.9500162999450685L19.50005812338257,6.9500162999450685Q19.82452312338257,6.9500162999450685,20.05395612338257,6.720583199945068Q20.28338912338257,6.491149699945068,20.28338912338257,6.1666828999450685Q20.28338912338257,5.842216009945068,20.05395612338257,5.612782539945068Q19.82452312338257,5.383349522948069,19.50005812338257,5.383349522948069L4.5000569233825685,5.383349522948069Q4.175589623382568,5.383349537849068,3.946156593382568,5.612782569945068Q3.7167235463855683,5.842215659945069,3.7167235463855683,6.1666828999450685ZM3.7167235463855683,12.000057199945068Q3.7167235612865683,12.32452439994507,3.946156593382568,12.553957499945067Q4.175589803382568,12.78339099994507,4.5000569233825685,12.78339099994507L19.50005812338257,12.78339099994507Q19.82452312338257,12.78339099994507,20.05395612338257,12.553957499945067Q20.28338912338257,12.324523899945067,20.28338912338257,12.000057199945068Q20.28338912338257,11.675589999945068,20.05395612338257,11.446155999945068Q19.82452312338257,11.21672389994507,19.50005812338257,11.21672389994507L4.5000569233825685,11.21672389994507Q4.175588783382568,11.21672389994507,3.946156593382568,11.446155999945068Q3.7167235463855683,11.675589599945068,3.7167235463855683,12.000057199945068ZM3.7167235463855683,17.833310099945066Q3.7167235612865683,18.157776099945067,3.946156593382568,18.387209099945068Q4.175589803382568,18.61664309994507,4.5000569233825685,18.61664309994507L19.50005812338257,18.61664309994507Q19.82452312338257,18.61664309994507,20.05395612338257,18.387209099945068Q20.28338912338257,18.157776099945067,20.28338912338257,17.833310099945066Q20.28338912338257,17.508843099945068,20.05395612338257,17.279410099945068Q19.82452312338257,17.04997609994507,19.50005812338257,17.04997609994507L4.5000569233825685,17.04997609994507Q4.175589803382568,17.04997609994507,3.946156593382568,17.279410099945068Q3.7167235463855683,17.508843099945068,3.7167235463855683,17.833310099945066Z" fill-rule="evenodd" fill="#191919"></path></g></symbol></defs><use xlink:href="#normal-list"></use></svg>