<svg xmlns:xlink="http://www.w3.org/1999/xlink" xmlns="http://www.w3.org/2000/svg" class="icon-more-titlebar i-o-36 i-h-o-54 w-[20px] h-[20px] cursor-pointer relative z-[1]" width="24"  height="24" ><defs><symbol xmlns="http://www.w3.org/2000/svg" viewBox="0 0 24 24" id="more-titlebar" fill="#191919"><path d="M3.5,12Q3.5,11.926309700000001,3.5072229095,11.8529742Q3.514445819,11.7796388,3.528822076,11.7073643Q3.543198336,11.6350901,3.564589493,11.5645729Q3.585980654,11.49405575,3.61418069,11.42597479Q3.64238074,11.35789394,3.67711811,11.29290485Q3.71185547,11.22791588,3.75279558,11.16664457Q3.79373571,11.10537338,3.84048432,11.04841006Q3.88723296,10.99144673,3.93933982,10.93933982Q3.99144673,10.88723296,4.04841006,10.84048432Q4.10537338,10.79373568,4.16664457,10.75279555Q4.22791588,10.71185544,4.29290497,10.67711809Q4.35789394,10.64238074,4.42597479,10.61418069Q4.49405575,10.585980654,4.5645729,10.564589493Q4.6350901,10.543198336,4.7073643999999994,10.528822076Q4.7796388,10.514445819,4.8529742,10.5072229095Q4.9263097,10.5,5,10.5Q5.0736904,10.5,5.1470258,10.5072229095Q5.2203612,10.514445819,5.2926354,10.528822076Q5.3649099,10.543198336,5.4354271,10.564589493Q5.5059442999999995,10.585980654,5.5740248999999995,10.61418069Q5.6421060999999995,10.64238074,5.7070951,10.67711811Q5.7720842,10.71185547,5.8333552,10.75279558Q5.8946266000000005,10.79373571,5.9515898,10.84048432Q6.008553,10.88723296,6.0606599,10.93933982Q6.112767,10.99144673,6.159515600000001,11.04841006Q6.206264,11.10537338,6.247204099999999,11.16664457Q6.2881444,11.22791588,6.3228817,11.29290497Q6.357619,11.35789394,6.385819,11.42597479Q6.4140191,11.49405575,6.4354105,11.5645729Q6.4568014,11.6350901,6.4711776,11.7073644Q6.4855542,11.7796388,6.4927771,11.8529742Q6.5,11.926309700000001,6.5,12Q6.5,12.0736904,6.4927771,12.1470258Q6.4855542,12.2203612,6.4711776,12.2926354Q6.4568014,12.3649099,6.4354105,12.4354271Q6.4140191,12.5059443,6.385819,12.5740249Q6.357619,12.6421061,6.3228817,12.7070951Q6.2881444,12.7720842,6.247204099999999,12.8333552Q6.206264,12.8946266,6.159515600000001,12.9515898Q6.1127672,13.008553,6.0606601,13.060659900000001Q6.0085535,13.112767,5.9515902999999994,13.1595156Q5.8946269000000004,13.206264000000001,5.8333554,13.2472041Q5.7720842,13.2881444,5.7070954,13.3228817Q5.6421060999999995,13.357619,5.5740251999999995,13.385819Q5.5059442999999995,13.4140191,5.4354271999999995,13.4354105Q5.3649099,13.4568014,5.2926354,13.4711776Q5.2203612,13.4855542,5.1470258,13.4927771Q5.0736904,13.5,5,13.5Q4.9263097,13.5,4.8529742,13.4927771Q4.7796388,13.4855542,4.7073643,13.4711776Q4.6350901,13.4568014,4.5645729,13.4354105Q4.49405575,13.4140191,4.42597479,13.385819Q4.35789394,13.357619,4.29290485,13.3228817Q4.22791588,13.2881444,4.16664457,13.2472041Q4.10537338,13.206264000000001,4.04841006,13.1595156Q3.99144673,13.1127672,3.93933982,13.0606601Q3.88723296,13.0085535,3.84048432,12.9515903Q3.79373568,12.8946269,3.75279555,12.8333554Q3.71185544,12.7720842,3.67711809,12.7070954Q3.64238074,12.6421061,3.61418069,12.5740252Q3.585980654,12.5059443,3.564589493,12.4354272Q3.543198336,12.3649099,3.528822076,12.2926354Q3.514445819,12.2203612,3.5072229095,12.1470258Q3.5,12.0736904,3.5,12ZM10.5,12Q10.5,11.926309700000001,10.5072227,11.8529742Q10.5144453,11.7796388,10.5288215,11.7073643Q10.5431976,11.6350901,10.564589,11.5645729Q10.5859799,11.49405575,10.6141796,11.42597479Q10.6423798,11.35789394,10.677117800000001,11.29290485Q10.711854899999999,11.22791588,10.752794699999999,11.16664457Q10.7937355,11.10537338,10.840484100000001,11.04841006Q10.8872328,10.99144673,10.9393396,10.93933982Q10.9914465,10.88723296,11.0484099,10.84048432Q11.105373400000001,10.79373568,11.1666441,10.75279555Q11.2279158,10.71185544,11.2929049,10.67711809Q11.3578939,10.64238074,11.425974400000001,10.61418069Q11.4940557,10.585980654,11.5645733,10.564589493Q11.6350899,10.543198336,11.7073641,10.528822076Q11.7796392,10.514445819,11.8529749,10.5072229095Q11.9263096,10.5,12,10.5Q12.0736904,10.5,12.1470261,10.5072229095Q12.2203617,10.514445819,12.292635,10.528822076Q12.3649101,10.543198336,12.4354277,10.564589493Q12.5059452,10.585980654,12.5740252,10.61418069Q12.642107,10.64238074,12.7070951,10.67711811Q12.7720842,10.71185547,12.8333549,10.75279558Q12.8946266,10.79373571,12.9515905,10.84048432Q13.0085545,10.88723296,13.0606604,10.93933982Q13.1127682,10.99144673,13.1595163,11.04841006Q13.2062645,11.10537338,13.2472038,11.16664457Q13.2881451,11.22791588,13.3228827,11.29290497Q13.3576202,11.35789394,13.3858185,11.42597479Q13.4140196,11.49405575,13.4354105,11.5645729Q13.4568024,11.6350901,13.4711781,11.7073644Q13.4855556,11.7796388,13.4927778,11.8529742Q13.500001,11.926309700000001,13.5,12Q13.500001,12.0736904,13.4927778,12.1470258Q13.4855556,12.2203612,13.4711781,12.2926354Q13.4568024,12.3649099,13.4354115,12.4354271Q13.4140196,12.5059443,13.3858185,12.5740249Q13.3576202,12.6421061,13.3228827,12.7070951Q13.2881451,12.7720842,13.2472038,12.8333552Q13.2062645,12.8946266,13.1595163,12.9515898Q13.1127682,13.008553,13.0606604,13.060659900000001Q13.0085545,13.112767,12.9515905,13.1595156Q12.8946266,13.206264000000001,12.8333549,13.2472041Q12.7720842,13.2881444,12.7070951,13.3228817Q12.642107,13.357619,12.5740252,13.385819Q12.5059452,13.4140191,12.4354267,13.4354105Q12.3649101,13.4568014,12.292635,13.4711776Q12.2203617,13.4855542,12.1470261,13.4927771Q12.0736904,13.5,12,13.5Q11.9263096,13.5,11.8529749,13.4927771Q11.7796392,13.4855542,11.7073641,13.4711776Q11.6350899,13.4568014,11.5645733,13.4354105Q11.4940557,13.4140191,11.425973899999999,13.385819Q11.357893,13.357619,11.292904400000001,13.3228817Q11.2279158,13.2881444,11.1666441,13.2472041Q11.105373400000001,13.206264000000001,11.0484099,13.1595156Q10.9914465,13.1127672,10.9393392,13.0606601Q10.8872328,13.0085535,10.840484100000001,12.9515903Q10.7937355,12.8946269,10.752794699999999,12.8333554Q10.711854899999999,12.7720842,10.677117299999999,12.7070954Q10.6423798,12.6421061,10.6141796,12.5740252Q10.5859799,12.5059443,10.564589,12.4354272Q10.5431976,12.3649099,10.5288215,12.2926354Q10.5144453,12.2203612,10.507223100000001,12.1470258Q10.5,12.0736904,10.5,12ZM17.5,12Q17.5,11.926309700000001,17.507222,11.8529742Q17.514445000000002,11.7796388,17.528821,11.7073643Q17.543198,11.6350901,17.564588,11.5645729Q17.585979000000002,11.49405575,17.614179,11.42597479Q17.64238,11.35789394,17.677115999999998,11.29290485Q17.711854000000002,11.22791588,17.752793,11.16664457Q17.793734999999998,11.10537338,17.840483,11.04841006Q17.887231999999997,10.99144673,17.939339,10.93933982Q17.991446,10.88723296,18.048409,10.84048432Q18.105373,10.79373568,18.166643,10.75279555Q18.227915,10.71185544,18.292904,10.67711809Q18.357893,10.64238074,18.425973,10.61418069Q18.494055,10.585980654,18.564571,10.564589493Q18.635089999999998,10.543198336,18.707363,10.528822076Q18.779638,10.514445819,18.852975,10.5072229095Q18.926311,10.5,19,10.5Q19.07369,10.5,19.147025,10.5072229095Q19.22036,10.514445819,19.292633000000002,10.528822076Q19.364908,10.543198336,19.435425000000002,10.564589493Q19.505943,10.585980654,19.574022,10.61418069Q19.642105,10.64238074,19.707094,10.67711811Q19.772083,10.71185547,19.833353,10.75279558Q19.894627,10.79373571,19.951588,10.84048432Q20.008553,10.88723296,20.060659,10.93933982Q20.112766,10.99144673,20.159515,11.04841006Q20.206264,11.10537338,20.247204,11.16664457Q20.288143,11.22791588,20.322882,11.29290497Q20.35762,11.35789394,20.385818,11.42597479Q20.414021,11.49405575,20.435411,11.5645729Q20.456802,11.6350901,20.471178,11.7073644Q20.485556,11.7796388,20.492779,11.8529742Q20.5,11.926309700000001,20.5,12Q20.5,12.0736904,20.492779,12.1470258Q20.485556,12.2203612,20.471178,12.2926354Q20.456802,12.3649099,20.435411,12.4354271Q20.414021,12.5059443,20.385818,12.5740249Q20.35762,12.6421061,20.322882,12.7070951Q20.288143,12.7720842,20.247204,12.8333552Q20.206264,12.8946266,20.159515,12.9515898Q20.112766,13.008553,20.060659,13.060659900000001Q20.008553,13.112767,19.95159,13.1595156Q19.894627,13.206264000000001,19.833355,13.2472041Q19.772083,13.2881444,19.707096,13.3228817Q19.642105,13.357619,19.574024,13.385819Q19.505943,13.4140191,19.435427,13.4354105Q19.364910000000002,13.4568014,19.292635,13.4711776Q19.220361,13.4855542,19.147026,13.4927771Q19.07369,13.5,19,13.5Q18.926311,13.5,18.852974,13.4927771Q18.779638,13.4855542,18.707363,13.4711776Q18.635089999999998,13.4568014,18.564572,13.4354105Q18.494055,13.4140191,18.425973,13.385819Q18.357893,13.357619,18.292904,13.3228817Q18.227915,13.2881444,18.166643,13.2472041Q18.105373,13.206264000000001,18.04841,13.1595156Q17.991446,13.1127672,17.939339,13.0606601Q17.887231999999997,13.0085535,17.840484,12.9515903Q17.793736000000003,12.8946269,17.752794,12.8333554Q17.711855,12.7720842,17.677117000000003,12.7070954Q17.64238,12.6421061,17.614179,12.5740252Q17.585979000000002,12.5059443,17.564588,12.4354272Q17.543198,12.3649099,17.528821,12.2926354Q17.514445000000002,12.2203612,17.507223,12.1470258Q17.5,12.0736904,17.5,12Z" fill="#191919"></path></symbol></defs><use xlink:href="#more-titlebar"></use></svg>